/* XPM */
static char *exit1709117286[] = {
/* columns rows colors chars-per-pixel */
"32 32 95 2 ",
"   c #363638",
".  c #383738",
"X  c #373838",
"o  c #393839",
"O  c #57482C",
"+  c #5A4C2D",
"@  c #43433C",
"#  c #514638",
"$  c #5B4E39",
"%  c #5B5437",
"&  c #5C5538",
"*  c #685429",
"=  c #7F6B2D",
"-  c #6F6B3F",
";  c #7D6236",
":  c #7B6930",
">  c #595D46",
",  c #595F48",
"<  c #666243",
"1  c #656C4D",
"2  c #6B6E4B",
"3  c #726F42",
"4  c #6A714E",
"5  c #757042",
"6  c #6E7650",
"7  c #6F7852",
"8  c #707751",
"9  c #717952",
"0  c #8F6C1C",
"q  c #906E1E",
"w  c #9E7618",
"e  c #A47916",
"r  c #826522",
"t  c #866A24",
"y  c #8F7E35",
"u  c #A17C38",
"i  c #7F8857",
"p  c #A8811D",
"a  c #9B8A39",
"s  c #B0922B",
"d  c #B79D34",
"f  c #B89E34",
"g  c #B8A137",
"h  c #B9A43A",
"j  c #BCA83C",
"k  c #C1AB3A",
"l  c #86864B",
"z  c #9F8D49",
"x  c #85905A",
"c  c #8C975D",
"v  c #8C985D",
"b  c #A39641",
"n  c #9AA35D",
"m  c #A6AA58",
"M  c #AAAA5D",
"N  c #97A562",
"B  c #99A663",
"V  c #A1AF66",
"C  c #AEBE6B",
"Z  c #B0BF6C",
"A  c #C3B749",
"S  c #C6BB4C",
"D  c #C8BE4E",
"F  c #C7BF50",
"G  c #D4B952",
"H  c #AFC16D",
"J  c #B2C36D",
"K  c #BBCA6D",
"L  c #B7C970",
"P  c #BACD71",
"I  c #BDD073",
"U  c #C7C050",
"Y  c #C9C353",
"T  c #D0D15F",
"R  c #CDD162",
"E  c #CDD468",
"W  c #D2D562",
"Q  c #D6DA66",
"!  c #D7DE68",
"~  c #D8DF69",
"^  c #C4D775",
"/  c #C5D876",
"(  c #D7E06B",
")  c #DAE36D",
"_  c #DBE670",
"`  c #DCEA72",
"'  c #DFF078",
"]  c #E0EF77",
"[  c #E0EF78",
"{  c #E2F47B",
"}  c #DFF581",
"|  c #E2F582",
" . c #E7FE84",
".. c #E9FF85",
"X. c #EAFF88",
/* pixels */
" . . . . . . . . . . ... . ....... . . . . . . . .X....... . . .",
"....X.' ^ L L L L J L ^ } ..X.X.X.X.X.{ / L L L L L L ^ } .... .",
" . .| / c 9 4 6 6 6 8 c / | | | |  .| ^ c 8 4 6 4 4 8 c / | .. .",
"..| / B > o   X X X o , B L ^ L L I K B , o   X     o , B / | ..",
"..^ v > @   X X . X . @ , 1 1 1 1 1 1 , >   . .       @ > v ^  .",
"J n 5 + O O O O O O O O + + + + + + + + O O O O O O O O + 5 n J ",
"6 3 : r t t t t t t t t r r r r r r r r = r r t t t t 0 = : 5 4 ",
"X % y d d d d d d d d f d f d d f f f f s d f f g d d d s a & o ",
"X < M ! ~ ~ ~ ! ! ! ! ! ( ! ! ! ( ( ( ( ! ! ! ( ! ! ! ~ ~ m < X ",
"X 1 C  . .[ ) ~ {  . .[ ( ) ' ' ( T W ( { { ( R T ! '  . .Z 1 X ",
". 6 J X.X.) Y S _ X. .` S Y ) ` D h h S ` ) Y h h Y ` X.X.L 6 X ",
"o 1 J ....W h s F _ { Q d j T ! d e e d ! T j p s A )  . .J 1 . ",
"o 1 J  ...W g p s F ~ ! d j R ! d e e d ! W j s Y ) {  . .J 1 o ",
"o 4 J ....) F h j Y ) _ F Y ( _ S g g S ` ) Y A _  .X... .Z 6 o ",
"o 4 J  ...{ ( W W ~ ' { ~ ) ' | ) Q W ( { ` ) ( {  . .....J 1 o ",
"o 4 J  ...{ _ ! Q _ { | _ ` '  . . . .{ _ ` { | _ _ { ....J 4 . ",
"o 2 J ..X.( S f d F ~ _ A S ~ X. .X. .) A S ! _ A S ~ ....J 1 o ",
"o 2 J .. .W f e e j W Q f h W [ ) _ ` Q d j T Q d h W ....J 4 o ",
"o 2 J ....Q g e e h W ~ d j T _ D Y ) ! d j T ~ d j W ....J 4 o ",
"  4 J ..X.) S f d S ~ _ S F Q ] S F ! _ S Y ( ) A S ( ....J 2 o ",
"  1 J  .X.{ ] Q Q ` { { _ ] [ { ) ` { { _ ` { { ) ] { X...J 1 o ",
"4 x B Z J Z Z C C J J J Z Z C C C C C J J J J Z Z Z J J C B x 4 ",
"J V x 8 4 8 8 8 6 6 6 6 9 9 8 8 9 9 9 9 6 4 9 8 8 8 6 4 8 x V J ",
"../ v > @ @ # $ $ #   > > 1 1 1 1 1 1 , @ @ # % $ # @ @ , c ^ ..",
"..| ^ N > $ ; u u r > > n Z ^ K P P L N > > r u u r $ > n ^ |  .",
"W ! T m > < z G G z < > M R Q T R W R M > < z G G z < > M R Q W ",
"g j h a % 3 M ) ) M 2 % a f A g k k f a $ 2 M ) _ V 3 $ z f k f ",
"e e e q * 3 n K P n 3 * 0 w e e e e e 0 * 5 n L P B 5 * q e e e ",
"e e e w q t 2 1 1 3 : q w e e e e e e e q = - 1 1 3 = q w e e e ",
"h h h h h b l 8 9 l b h h h h h f h h h h b l 9 6 l b h f h h h ",
"Q Q Q Q Q E K J J P E ~ Q Q Q Q Q W Q Q Q E K J J K E Q Q Q Q Q ",
" . ....... .X. . . . . . . . . . .X.X.X. ..... . ... ... ......."
};
