/* XPM */
static char *floor1709117286[] = {
/* columns rows colors chars-per-pixel */
"32 32 171 2 ",
"   c #63CD07",
".  c #7CDD1E",
"X  c #9AEF39",
"o  c #A0F23F",
"O  c #78DB1B",
"+  c #7FDF22",
"@  c #99EE38",
"#  c #A0F33F",
"$  c #7EDE21",
"%  c #9CF03C",
"&  c #B5FF53",
"*  c #87E428",
"=  c #94EC33",
"-  c #97EE36",
";  c #85E327",
":  c #81DB28",
">  c #85D630",
",  c #86D732",
"<  c #80DB25",
"1  c #81DA28",
"2  c #85D730",
"3  c #86D632",
"4  c #88E429",
"5  c #94ED33",
"6  c #97EE35",
"7  c #85E326",
"8  c #88E529",
"9  c #93EC33",
"0  c #87E429",
"q  c #95EE35",
"w  c #A0F43E",
"e  c #90E931",
"r  c #85E228",
"t  c #83E126",
"y  c #92EA32",
"u  c #84D52F",
"i  c #6EBB26",
"p  c #69B523",
"a  c #89DA31",
"s  c #83D32F",
"d  c #6EBC26",
"f  c #68B523",
"g  c #8FE730",
"h  c #83E025",
"j  c #8FE830",
"k  c #86E228",
"l  c #8FE731",
"z  c #7BDA1F",
"x  c #88DF2D",
"c  c #6DCA19",
"v  c #68C615",
"b  c #8CE230",
"n  c #83D330",
"m  c #6AB624",
"M  c #63AE20",
"N  c #8ADA34",
"B  c #83D230",
"V  c #62AE20",
"C  c #85DC2B",
"Z  c #6FCC19",
"A  c #68C515",
"S  c #85DD2B",
"D  c #6ECB1A",
"F  c #86DD2C",
"G  c #6BC917",
"H  c #53B506",
"J  c #78DB1C",
"K  c #64C213",
"L  c #4CA40A",
"P  c #479E08",
"I  c #67C515",
"U  c #7FD926",
"Y  c #8BDD33",
"T  c #7EDB24",
"R  c #81DB27",
"E  c #88DB31",
"W  c #8BDB35",
"Q  c #7FDB24",
"!  c #64C013",
"~  c #4BA309",
"^  c #489F08",
"/  c #67C614",
"(  c #61BE12",
")  c #4DA60B",
"_  c #65C214",
"`  c #48A008",
"'  c #368902",
"]  c #80DF22",
"[  c #6AC617",
"{  c #50A90B",
"}  c #4AA308",
"|  c #6DC919",
" . c #86E128",
".. c #91E832",
"X. c #92EA33",
"o. c #86E328",
"O. c #69C517",
"+. c #4FA80B",
"@. c #67C316",
"#. c #51AA0C",
"$. c #6AC718",
"%. c #4CA509",
"&. c #398E00",
"*. c #83DB29",
"=. c #69C617",
"-. c #64C113",
";. c #86DE2B",
":. c #8BE72B",
">. c #88E528",
",. c #92EB32",
"<. c #90EA30",
"1. c #89E62A",
"2. c #88E628",
"3. c #93EB32",
"4. c #69C518",
"5. c #65C114",
"6. c #80D927",
"7. c #6BC718",
"8. c #82DB28",
"9. c #66C315",
"0. c #52B107",
"q. c #94EB34",
"w. c #86E327",
"e. c #83E225",
"r. c #95EC35",
"t. c #83E125",
"y. c #86E428",
"u. c #93EB33",
"i. c #84E326",
"p. c #79DB1C",
"a. c #96ED36",
"s. c #87E328",
"d. c #95EC34",
"f. c #A1F440",
"g. c #90EA31",
"h. c #92EB33",
"j. c #88E52A",
"k. c #90E930",
"l. c #89E52A",
"z. c #91EA31",
"x. c #99EF39",
"c. c #93EA33",
"v. c #84E226",
"b. c #95ED35",
"n. c #89E529",
"m. c #93EC32",
"M. c #95ED34",
"N. c #82DB29",
"B. c #82D42E",
"V. c #84D430",
"C. c #81DA29",
"Z. c #83D52F",
"A. c #89E52B",
"S. c #8AE62A",
"D. c #92EC32",
"F. c #95ED33",
"G. c #9DF23B",
"H. c #90E831",
"J. c #84E126",
"K. c #91E932",
"L. c #83D42F",
"P. c #6DBA26",
"I. c #88D931",
"U. c #82D32F",
"Y. c #88DA31",
"T. c #8EE630",
"R. c #8FE72F",
"E. c #7CDB20",
"W. c #91E931",
"Q. c #86E227",
"!. c white",
/* pixels */
"  . X o O + @ # O + @ # O + @ o O + @ o O + @ # O + @ # O $ % & ",
". * = - ; : > , < 1 2 3 < 4 5 6 7 8 9 - ; : > , < 1 2 3 < 0 q w ",
"X e r t y u i p a s d f a g * h y j k t y u i p a s d f a l ; z ",
"o x c v b n m M N B m V N C Z A b S D v b n m M N B m V N F G H ",
"J K L P I U Y N T R E W Q ! ~ ^ / ( ) P I U Y N T R E W Q _ ` ' ",
"] [ { } |  .y ..r 4 j X.o.O.+.~ c @.#.} |  .y ..r 4 j X.o.$.%.&.",
"@ *.=.-.;.j :.>.,.<.1.2.3.1 4.5.;.6.7.-.;.j :.>.,.<.1.2.3.8.9.0.",
"o q.w.e.r.y o.t.r.y o.t.r.y o.t.r.y y.e.r.y o.t.r.y o.t.r.u.i.p.",
"O i.9 a.t.o.y r.t.o.y r.t.s.u.a.t.s.u.a.t.o.y r.t.o.y r.t.w.d.f.",
"+ 0 g.h.o.j.k.y o.j.k.y o.l.k.h.o.l.k.h.o.j.k.y o.j.k.y o.4 z.x.",
"@ z.4 o.y k.j.o.y k.j.o.y k.j.o.y k.j.o.y k.j.o.y k.j.o.y e 0 + ",
"o q.; t.r.y o.t.r.y o.t.r.y o.t.r.y o.t.r.y o.t.r.y o.t.r.c.v.O ",
"O v.c.r.t.o.y r.t.o.y r.t.o.y r.t.o.y r.t.o.y r.t.o.y r.t.; q.o ",
"+ 0 e y o.j.k.y o.j.k.y o.j.k.y o.j.k.y o.j.k.y o.j.k.y o.4 z.@ ",
"@ z.4 o.y k.j.o.y k.j.o.y k.j.o.y k.j.o.y k.j.o.y k.j.o.y e 0 + ",
"o q.; t.r.y y.t.r.y y.t.r.y o.t.r.y o.t.r.y y.t.r.y y.t.r.c.v.O ",
"O v.c.r.t.o.y r.t.o.y b.t.o.y r.t.o.y r.t.o.y r.t.o.y b.t.; q.o ",
"+ n.m.M.0 N.B.V.R C.Z.V.R A.m.M.* S.D.M.0 N.B.V.R C.Z.V.R l.F.G.",
"@ H.k J.K.L.P.p I.U.d f Y.T.4 J.K.R.k J.K.L.P.p I.U.d f Y.g o.E.",
"o x c v b n m M N B m V N C Z A b S D v b n m M N B m V N F G H ",
"J K L P I U Y N T R E W Q ! ~ ^ / ( ) P I U Y N T R E W Q _ ` ' ",
"] [ { } |  .y ..r 4 j X.o.O.+.~ c @.#.} |  .y ..r 4 j X.o.$.%.&.",
"@ *.=.-.;.j :.>.,.<.1.2.3.1 4.5.;.6.7.-.;.j :.>.,.<.1.2.3.8.9.0.",
"o q.w.e.r.y o.t.r.y o.t.r.y o.t.r.y y.e.r.y o.t.r.y o.t.r.u.i.p.",
"O i.9 a.t.o.y r.t.o.y r.t.s.u.a.t.s.u.a.t.o.y r.t.o.y r.t.w.d.f.",
"+ 0 g.h.o.j.k.y o.j.k.y o.l.k.h.o.l.k.h.o.j.k.y o.j.k.y o.4 z.x.",
"@ z.4 o.y k.j.o.y k.j.o.y k.j.o.y k.j.o.y k.j.o.y k.j.o.y e 0 + ",
"o q.; t.r.y o.t.r.y o.t.r.y o.t.r.y o.t.r.y o.t.r.y o.t.r.c.v.O ",
"O v.c.r.t.o.y r.t.o.y r.t.o.y r.t.o.y r.t.o.y r.t.o.y r.t.; q.o ",
"$ * W.c.; 4 e c.; 4 e c.; 4 e c.; 4 e c.; 4 e c.; 4 e c.; 0 K.X ",
"% X.* v.q.z.0 v.q.z.0 v.q.z.0 v.q.z.0 v.q.z.0 v.q.z.0 v.q.K.Q.. ",
"& % $ O o @ + O o @ + O o @ + O o @ + O o @ + O o @ + O o X .   "
};
