/* XPM */
static char *tree1709117287[] = {
/* columns rows colors chars-per-pixel */
"32 32 175 2 ",
"   c #363C34",
".  c #383D36",
"X  c #353238",
"o  c #39373A",
"O  c #393939",
"+  c #2F4E1F",
"@  c #2C5517",
"#  c #2F5C16",
"$  c #2F541B",
"%  c #2F5A19",
"&  c #305D16",
"*  c #31551D",
"=  c #315A1A",
"-  c #256E02",
";  c #2A6E04",
":  c #2C650D",
">  c #2C690A",
",  c #316F0B",
"<  c #2A7203",
"1  c #2D7A01",
"2  c #337D07",
"3  c #36760E",
"4  c #38770F",
"5  c #37790C",
"6  c #397C0D",
"7  c #2F6311",
"8  c #36621A",
"9  c #38641C",
"0  c #3E6F1B",
"q  c #3A7314",
"w  c #3B7A10",
"e  c #334E23",
"r  c #35452D",
"t  c #35492A",
"y  c #394B2D",
"u  c #325121",
"i  c #365820",
"p  c #3D5F24",
"a  c #3B532B",
"s  c #374230",
"d  c #3A4333",
"f  c #3E6323",
"g  c #416F1E",
"h  c #487F1F",
"j  c #40542F",
"k  c #415B2C",
"l  c #41443B",
"z  c #415430",
"x  c #435930",
"c  c #515E3F",
"v  c #446727",
"b  c #416923",
"n  c #45642B",
"m  c #49642F",
"M  c #476A29",
"N  c #4B692F",
"B  c #497525",
"V  c #4A7C22",
"C  c #4D722C",
"Z  c #507E27",
"A  c #4B6432",
"S  c #4D6A31",
"D  c #50633B",
"F  c #556D3A",
"G  c #507230",
"H  c #567D30",
"J  c #59743A",
"K  c #5D7E38",
"L  c #607543",
"P  c #348402",
"I  c #378A01",
"U  c #388C02",
"Y  c #3B810D",
"T  c #3F9703",
"R  c #3F8212",
"E  c #419406",
"W  c #439C04",
"Q  c #439409",
"!  c #48950E",
"~  c #469B08",
"^  c #4B9D0C",
"/  c #448415",
"(  c #458814",
")  c #498D15",
"_  c #4B841D",
"`  c #4F8B1D",
"'  c #528F1E",
"]  c #4A9313",
"[  c #4E9A12",
"{  c #559F17",
"}  c #53941C",
"|  c #569D19",
" . c #46A303",
".. c #49A405",
"X. c #4CAB04",
"o. c #4BA209",
"O. c #51A90C",
"+. c #54B706",
"@. c #55B905",
"#. c #54B209",
"$. c #4FA010",
"%. c #51A110",
"&. c #57AC11",
"*. c #59AE12",
"=. c #58A318",
"-. c #5CB411",
";. c #63BE15",
":. c #64B61C",
">. c #66B81A",
",. c #65BD18",
"<. c #548626",
"1. c #589124",
"2. c #5A8331",
"3. c #6E953F",
"4. c #719B3E",
"5. c #66AD23",
"6. c #67A62A",
"7. c #6BAE29",
"8. c #66B223",
"9. c #6AB523",
"0. c #6CBB21",
"q. c #6DB329",
"w. c #74BF2C",
"e. c #74AA39",
"r. c #7BB43B",
"t. c #7EBA3B",
"y. c #5FC30B",
"u. c #63CD07",
"i. c #60C00D",
"p. c #6AD30E",
"a. c #66C514",
"s. c #69C616",
"d. c #6CCA17",
"f. c #6BC21C",
"g. c #6ECB19",
"h. c #70CF19",
"j. c #71D714",
"k. c #79DC1C",
"l. c #7BCA2C",
"z. c #7EDE21",
"x. c #7EC234",
"c. c #6B8745",
"v. c #6D8B44",
"b. c #6F9440",
"n. c #709044",
"m. c #7DAB42",
"M. c #82BD3D",
"N. c #81DC25",
"B. c #85DC2B",
"V. c #81C437",
"C. c #84C53A",
"Z. c #8ACD3C",
"A. c #85D731",
"S. c #89D736",
"D. c #86D831",
"F. c #8ADB33",
"G. c #92DC3D",
"H. c #84E225",
"J. c #88E727",
"K. c #87E328",
"L. c #89E52A",
"P. c #8AE929",
"I. c #8EE332",
"U. c #8FE930",
"Y. c #91E733",
"T. c #93EC33",
"R. c #99EE38",
"E. c #9CF03C",
"W. c #A0F33F",
"Q. c #81AC47",
"!. c #84AF4A",
"~. c #8DCC41",
"^. c #8EC449",
"/. c #96CD4C",
"(. c #B5FF53",
/* pixels */
"u.k.E.W.k.N.R.W.k.H.T./.F O X o o L ^.W.k.H.T.W.k.N.R.W.k.N.R.(.",
"k.L.T.R.H.B.Z.M.5.q.M.Q.c.F A m F c.Q.M.5.7.M.Z.B.J.T.T.H.K.T.R.",
"E.Y.K.N.Y.Z.4.J S S J v.!.r.7.5.M.Q.n.J N S J 3.Z.F.P.K.T.U.J.N.",
"W.L.d.,.C.m.K j d . j 2.Z.T.J.H.T.Z.3.c l   s S M.C.B.B.T.T.H.k.",
"k.a.o./ G 2.1.` j k _ :.h.K.T.T.N.B.Z.Q.c r + 9 S 3.Z.T.H.K.T.W.",
"z.d.O.6 a M | -.V ' *.p.k.J.T.T.K.P.Y.C.G & 3 4 j J M.R.J.K.U.R.",
"R.K.,.) a v | y.*.*.i.k.P.U.J.J.T.T.J.,./ 6 Q ! a N 6.B.T.U.K.N.",
"E.I.0.} B B ` &.#.#.*.>.F.T.J.H.R.B.g.X.W Q $.` p g ' ,.F.T.H.k.",
"k.9.<.B } ' B b Y 4 g Z >.B.R.T.H.a.o.T X.[ V f & & b Z >.B.R.W.",
"N.7.G k ] ^ _ b 8 8 b h $.:.M.M.:.! 6 w ~ ] 0 * > & e N q.L.T.R.",
"R.M.F y 4 ! ^ _ p b _ ! Q ( H H ( 5 & i 6 6 , : ; @ e D t.Y.J.H.",
"W.M.J r * 6 ~ %.B h { X.W 4 = = 5 3 8 u # > ; < : $ t c r.B.H.k.",
"k.5.S . r * 5 E $.^ Q W X.~ Y 2 ~ ~ 6 & e $ : > * r . y h 8.F.W.",
"=.} V k a = 6 W X...W W X.Q Y g ~ ~ 4 & e * = # e r d r * ' l.R.",
"n B ' ) q w ! ..W W  .X.W 4 & = Y 4 9 u = % u u = * r   r B 9.H.",
"O k _ [ P U  ...P I W o.4 & e e # = u u # = u e & & e r   N 5.k.",
"o d z 9 , 1 P P 1 1 P 5 i u $ # e u = # u u = # u u * @ r J M.W.",
"o . y * # 7 7 : - < < > = # 7 > * * = = u u % = u = : : t F t.R.",
"O r + * e t t $ > < < ; 7 > ; ; : % u u = % * u % : ; : t G 7.N.",
"t u # = t   s e # > ; < > > < < > # u e # = u e # : : 8 p <.>.k.",
": = u r . r * & u * : > u = 7 > u u = # u u = # * r t n ' 0.I.(.",
"| V a . r * & & u * = * s r * # * * % * r t * # * r . x q.N.P.U.",
"S.e.F d * * * u = = u r     s u % # u r . . r u * + y F V.U.J.N.",
"(.~.b.S 9 * t r % # u r d O O s * * t O o o O r # @ u G C.Y.J.k.",
"j.z.Z.m.S d     s u # # s O     s s d O O O O   r e # R ,.K.T.W.",
"z.K.U.x.C t . O O s u $ s d s t e s   O o O O   r = 5 o.d.J.T.R.",
"R.T.J.f./ =   . O d s t   t $ 7 7 $ t O O O O r * w ^ a.K.U.L.N.",
"E.R.N.s.~ 5 = r t s     s i 6 U U 5 i d     s $ > U ;.N.F.D.N.k.",
"k.H.U.I.a.o.5 7 7 $ t s $ 6 o.+.@.o.6 % s r $ > - { l.F.5.9.A.W.",
"z.K.T.T.H.s.o.P 1 > $ u # q ) | =.) q % u $ : Y ] 9.A.F.9.0.A.E.",
"R.T.K.J.R.K.d...P < : # u a p m m p a e & > < ( w.B.B.N.A.A.z.k.",
"(.R.z.k.E.E.z.@.U < - 7 t O o o O O O t : - 1 ] G.R.k.p.(.R.z.u."
};
