/* XPM */
static char *f5ed5e8fc6384100de20ab0350dbf8efHnQly6XiPn49q47F[] = {
/* columns rows colors chars-per-pixel */
"32 32 200 2 ",
"   c #221A1D",
".  c #251E20",
"X  c #262021",
"o  c #2A2326",
"O  c #2C2729",
"+  c #312729",
"@  c #322A2D",
"#  c #332E30",
"$  c #3B3234",
"%  c #3C3738",
"&  c #3E3D3E",
"*  c #423A3A",
"=  c #493C3E",
"-  c #43443C",
";  c #474E3E",
":  c #49503F",
">  c #453F40",
",  c #444343",
"<  c #4C4444",
"1  c #4D4947",
"2  c #484748",
"3  c #4B4A4A",
"4  c #504446",
"5  c #544C4C",
"6  c #594C4C",
"7  c #57504F",
"8  c #575151",
"9  c #5B5352",
"0  c #5A5B54",
"q  c #635554",
"w  c #645957",
"e  c #6A5C5B",
"r  c #715E5D",
"t  c #5D655B",
"y  c #65665C",
"u  c #6B615F",
"i  c #5C7B6F",
"p  c #696561",
"a  c #6C6B63",
"s  c #736362",
"d  c #7B6865",
"f  c #7C6B6A",
"g  c #6A7765",
"h  c #69766B",
"j  c #7C726B",
"k  c #777A6A",
"l  c #7F7570",
"z  c #816E6C",
"x  c #83726E",
"c  c #81786D",
"v  c #847271",
"b  c #8B7672",
"n  c #867873",
"m  c #8C7A75",
"M  c #907B76",
"N  c #967E79",
"B  c #997F7A",
"V  c #18A068",
"C  c #21A46E",
"Z  c #2AA774",
"A  c #58815F",
"S  c #6B855D",
"D  c #6FA058",
"F  c #5C8E6C",
"G  c #5B8371",
"H  c #5C8876",
"J  c #5E8A79",
"K  c #5D917B",
"L  c #678163",
"P  c #778769",
"I  c #7B956C",
"U  c #789969",
"Y  c #638375",
"T  c #6A8777",
"R  c #718679",
"E  c #659474",
"W  c #7B9E79",
"Q  c #74A061",
"!  c #7EAE62",
"~  c #71A569",
"^  c #7CB46A",
"/  c #6CA473",
"(  c #70AE76",
")  c #6FB072",
"_  c #878677",
"`  c #948179",
"'  c #9C847D",
"]  c #968B7D",
"[  c #9D897F",
"{  c #829B75",
"}  c #91967C",
"|  c #A0897F",
" . c #82AA6C",
".. c #8ABB6F",
"X. c #86A97A",
"o. c #90A87F",
"O. c #85BB72",
"+. c #8CB578",
"@. c #8AC075",
"#. c #94C27C",
"$. c #6E9482",
"%. c #669A85",
"&. c #689A84",
"*. c #6E9F89",
"=. c #4AB386",
"-. c #52B68C",
";. c #5BB48A",
":. c #5EBA95",
">. c #6AA885",
",. c #6EA68C",
"<. c #6DAA8E",
"1. c #72A482",
"2. c #79A383",
"3. c #78A887",
"4. c #6DB489",
"5. c #76BC84",
"6. c #78BE84",
"7. c #72B788",
"8. c #6CAC91",
"9. c #6BB592",
"0. c #6CB495",
"q. c #61BB96",
"w. c #6EB699",
"e. c #65BC99",
"r. c #6EBD9C",
"t. c #75B798",
"y. c #71BF9E",
"u. c #70BFA0",
"i. c #79BBA0",
"p. c #6FC09F",
"a. c #71C09F",
"s. c #7AC19B",
"d. c #6FC0A0",
"f. c #70C0A0",
"g. c #7AC3A5",
"h. c #7FC5AB",
"j. c #8B8D82",
"k. c #9E8B80",
"l. c #9C9682",
"z. c #A28D81",
"x. c #A49182",
"c. c #A89385",
"v. c #A99C87",
"b. c #85AA83",
"n. c #8AAD80",
"m. c #98A683",
"M. c #8AB88A",
"N. c #95B682",
"B. c #9ABC85",
"V. c #9CBB8B",
"C. c #A6A78B",
"Z. c #A3B48C",
"A. c #ABB28E",
"S. c #A9B691",
"D. c #ACBD97",
"F. c #8DBDA8",
"G. c #83C18C",
"H. c #9BC485",
"J. c #9EC985",
"K. c #95C389",
"L. c #9EC38B",
"P. c #80C196",
"I. c #8CC293",
"U. c #82C399",
"Y. c #99C793",
"T. c #A1CB87",
"R. c #A2C68C",
"E. c #A4CA8E",
"W. c #A6C797",
"Q. c #A5CB94",
"!. c #AACD94",
"~. c #ADCC9B",
"^. c #B0C79A",
"/. c #A8D09A",
"(. c #AED19B",
"). c #B2D49F",
"_. c #83C6AB",
"`. c #87C8AF",
"'. c #8DC8B2",
"]. c #93CBB7",
"[. c #9ACEBC",
"{. c #9ED0BF",
"}. c #B3CCA1",
"|. c #ACD3A0",
" X c #B4D5A3",
".X c #B8D6A7",
"XX c #B9D7A8",
"oX c #BDDAAC",
"OX c #BFDBB0",
"+X c #C0DCAF",
"@X c #C2DEB3",
"#X c #C6DFB8",
"$X c #C6E0B7",
"%X c #C7E0B9",
"&X c #C8E1BA",
"*X c #CAE2BD",
"=X c #CCE3BF",
"-X c #CCE4BF",
";X c #CEE4C2",
":X c #CFE5C2",
/* pixels */
"V C :.f.f.f.f.f.a.y.y.a.y.y.a.a.a.a.a.r.r.y.y.t.r.r.f.f.f.f.f.f.",
"C Z q.p.r.r.p.a.a.U.I.I.P.y.s.s.s.s.s.t.7.M.M.3.0.w.r.f.f.f.f.f.",
":.q.r.r.-.=.q.a.U.Y.Q.Q.Y.I.Y.Y.W.Q.Y.n.X.L.Q.L.b.1.w.f.f.f.f.f.",
"a.a.f.r.-.=.q.s.Y. XXX.X X(. X.XoXXX X~.~. XoX.XV.W 8.r.f.f.f.f.",
"f.f.f.d.e.e.r.U./.oX%X$X@XoXoX@X%X#XoXoXoX@X*X#X~.W <.r.f.`.]._.",
"f.f.f.f.d.d.r.U./.OX*X-X%X@XOX$X=X*X@XoX#X=X:X%X}.X.<.r.f.'.[.`.",
"].'.g.f.f.9.;.G.|.@X=X:X=X#X@X#X*X&X@X@X*X:X:X&X.XV.2.0.r.g.h.g.",
"{.[.g.f.f.K / K. X$X:X:X*X@XoX+X@X@XoXoX&X:X:X*XoXQ.n.1.w.f.f.f.",
"_._.f.f.f.G W L. X%X:X-X#XXX).(.(.(.(. X@X&X:X:XoX!.o.1.w.f.f.f.",
"f.f.f.f.f.G W R..X$X%XOX.X(.Q.L.L.R.R.!. XXX#X&XoX(.N.1.0.f.f.f.",
"d.d.f.a.8.E n.~..XXX}.D.Z.V.B.H.L.L.H.B.Z.S.}..XXX).V.2.<.r.f.f.",
"f.f.u.8.T { V.~.^.D.C.l._ P P I { I I P _ ] C.S.^.~.R.n.2.8.r.f.",
"f.f.y.J k } Z.A.C.v.] n u 1 - ; : ; - - q x ` l.C.A.A.m._ $.0.y.",
"f.f.y.G l ] v.v.c.[ m s 4 + . . X X   . $ e v ` x.v.v.x.n R 8.y.",
"f.f.y.%._ k.x.c.z.N v w $ .             o 5 f m [ z.c.z.m R 8.y.",
"f.f.f.8.j.z.x.z.' m f 6 @               . * s v N [ z.z.m R 8.y.",
"f.f.y.%._ k.z.[ N b s = o                 @ q x M ' z.z.m R 8.y.",
"f.f.r.i v ' [ [ ' m e $ .                 o 6 x ` ' [ [ n R <.r.",
"f.f.y.i v N ' [ [ m w $ .                 o 1 x ' [ ' ' n h %.r.",
"f.f.y.Y m N ' | | x 5 @ .                 X * s ' z.' B b p H 0.",
"f.f.y.T m N [ z.[ d < o                     $ e ` z.| ' b u Y w.",
"d.r.r.Y n N | | M e * .                     + 6 x [ z.' n p R t.",
"g.f.8.h x M [ N d 8 % o                     @ 1 e b ' N v u h ,.",
"].'.&.a f v m z r 9 > # O o o o o o o o o O % 5 w d n b z p t J ",
"[.F.E P c v f e q 6 < & & & & & & & & & & & , 5 q q s j c k L E ",
"i.E Q B.m.} j 0 7 1 , , 2 3 3 3 3 3 3 3 2 2 , < 5 9 a _ m.N. ./ ",
"0.A ! J.~.W.o.P t 3 3 3 5 8 8 8 8 8 8 8 5 3 3 2 0 g { V.~.E...~ ",
"0.A ! H.!.!.R.N.I y 9 9 w y p p p p p y w 9 9 0 P o.L.Q.!.T...~ ",
"w.F D ..J.T.T.J.+.U g h T $.*.*.*.*.*.$.T h g S  .#.J.T.J.#.^ ~ ",
"r.>./ ~ O.@.@.@.^ ) >.<.8.t.y.r.r.r.r.r.8.,.,./ ^ O.@.@.O.^ ( 4.",
"f.r.9.>.5.5.6.6.5.7.r.a.u.f.f.f.f.f.f.f.u.u.r.9.5.5.5.5.5.4.9.r.",
"f.f.y.r.r.y.g._.g.y.a.f.f.f.f.f.f.f.f.f.f.f.f._._.a.r.r.r.q.-.e."
};
