/* XPM */
static char *sachaRIGHT1709127072[] = {
/* columns rows colors chars-per-pixel */
"32 32 233 2 ",
"   c #020303",
".  c #010B04",
"X  c #070609",
"o  c #110100",
"O  c #1B0301",
"+  c #1C0A09",
"@  c #00180B",
"#  c #1F0010",
"$  c #021B14",
"%  c #1A1817",
"&  c #010C12",
"*  c #271809",
"=  c #240D10",
"-  c #012518",
";  c #172119",
":  c #312114",
">  c #2A1E22",
",  c #11332B",
"<  c #2C2A35",
"1  c #332F31",
"2  c #50191F",
"3  c #582625",
"4  c #453739",
"5  c #4F3131",
"6  c #69323C",
"7  c #74323A",
"8  c #6C2F37",
"9  c #19493D",
"0  c #29443A",
"q  c #684D38",
"w  c #323744",
"e  c #483C45",
"r  c #573E45",
"t  c #673A4A",
"y  c #374647",
"u  c #364D4F",
"i  c #4B4445",
"p  c #56414C",
"a  c #465345",
"s  c #495751",
"d  c #545357",
"f  c #644F4D",
"g  c #695447",
"h  c #684B5A",
"j  c #68525E",
"k  c #704D56",
"l  c #49625C",
"z  c #73655D",
"x  c #716357",
"c  c #545768",
"v  c #584F60",
"b  c #685A63",
"n  c #765665",
"m  c #6E5C71",
"M  c #556669",
"N  c #597D73",
"B  c #55646D",
"V  c #7A646A",
"C  c #7B7A72",
"Z  c #6D726C",
"A  c #812F3B",
"S  c #A1354A",
"D  c #B3384C",
"F  c #AB3951",
"G  c #B43D53",
"H  c #8E3950",
"J  c #974655",
"K  c #894758",
"L  c #A9485B",
"P  c #AD525F",
"I  c #9D5B62",
"U  c #835361",
"Y  c #A74F61",
"T  c #986669",
"R  c #856979",
"E  c #81716E",
"W  c #B7696F",
"Q  c #AB6D73",
"!  c #BA6C79",
"~  c #B06C70",
"^  c #C55B6B",
"/  c #D15C6E",
"(  c #C55E74",
")  c #D65C71",
"_  c #C9676F",
"`  c #CC6372",
"'  c #CE6E7B",
"]  c #C66A76",
"[  c #D36475",
"{  c #D56975",
"}  c #D46B7B",
"|  c #DB6C7D",
" . c #DA6578",
".. c #D8717D",
"X. c #CB717B",
"o. c #E26479",
"O. c #279F6C",
"+. c #369D72",
"@. c #18A36A",
"#. c #2FA172",
"$. c #528C72",
"%. c #7A8A7D",
"&. c #4AAD7F",
"*. c #95847C",
"=. c #A3847B",
"-. c #B38F7F",
";. c #98798A",
":. c #8F768E",
">. c #B87985",
",. c #A1758E",
"<. c #CB6B83",
"1. c #D86983",
"2. c #C57385",
"3. c #DB7280",
"4. c #D27484",
"5. c #C97893",
"6. c #CD6E90",
"7. c #E56C81",
"8. c #5C9783",
"9. c #799789",
"0. c #79958D",
"q. c #54AE8A",
"w. c #57B589",
"e. c #5EBB94",
"r. c #62B58C",
"t. c #65B294",
"y. c #64BC94",
"u. c #6CB699",
"i. c #65BE9A",
"p. c #6CBD9C",
"a. c #6BBA94",
"s. c #73B59C",
"d. c #7CB39C",
"f. c #73BD9D",
"g. c #7ABA9D",
"h. c #76B695",
"j. c #73AB93",
"k. c #6DBDA1",
"l. c #62BFA4",
"z. c #7BB4A1",
"x. c #74BDA2",
"c. c #7BBCA3",
"v. c #79BAA7",
"b. c #66C39D",
"n. c #6CC29D",
"m. c #68C69B",
"M. c #72C19E",
"N. c #7BC49E",
"B. c #66C5A1",
"V. c #6DC3A1",
"C. c #6CC9A7",
"Z. c #73C2A2",
"A. c #7AC3A5",
"S. c #7AC3AA",
"D. c #77C8A9",
"F. c #79C4B0",
"G. c #9A8785",
"H. c #96859A",
"J. c #97959D",
"K. c #84918F",
"L. c #B68486",
"P. c #A89389",
"I. c #BB998E",
"U. c #A3939B",
"Y. c #AE8D98",
"T. c #8EAE9C",
"R. c #86A99A",
"E. c #9AAC9C",
"W. c #95A999",
"Q. c #83B49C",
"!. c #88B69E",
"~. c #8BAF96",
"^. c #A5A89C",
"/. c #B4A79A",
"(. c #968EA4",
"). c #A999A5",
"_. c #AA93A2",
"`. c #97AAA8",
"'. c #82B5A4",
"]. c #8AB5A3",
"[. c #83BAA2",
"{. c #83BCAB",
"}. c #8AB8A9",
"|. c #90BAA5",
" X c #98B8A9",
".X c #85ADA4",
"XX c #A6A4AB",
"oX c #B6A2A3",
"OX c #BAA8B8",
"+X c #BBB4B7",
"@X c #A5ACB1",
"#X c #C08F81",
"$X c #C69599",
"%X c #CCAA9A",
"&X c #CDA592",
"*X c #C388A4",
"=X c #C295A6",
"-X c #C8B7A8",
";X c #C7AABD",
":X c #D1B2AD",
">X c #E8B6AB",
",X c #83C4AA",
"<X c #84CBAD",
"1X c #88C6AC",
"2X c #88CAB5",
"3X c #9ACBB7",
"4X c #8BD2B6",
"5X c #96D2BD",
"6X c #98D9BD",
"7X c #94C1A2",
"8X c #A3CBB9",
"9X c #B2CBBB",
"0X c #C6C9B7",
"qX c #C3D0BC",
"wX c #E9C9B8",
"eX c #F1CDBF",
"rX c #AAB1C7",
"tX c #B2B5CA",
"yX c #DEB2CA",
"uX c #93D9C5",
"iX c #ACD0C3",
"pX c #C7C5CA",
"aX c #D4CBCA",
"sX c #D4CDD7",
"dX c #CDCED0",
"fX c #F4D2C3",
"gX c #E9CFD0",
"hX c #ECE3DA",
"jX c #FDDAF0",
"kX c #D5F7F0",
"lX c #E9E7E6",
"zX c #FCE7F4",
"xX c #F9F1F4",
/* pixels */
"@.O.i.M.m.b.V.k.f.f.c.Q.|.T.W.E.E.E.^.W.c.u.S.x.x.Z.s.M.V.m.n.M.",
"@.#.y.Z.m.B.Z.k.Z.f.d.R.W.Z E Z z x z hXW.|.d.d.Z.p.Z.Z.p.n.a.n.",
"b.e.Z.i.q.q.p.f.b.p.|.s f T T Q W W W -.=.I.^.].i.m.n.M.Z.x.M.n.",
"f.p.n.p.q.q.p.M.p.h.%.: 2 ! 4.<.{ ) ^ P Y Q wX0X!.f.n.t.A.g.A.p.",
"g.x.Z.Z.i.i.b.f.Q.a 5 L.] `  . .| ` D / { W J I gX`.g.Z.1X5X1Xv.",
"c.c.f.V.n.V.m.f.XX5 2 W <.3. . .) | D / ..' [ } I %XR.,X2X5X2Xv.",
"4X2XA.p.n.b.+.$.* 7 L 4.X.` [  .o.o.G / { ..{ | ' I G.E.d.<Xx.v.",
"uX4XS.p.Z.m.#.$.O 7 P | ' .. .| ) o.L ) { { | { ` ] Q *.].s.x.k.",
"S.S.Z.x.Z.n.y.j.O 7 L _ 1.} [  .1. .F  .] _ 3.{ _ _ W T 0X7Xn.m.",
"v.x.V.V.f.M.p.!.+ 7 P A } 1.) } <.5.Y >.>.2.` 1...X.} 2.5 ~.N.m.",
"c.x.V.l.p.f.M.!.+ 8 F L F G ( <.*XjXzXzXyX>.<.1.] <.] >.  |.h.M.",
"z.x.V.b.n.n.f.!.+ 8 J L S G L 2.OXm c v U.;X6.6.6.5.! n . Q.g.h.",
"x.f.V.b.M.V.n.Q.o 6 K J Y H $XY.:.tXrXrX(.H.yX*X*X=X;.% .Xv.v.x.",
"f.Z.b.V.n.Z.V.Q.C 5 5 7 K K =X_.:.tXtXdX(.:.yX,.Y.R b M {.p.k.A.",
"f.f.f.f.p.Z.<X3X`.i = p k t ;._._.tX(.@XXX).;.k r 4 s !.u.M.A.h.",
"V.x.Z.f.p.A.4X6X|.0 % i 4 e r 1 f oXe (.oXG.O t f XX!.g.M.n.y.N.",
"m.n.p.n.p.A.g.2X}.0 % 1 i 4 4 V I.&X3 I.wX:XO &Xg ^.!.Z.m.B.M.f.",
"m.V.Z.Z.c.z.c.z.z. XK.% o i 4 V %X&X-.>XeXeX&XeX/.qX!.p.V.i.D.u.",
"V.n.u.[.8X8X8X1X{.}.`.s c i r k =./.&X>XwXeXfXP.0XT.d.x.Z.M.M.M.",
"n.n.Z.[.8X X}.{.}.iX XK.XXz R b f P.Q -.&X0X-Xz 0XT.}.c.g.A.a.p.",
"M.Z.g.,XiX3X'.'.kXkX0.  & zXjXOXd   O 5 q q q /.% %.d.s.A.4XD.m.",
"g.f.f.u.z.v.{.'.$ X d lXlXe (.OXsXpXaX: O * /./.% 9.d.A.<X6XD.V.",
"2X<XA.A.A.v.u.9 `.J.(.yXyXr h :.;XOX> +XwX9X* % |.c.g.f.g.<XN.Z.",
"6X4XA.b.k.v.v.@ @XOX:.h h V h V R ,.X aXxXlXC %.j.f.Z.Z.M.f.Z.f.",
",X<Xf.f.S.x..X- `.J.j # # R R U t m = tXsXpXiX9.h.h.m.n.n.x.A.f.",
"f.f.A.x.f.z.$ N y y < X 1 b m j n t e v < & @ z.h.a.M.m.n.V.x.x.",
"n.n.x.A.u.v.$ $.N - - l X .   > e e w w c B & {.r.w.y.N.k.k.V.B.",
"n.Z.f.u.D.u.z.- - 8.{.d.}.'.R.0.  X i B u w .Xk.w.w.r.a.k.V.V.B.",
"V.p.f.n.C.V.S.z.t.t.x.k.v.S.[.d.R.K.$ < B {.v.C.e.e.a.M.n.V.Z.b.",
"i.Z.n.n.V.i.S.x.A.S.l.V.V.t.Z.A.z.].u 9 0.}.v.l.V.M.M.M.b.n.M.f.",
"f.Z.f.M.p.A.S.2Xc.u.C.C.p.A.f.f.z.x.h.c.c.{.v.uXF.v.f.M.e.w.i.M.",
"M.a.A.s.Z.x.4X6X,Xx.m.B.p.x.f.f.V.M.f.f.z.x.2XuXF.v.g.f.w.q.w.n."
};
