/* XPM */
static char *sachaFRONT1709127590[] = {
/* columns rows colors chars-per-pixel */
"32 32 225 2 ",
"   c #010500",
".  c #0B0000",
"X  c #010B00",
"o  c #080708",
"O  c #130202",
"+  c #170802",
"@  c #01130B",
"#  c #071806",
"$  c #020E1B",
"%  c #150D13",
"&  c #081717",
"*  c #1B1408",
"=  c #320C0D",
"-  c #192A1B",
";  c #21200E",
":  c #0F1827",
">  c #3F1F22",
",  c #1B2E32",
"<  c #283625",
"1  c #2C2B34",
"2  c #283A39",
"3  c #353738",
"4  c #332E29",
"5  c #461519",
"6  c #462119",
"7  c #472724",
"8  c #513437",
"9  c #4E2E2D",
"0  c #673637",
"q  c #793839",
"w  c #7F362F",
"e  c #2A493A",
"r  c #4F423C",
"t  c #363949",
"y  c #403845",
"u  c #523A50",
"i  c #683B41",
"p  c #793B48",
"a  c #3C4F44",
"s  c #394952",
"d  c #2E5250",
"f  c #336144",
"g  c #434544",
"h  c #5A4748",
"j  c #495849",
"k  c #474454",
"l  c #524B4A",
"z  c #684748",
"x  c #75434D",
"c  c #734544",
"v  c #705449",
"b  c #744C56",
"n  c #675656",
"m  c #785954",
"M  c #63514B",
"N  c #5D604F",
"B  c #4D6653",
"V  c #78635C",
"C  c #465769",
"Z  c #6E5362",
"A  c #487C66",
"S  c #796D67",
"D  c #6C6F68",
"F  c #83423C",
"G  c #973C4D",
"H  c #893E52",
"J  c #A8394C",
"K  c #B33B4D",
"L  c #BC3D52",
"P  c #A53E53",
"I  c #974547",
"U  c #894A55",
"Y  c #984754",
"T  c #8B4D55",
"R  c #A84858",
"E  c #B54256",
"W  c #AD404E",
"Q  c #8F675F",
"!  c #975B66",
"~  c #B75A65",
"^  c #B05566",
"/  c #877B68",
"(  c #987774",
")  c #956F75",
"_  c #A5656D",
"`  c #B6646A",
"'  c #B86B76",
"]  c #A27B7C",
"[  c #A67B6A",
"{  c #C84B61",
"}  c #C95A6B",
"|  c #D3576E",
" . c #D35C6D",
".. c #C05F70",
"X. c #DA5C73",
"o. c #E25B76",
"O. c #E15F7B",
"+. c #C46879",
"@. c #CB6C7B",
"#. c #CA6576",
"$. c #D46574",
"%. c #DB6375",
"&. c #DA6976",
"*. c #DB657B",
"=. c #DC6A7C",
"-. c #D36979",
";. c #DB717E",
":. c #D4616E",
">. c #E2657A",
",. c #E36A7C",
"<. c #E16277",
"1. c #1E9B6F",
"2. c #2A9F75",
"3. c #1BA071",
"4. c #638973",
"5. c #788875",
"6. c #718169",
"7. c #548F6F",
"8. c #8F8A7A",
"9. c #A5897D",
"0. c #676D86",
"q. c #68758D",
"w. c #B87882",
"e. c #AE7F87",
"r. c #D76D82",
"t. c #C27482",
"y. c #D97183",
"u. c #EB6C82",
"i. c #E66480",
"p. c #E07080",
"a. c #58AC8A",
"s. c #5BB48C",
"d. c #5AB894",
"f. c #48AD83",
"g. c #6EA594",
"h. c #77AB95",
"j. c #65BB94",
"k. c #6CBB95",
"l. c #69B599",
"z. c #65BD9A",
"x. c #6DBC9C",
"c. c #67B798",
"v. c #73BC95",
"b. c #76B69A",
"n. c #73BD9D",
"m. c #7BBB9C",
"M. c #79B598",
"N. c #6AAC8B",
"B. c #6EBDA3",
"V. c #6CB5A6",
"C. c #74BDA2",
"Z. c #7BBCA2",
"A. c #75BCAA",
"S. c #79B6A5",
"D. c #73B7AC",
"F. c #6CC296",
"G. c #65C19E",
"H. c #6CC19C",
"J. c #6CC99C",
"K. c #72C293",
"L. c #73C29D",
"P. c #79C29B",
"I. c #5CC9A2",
"U. c #66C5A4",
"Y. c #6CC2A2",
"T. c #69C9A4",
"R. c #73C2A2",
"E. c #7BC3A4",
"W. c #73C4AB",
"Q. c #7CC2AA",
"!. c #7CCAAB",
"~. c #75C9A3",
"^. c #75C5B8",
"/. c #9B8682",
"(. c #9C9A8E",
"). c #A88784",
"_. c #A9928B",
"`. c #A09090",
"'. c #B99999",
"]. c #B88C8D",
"[. c #88AD98",
"{. c #92AC96",
"}. c #99AF9C",
"|. c #9DA097",
" X c #8CB49A",
".X c #82BA9C",
"XX c #87B499",
"oX c #96B399",
"OX c #A6A197",
"+X c #B7A49A",
"@X c #ADB39E",
"#X c #BA98A8",
"$X c #85A8A7",
"%X c #81BBA2",
"&X c #8CBBA3",
"*X c #86B3A5",
"=X c #91BAA8",
"-X c #83B3B1",
";X c #B1A7A6",
":X c #C4969D",
">X c #C99298",
",X c #C98E8E",
"<X c #C6A49B",
"1X c #D1A798",
"2X c #CB9EA7",
"3X c #D8ACA6",
"4X c #CDB1AD",
"5X c #EDBFAF",
"6X c #E4B8B5",
"7X c #81CCAC",
"8X c #89C7AB",
"9X c #86D2B5",
"0X c #8ED9BB",
"qX c #94D3B8",
"wX c #8BCBB1",
"eX c #A5DCBF",
"rX c #90E0BB",
"tX c #EAC3AE",
"yX c #F8C5B6",
"uX c #E5BFC3",
"iX c #F9B6C4",
"pX c #CAC2C0",
"aX c #FCD9D7",
"sX c #E5D2CB",
"dX c #FFDFE6",
/* pixels */
"3.1.I.z.x.Z.n.n.L.x.R.x.P.k.R.H.F.H.L.R.x.R.R.n.C.x.x.Y.Y.T.Y.x.",
"2.2.I.Y.R.l.n.R.n.P.m.XX[.oX{.{.{.oX XXX.XZ.b.n.R.R.R.R.z.x.C.C.",
"d.G.T.G.a.a.G.L..X X}.OXT U Y R Y Y U T OXoX X[.n.l.m.n.R.R.n.n.",
"C.R.G.j.a.s.F.v.oX8.V ! @.=.O.o.o.>.$.@._ m D }..Xn.E.n.n.E.C.E.",
"R.x.H.Y.j.j.P. X/._ _ ` @.:.,.<.%.=.$.=.` ' _ ] {.n.n.H.7X0X!.F.",
"n.n.P.L.k.H.L.5.U #.;.#.;.&.:.,.$.:.;.:.y.=.r.Y (.&XP.k.7XqX7XL.",
"qXqXE.x.L.L.7.X ' p.*.&.$.;.&.:.,.$.$.;.-.$.>.r.= 4.v.H.7XZ.R.n.",
"qXqXE.n.R.b.4.. ' X.>.>.&.$.$.&.&.&.&.$.#.=.i.-.= 5..Xx.m.n.R.n.",
"R.E.R.x.C.&Xo ] t.#.| L K K W K K L K E P P i.#.' z [.C.n.x.Y.Y.",
"R.C.Y.x.C.[.+ e.iXt.{ |  . .} $.| X.X.|  .` ^ iX,X8 =Xl.R.R.Y.Y.",
"R.Y.z.Y.C.&Xo '.dXt.` r.%.&.$.$.=.=.X.X.-.+.! dX2Xn h.B.Y.B.R.B.",
"n.x.W.W.x.*X@ 4XdX>X..r.$.,.,.&.$.&.X.u.i.t.w.aX4XD g.C.R.l.R.R.",
"R.R.c.n.n.%X  8 uX,Xr.r.i.o.:.,.*.%.>.o.X.y.w.uXM `..XE.C.E.Y.z.",
"x.L.R.n.Z.&Xa O _._ P K X.,.,.&.*.%.,.o.| J Y 2X> - 4.m.n.l.Y.R.",
"n.P.R.n.[.- * /.> p P K { X.$.$.$.;.%.{ L R G 5 ) 8 e .Xn.R.E.v.",
"x.P.b. X<   * +X> 0 H G J } ..~ ` ~ ~ R G G p 5 ].N < .XH.x.n.n.",
"K.m.{.- ; * + 9.c 0 c x ! H I I I F Y ! U p b z ( N f .Xn.x.P.n.",
"K.m.X OX+X/ . . v 9.] 0 2Xi q w w F 0 ).) i #Xn + 5.M.n.C.P.k.L.",
"K.M.X OX@X6.# {.# / <X1XaX= [ 1X1X,XO 4XsX<X<X. {. Xm.C.E.C.x.K.",
"R.%X{.< # B XXXX{.l 6 Q aX<X6XyXyXtX<XsX_.m m   XXM.%XC.C.C.R.k.",
"x.Q.Z.Z.Z.n.P.k.XXg + 4 S _.3X5XyXtX_./.e.n h X .XL.n.C.!.9XW.A.",
"m.n.x.C.V.W.x.P. Xe & : % b ].3X6X<Xz 3 u C g X n.H.n.R.R.0X9XC.",
"8XwXZ.C.A.A.z.%Xa $ , 0.y 2X2X:X].n 3 % o o C # c.U.B.B.!.!.Z.m.",
"eX8X7XC.V.D.!.b.@ 1 C 0.u Z x b z . O ;XsXpXj A a.U.W.B.C.n.P.n.",
"8XE.L.F.R.A.B.m.@ 1 s k b T x x U c + 9.<X'.l N.x.U.R.n.x.R.R.x.",
"n.L.F.H.C.R.Y.Z.$ t t y n b 8 > 6 6 8.N v v @Xm.F.G.L.E.n.n.R.G.",
"n.x.F.H.x.G.x.C.e , t y t k 3 3 4 e oXB < j &Xn.d.d.j.L.K.n.n.R.",
"K.L.H.G.Y.Y.x.C.g.s : t s o $X*X=X[..X.XXX Xn.Y.a.a.s.K.H.H.n.Y.",
"F.F.B.B.B.C.L.n.g.d , 0.q.$ -X-XC.A.S.Z.%XK.x.U.V.l.l.Y.L.G.L.F.",
"H.F.B.C.n.P.L.C.Q.*X$X: $ -XwXV.D.^.A.n.j.J.U.B.A.A.A.R.F.F.H.F.",
"G.R.W.Z.m.P.~.7XZ.C.b.g.S.S.n.F.B.R.n.K.F.H.W.9XQ.Z.m.m.d.d.G.U.",
"B.W.A.m.v.P.7XrXE.x.E.n.S.S.k.J.G.R.v.K.K.F.9X0X7XZ.m.n.s.f.d.U."
};
