/* XPM */
static char *_709127073[] = {
/* columns rows colors chars-per-pixel */
"32 32 231 2 ",
"   c #040100",
".  c #0C0100",
"X  c #020908",
"o  c #140201",
"O  c #160306",
"+  c #001206",
"@  c #000712",
"#  c #001517",
"$  c #181616",
"%  c #181800",
"&  c #290303",
"*  c #241A19",
"=  c #1A2B1B",
"-  c #2A2118",
";  c #131822",
":  c #001A21",
">  c #2E1F28",
",  c #1E2625",
"<  c #1B3437",
"1  c #062226",
"2  c #25222C",
"3  c #272725",
"4  c #243625",
"5  c #313432",
"6  c #58272B",
"7  c #4B3C3A",
"8  c #573830",
"9  c #2B4137",
"0  c #3A443B",
"q  c #714A3A",
"w  c #3A3A48",
"e  c #2D3D4C",
"r  c #483946",
"t  c #543150",
"y  c #683C45",
"u  c #773F42",
"i  c #783D53",
"p  c #1C4340",
"a  c #34444A",
"s  c #33484F",
"d  c #45434D",
"f  c #55494C",
"g  c #5B554F",
"h  c #464657",
"j  c #574554",
"k  c #46525D",
"l  c #654A46",
"z  c #765B4F",
"x  c #624458",
"c  c #77475A",
"v  c #6D5252",
"b  c #556758",
"n  c #736A5F",
"m  c #465D69",
"M  c #57526B",
"N  c #6C4C63",
"B  c #6B576A",
"V  c #765262",
"C  c #556867",
"Z  c #7C6B65",
"A  c #7B7277",
"S  c #72786E",
"D  c #823138",
"F  c #933C4D",
"G  c #B4364E",
"H  c #A73C54",
"J  c #B93955",
"K  c #A63143",
"L  c #C03C53",
"P  c #864647",
"I  c #92454D",
"U  c #944A59",
"Y  c #865D5B",
"T  c #845B45",
"R  c #A84655",
"E  c #B94256",
"W  c #A9595C",
"Q  c #81645E",
"!  c #8B5764",
"~  c #A95C67",
"^  c #B55A63",
"/  c #8C786B",
"(  c #8E6562",
")  c #B96C6F",
"_  c #BB6B74",
"`  c #B7797C",
"'  c #AE7274",
"]  c #D75F76",
"[  c #D25D6D",
"{  c #CD6474",
"}  c #C86978",
"|  c #D26474",
" . c #DB6474",
".. c #D46B7A",
"X. c #DC6B7B",
"o. c #DA6877",
"O. c #C6757B",
"+. c #D7717C",
"@. c #C7636D",
"#. c #E2677C",
"$. c #199F60",
"%. c #249E65",
"&. c #30A16D",
"*. c #5C8A7F",
"=. c #758871",
"-. c #948278",
";. c #82887E",
":. c #B1897B",
">. c #655280",
",. c #677C85",
"<. c #78788C",
"1. c #6D6B8F",
"2. c #847686",
"3. c #847A97",
"4. c #BB7687",
"5. c #CB6C85",
"6. c #DD6E82",
"7. c #D47684",
"8. c #C67C99",
"9. c #C77380",
"0. c #E17386",
"q. c #E26D80",
"w. c #579A88",
"e. c #698B89",
"r. c #728F93",
"t. c #55AB88",
"y. c #55B38C",
"u. c #5BB995",
"i. c #47AE84",
"p. c #6BB48C",
"a. c #74AB96",
"s. c #6CBB94",
"d. c #65BD9B",
"f. c #6CBD9C",
"g. c #66B798",
"h. c #73BC95",
"j. c #7BB69B",
"k. c #73BC9C",
"l. c #7ABC9C",
"z. c #75B499",
"x. c #63AA8E",
"c. c #7B80A0",
"v. c #7EAAA2",
"b. c #6CBEA2",
"n. c #69BBA4",
"m. c #77B5A1",
"M. c #73BDA2",
"N. c #7CBCA2",
"B. c #7BB8A9",
"V. c #5FC093",
"C. c #6BC296",
"Z. c #65C39B",
"A. c #6CC29D",
"S. c #69C799",
"D. c #72C19C",
"F. c #78C297",
"G. c #67C3A1",
"H. c #6CC3A3",
"J. c #6CC3AA",
"K. c #73C2A3",
"L. c #7AC3A5",
"P. c #7CC4AB",
"I. c #76C6A9",
"U. c #79C9B3",
"Y. c #8E8F97",
"T. c #A38C8F",
"R. c #AC938C",
"E. c #B4889B",
"W. c #AB9A96",
"Q. c #B9968E",
"!. c #8AAD9C",
"~. c #9CAB99",
"^. c #98AA96",
"/. c #83B59A",
"(. c #8CB39C",
"). c #83B99C",
"_. c #93B49B",
"`. c #8DA88E",
"'. c #A4A597",
"]. c #B5A298",
"[. c #9F89AB",
"{. c #9093AB",
"}. c #A597AB",
"|. c #A99BB3",
" X c #BD95AF",
".X c #89AFA7",
"XX c #8DB3A3",
"oX c #81BBA3",
"OX c #84BCAA",
"+X c #87B7A6",
"@X c #96B6A4",
"#X c #8AACB4",
"$X c #89B7B3",
"%X c #95B3B9",
"&X c #97A9B0",
"*X c #ABA6B8",
"=X c #B4AAB6",
"-X c #AEADAB",
";X c #C99D8D",
":X c #CC8E99",
">X c #CBA38B",
",X c #CAA99B",
"<X c #D7A68D",
"1X c #CE96AD",
"2X c #CBB4A4",
"3X c #D8B9A8",
"4X c #C8A2AD",
"5X c #F2BEB0",
"6X c #84C4AB",
"7X c #84C8AA",
"8X c #84CAB0",
"9X c #8ACAB3",
"0X c #94CABA",
"qX c #92D2BD",
"wX c #8FD0B8",
"eX c #A6C3B3",
"rX c #B4C8B7",
"tX c #BAC3A6",
"yX c #D4C6BD",
"uX c #F6CAB9",
"iX c #EDCCB9",
"pX c #B7B3CA",
"aX c #ABAECC",
"sX c #CDB4D0",
"dX c #9AD8C4",
"fX c #B0D4CB",
"gX c #D0CBDB",
"hX c #F4D7C5",
"jX c #CBCEE9",
"kX c #FFD9E2",
"lX c #F6E5F7",
/* pixels */
"$.%.V.A.D.K.n.G.k.N.M.l.(.'.].Q.,X].~.(.l.s.D.h.k.k.H.k.K.C.C.S.",
"%.&.Z.K.g.f.G.b.oX(._.~.'.Z Y ( Y Y Z './.j.a.6XM.k.k.K.A.A.C.D.",
"Z.d.f.s.i.y.Z.N._.W.` I W O.) O.7._ 4.& o n eXj.N.M.M.k.D.f.k.D.",
"f.A.L.A.t.t.j.^.z P @. .[ K +.@.{ 7...O.` q = XXN.H.b.b.K.L.D.h.",
"P.b.f.f.A./.W.Y ` @...X.] E { 6.7.| X.{ 7.c - @Xm.M.b.J.8XwX8XK.",
"m.P.f.f.6X`.4.@.....| X.q.K 6.{ | o. .X.{ W 8 0 ).M.H.J.9X0X8Xk.",
"0XqXM.).^.:.^  . .+.] ] ] J ] 6.o...X.o.[ @.u o (.H.G.b.OX6XI.f.",
"dXwX+X!.Z ) o. .o.] q.0.{ H } { ..X.{  .o.W l o (.f.A.b.B.m.H.G.",
"U.m.XXf ' 5.o. . .X...} } U O.5.| o. .#.E E F o ).A.M.M.M.M.H.G.",
"d.U.(.. _ | X.| X...O.1XkXlXkX:X7.| J G L K D o j.d.h.L.M.f.A.G.",
"Z.k.(.  W { { ..5.4.4X|.,.,.3. X:XH G J G R P . p.y.s.D.K.f.f.K.",
"A.P./.b 6 ~ 8.8.8.1X[.{.r.c.<.[.E.4.R G K I y   x.i.u.f.K.A.k.M.",
"f.h.z._.5 V E.E. XsX3.c.jXjXfX3.2.3XU U U c 8 = f.V.d.b.f.M.k.k.",
"N.P.j.)./.b $ V N |.aX*X|.|.*X-X*X}.x i 6 > 5 _.K.G.H.M.M.K.K.k.",
"H.g.6XL.s.oXrXf x O A -X}.7 ].z h w t t r 5 * %X6XH.M.M.b.A.H.D.",
"J.H.g.K.Z.D.eXg E.O W.sX].8 >X:.A w r w d , = fX7XM.M.K.f.f.A.K.",
"K.f.M.k.S.F.`.-.3Xz 2XiX3XT <X<X-.5 d 2 2 s r.+Xk.P.n.J.H.D.L.k.",
"k.K.k.M.F.C.`.tX3XuXhXiXiX>X<X:./ 7 j 2 ; S XXoXOXM.n.B.M.D.h.D.",
"l.L.A.A.I.C.(.^.q uXuX5X>X;X>X( x j j gX-X&X%X%X#X$X%X$Xm.h.K.A.",
"N.f.C.H.H.D./.+ ;XP q q q o o f Y.lXlX. O B {.&X#X$XfXdXB.N.f.A.",
"k.f.Z.G.g.m.oX+ ].Q.8 o % -X'.pXpX|.Z ,X,X/ 3 < .X+Xj.N.7X9X7XL.",
"k.I.K.H.s.M.oX*.v l n =.=.C =XpXaXA l 3X3XR.f C e.OXl.h.9XqXP.M.",
"9X8XK.A.L.L.g.oX4 4 rX_.XXX  X3.1.>.M T.2.T.=XgX@ v.oXN.6X8XU.b.",
"dXqXL.f.K.s.K.k.(._.@X_.&X@ >.t >.1.1.o o f *XgX@ %X+Xz.k.K.n.J.",
"8XL.K.K.A.A.D.h.!.X @ ; k w N c ! V V 7 $ $ h e m : e.z.s.C.G.J.",
"M.M.M.k.A.A.C.l.OX# d M s h r y 6 & O   5 5 # m m # *.N.s.S.A.f.",
"M.M.m.M.C.S.C.C.x.a.m r B e * * 7 =.Y.v.%X#Xe.1 < w.0XN.F.C.D.l.",
"J.K.M.M.A.S.C.C.y.w.,.s m e 9 9 r.XXv.B.OXB.B.s p r.m.z.h.p.7Xl.",
"G.A.k.k.f.D.h.D.u.g.B.$X+ + z.oXj.N.B.M.I.b.h.B.m.x.g.K.D.M.k.m.",
"G.A.D.k.D.D.l.l.M.H.B.m.m.L.P.k.P.z.M.D.H.C.K.k.N.P.J.n.A.K.b.J.",
"k.K.A.C.A.k.6X9XU.d.A.A.k.l.M.m.B.n.K.s.s.F.L.8XM.I.f.H.Z.u.A.d.",
"l.k.D.C.A.L.0XdXB.H.S.Z.F.l.B.M.n.I.C.C.).h.9XdX8Xf.K.G.u.&.y.S."
};
