/* XPM */
static char *sachaTOP1709127073[] = {
/* columns rows colors chars-per-pixel */
"32 32 235 2 ",
"   c #010B04",
".  c #060605",
"X  c #120400",
"o  c #1D0402",
"O  c #051507",
"+  c #020518",
"@  c #0C171C",
"#  c #11181C",
"$  c #121907",
"%  c #2C140E",
"&  c #082C17",
"*  c #3B2017",
"=  c #020B22",
"-  c #000020",
";  c #021822",
":  c #171D21",
">  c #00163B",
",  c #221F32",
"<  c #002A24",
"1  c #1B2729",
"2  c #172F36",
"3  c #353625",
"4  c #253039",
"5  c #533735",
"6  c #492C26",
"7  c #69393B",
"8  c #3D4533",
"9  c #494A3A",
"0  c #1D3945",
"q  c #363B4E",
"w  c #333B55",
"e  c #232740",
"r  c #4C354B",
"t  c #473948",
"y  c #563852",
"u  c #513F4B",
"i  c #783A41",
"p  c #3B4349",
"a  c #2D4859",
"s  c #384658",
"d  c #22434A",
"f  c #374E67",
"g  c #395169",
"h  c #3D5367",
"j  c #2F4364",
"k  c #454658",
"l  c #584855",
"z  c #4A565B",
"x  c #515148",
"c  c #684543",
"v  c #6E5253",
"b  c #465665",
"n  c #4D5E71",
"m  c #596468",
"M  c #5F6978",
"N  c #506C73",
"B  c #636073",
"V  c #8F3D3F",
"C  c #B3343E",
"Z  c #81413F",
"A  c #913D4A",
"S  c #AC3B46",
"D  c #B33B43",
"F  c #B33C4A",
"G  c #B93848",
"H  c #B63D54",
"J  c #A13B53",
"K  c #884547",
"L  c #9B4349",
"P  c #994755",
"I  c #8A5A5B",
"U  c #8F4D55",
"Y  c #A9424A",
"T  c #BA424D",
"R  c #A54457",
"E  c #BD4554",
"W  c #B94759",
"Q  c #A25359",
"!  c #8B615F",
"~  c #B95F6B",
"^  c #8D6F6B",
"/  c #BA6B72",
"(  c #B26B6E",
")  c #C1444C",
"_  c #C24954",
"`  c #C64857",
"'  c #C6505C",
"]  c #CA5568",
"[  c #D75F6D",
"{  c #C95E72",
"}  c #D95F74",
"|  c #C74F68",
" . c #D6636D",
".. c #C76C79",
"X. c #D56372",
"o. c #DB6474",
"O. c #DB657A",
"+. c #D66A7B",
"@. c #DC6A7B",
"#. c #D86877",
"$. c #C6737A",
"%. c #C97278",
"&. c #D46873",
"*. c #E16A7D",
"=. c #E26776",
"-. c #209A6B",
";. c #1BA06B",
":. c #2EA273",
">. c #76997D",
",. c #46A178",
"<. c #475788",
"1. c #5C5F94",
"2. c #736F87",
"3. c #6F7AB0",
"4. c #586B96",
"5. c #8D7D91",
"6. c #867EA7",
"7. c #DC6D82",
"8. c #D07B80",
"9. c #E56A81",
"0. c #5D8C84",
"q. c #778F91",
"w. c #4CAD83",
"e. c #4DB185",
"r. c #54B48B",
"t. c #52B185",
"y. c #5CB992",
"u. c #56A989",
"i. c #67B58E",
"p. c #75B78F",
"a. c #6CB694",
"s. c #6CBA95",
"d. c #6EB599",
"f. c #66BD9D",
"g. c #6CBC9B",
"h. c #63B795",
"j. c #73B592",
"k. c #74BB96",
"l. c #7DB59A",
"z. c #73BC9C",
"x. c #7ABD9D",
"c. c #79B598",
"v. c #6FAC8F",
"b. c #6586AA",
"n. c #6383B6",
"m. c #718DA2",
"M. c #6CBCA3",
"N. c #67B9A3",
"B. c #73BDA3",
"V. c #7BBDA3",
"C. c #72BDAA",
"Z. c #78B7A8",
"A. c #7BB7B9",
"S. c #5DC39C",
"D. c #66C395",
"F. c #6AC395",
"G. c #67C39E",
"H. c #6CC29B",
"J. c #6CC997",
"K. c #74C297",
"L. c #73C29D",
"P. c #79C39C",
"I. c #63C98A",
"U. c #5BC3A0",
"Y. c #6CC3A3",
"T. c #6DC1A8",
"R. c #69C8A6",
"E. c #74C2A3",
"W. c #7AC4A5",
"Q. c #74C9A4",
"!. c #7CCAA5",
"~. c #74C2AA",
"^. c #7EC6AB",
"/. c #7ECFAF",
"(. c #7AC6B1",
"). c #778DCD",
"_. c #7DA5E0",
"`. c #998C87",
"'. c #89858F",
"]. c #B39B99",
"[. c #B1978F",
"{. c #8EAE95",
"}. c #9AAA98",
"|. c #82B49A",
" X c #82BA9D",
".X c #88B599",
"XX c #96B49D",
"oX c #83AC8E",
"OX c #A4A69B",
"+X c #B9A49E",
"@X c #8E92B0",
"#X c #86ACA7",
"$X c #95A8A6",
"%X c #83BDA3",
"&X c #87B7A7",
"*X c #91B4A5",
"=X c #96ABB3",
"-X c #86B9B2",
";X c #A9ABA7",
":X c #BEA9A6",
">X c #B6A8B7",
",X c #A2B7B5",
"<X c #A6B2B2",
"1X c #B39BB1",
"2X c #81C49B",
"3X c #82C3A2",
"4X c #87C6A7",
"5X c #93D6A6",
"6X c #88CBB4",
"7X c #99CDBA",
"8X c #95D6BB",
"9X c #A8CABC",
"0X c #8595CA",
"qX c #97ADDE",
"wX c #A8BCD9",
"eX c #A9A6C3",
"rX c #819CE9",
"tX c #90B6F5",
"yX c #C3BCDE",
"uX c #9CDAC3",
"iX c #B1CACE",
"pX c #BAC9E8",
"aX c #BCCAF1",
"sX c #C6C4D9",
"dX c #D9D0DD",
"fX c #C3EEDB",
"gX c #CACAE7",
"hX c #DADCFF",
"jX c #D0D2EF",
"kX c #E3DBEF",
"lX c #DEE0EF",
"zX c #DBE2F4",
"xX c #D2EAFF",
"cX c #D0EAFB",
"vX c #E5E3FA",
/* pixels */
";.:.y.E.W.L.E.g.L.E.c..XOX].].].[.+X[.OXXX{. XL.H.H.H.H.W.d.W.z.",
"-.:.y.L.g.f.g.z.3X2XXXOX^ I I ^ ! ! ! ! `.OX{. XW.H.Y.H.g.B.E.a.",
"S.y.Q.H.r.,.Q.|.XX^ U P / $.%...$.$.$.$.~ U v OXl.B.Y.Y.E.M.(.T.",
"R.g.Y.H.e.e.p.{.v ( +.[ #. .&.=.&.&.&.@.=.9.$.c XXl.z.M.B.~.N.T.",
"Y.B.z.z.Q.s.p.$ ^ +.O.} #.*.=. . .=.o.=.[ =.*./ % XX Xx.6X8X6XG.",
"z.W.W.d.L.L.XX5 7.7.O.7._ E _ _ ' T ` ` ' o.O...i 9 |.k.4X8X!.H.",
"7X6Xz.Y.g.|.X U 7.W | ] ` E W W T W ' ` ] ] ] { Q * XXH.3Xx.x.k.",
"9X7XE.g.Y.|.X U R H ` H 9.O.+.+.+.+.=.=.' H W Y U 6 oXP.k.k.W.z.",
"3XV.E.E.z..XX U ..+.7.9. .+.*.o.+.+.O.*.O.+.7...I 3 .Xz.B.Y.E.M.",
"C.^.B.g.V.|.OXo P S E } =.=. .=.O.} O.o.O.[ R P o }. XE.B.g.N.T.",
"T.M.M.V.s.2XoX. K Y F ) _ ) ) ` _ ) ` T E H G R o >.p.f.g.~.T.E.",
"R.M.B.V.k.k..X9 K Y S S C G C C G C D D D D G V 9 >.p.s.E.B.E.B.",
"U.R.E.V.L.j.  +Xv Z A Y F G H H G G G G Y A V Z [.x p.L.L.E.g.g.",
"R.R.g.s.x.*X  :Xc 7 7 i P R P J J J P P A i 7 c [.x 3Xg.s.s.W.E.",
"g.Q.d.W.x.|.,X. o 5 v r t t r y y r r t u u l   O  Xx.g.W.g.Q.d.",
"z.z.K.g.P.|.8 `.l 5.5.k n s w w w s a b k m $X  6Xz.V.d.Y.W.h.W.",
"d.Q.H.K.K..X. :X2.6.M q 2.k s g f f g M b p m m 3XE.E.V.B.g.Y.G.",
"~.Q.s.L.k.l.3 `.6.1.k = =Xb g a g f b m.M : & XXV.Y.B.E.B.z.Y.Y.",
"N.C.B.a.L.K..X. 3.3.<.= n = + = - - + w '.zX,X#Xz.H.H.g.g.B.B.z.",
"(.T.B.Q.H.L.d.Z.> <.4.j m.cXxXwX@XvXvX@XeXhX=X#Xz.H.F.z.E.E.z.V.",
"C.N.E.T.H.H.Y.(.A.3.g g wXzXqX).3.).zXyXjXzX=X*XB.L.H.Y./.(.Q.E.",
"k.z.T.y.Y.~.Y.g.A.N 0 g aXhX).)._.n.hXdXgXzX=X-XB.L.g.B.6XuX!.K.",
"5X4XR.R.E.g.d.^.V.j.2 k yXgX)._.tXn.pXgXlXlX=X0.h.H.z.B.(.6XP.k.",
"5X5XQ.T.g.k.!.a.K.|.@ z gXgX0X3.n.n.pXpXjXkX=X  u.L.~.M.C.B.k.P.",
"4X!.W.B.z.z.B.z.g.l.: v . sXgXpXaXpXgX1 B kX>XdX& 2Xs.R.T.N.~.z.",
"z.z.C.Z.z.K.E.E.W.&X# t t : # , 4 M z @ m lX>X>X& p.J.J.T.~.B.k.",
"C.C.Z.Z.F.F.H.H.r.d.; q p 1 . + , 4 *Xq.$XiX;Xz p.i.i.R.T.M.z. X",
"~.C.Z.C.H.D.g.G.u.u.d q s s @ 2 m 0 *X*XfX9X,X*Xv.,.y.H.T.~.x.c.",
"Y.Y.B.B.H.H.L.H.y.y.-Xa h N ; #X-XZ.c.l.c. X&Xl.h.N.Y.N.T.E.g.K.",
"F.g.B.B.z.E.k.L.J.G.Z.< iXiX2 -XN.~.g.W.Q.s. X3XM.f.f.Y.~.H.s.J.",
"D.F.L.z.Z.Z.4X6XW.L.C.Z.< < V.k.H.Y.Y.g.g.E.4X^.^.Y.E.Q.r.r.F.D.",
"I.I.H.z.V.-X6XuX^.d.W.B.V.4Xp.K.L.s.E.Y.M.C.6XuX4XE.g.H.r.e.r.J."
};
