/* XPM */
static char *_ae73eb2d2eb4331f2203e88c1cec982of53HFCSOMJFyoF7[] = {
/* columns rows colors chars-per-pixel */
"32 32 227 2 ",
"   c #353E2D",
".  c #283A24",
"X  c #2F412B",
"o  c #294D27",
"O  c #34442B",
"+  c #314A2D",
"@  c #245328",
"#  c #3C4332",
"$  c #364F39",
"%  c #374A35",
"&  c #3B5A3D",
"*  c #385739",
"=  c #315033",
"-  c #34683C",
";  c #424B36",
":  c #434D3C",
">  c #40473F",
",  c #435C35",
"<  c #4A5D36",
"1  c #46533C",
"2  c #465C3C",
"3  c #4A5D3B",
"4  c #495639",
"5  c #52563F",
"6  c #455A2F",
"7  c #446037",
"8  c #4C633D",
"9  c #4B6A3D",
"0  c #47613E",
"q  c #52643B",
"w  c #546D3D",
"e  c #566B3A",
"r  c #58753D",
"t  c #44763B",
"y  c #616F3E",
"u  c #60783E",
"i  c #3D5D42",
"p  c #385841",
"a  c #3B6343",
"s  c #366146",
"d  c #3C7757",
"f  c #434B40",
"g  c #455342",
"h  c #4D5D44",
"j  c #465B46",
"k  c #565D45",
"l  c #505D4A",
"z  c #525E51",
"x  c #436243",
"c  c #4C6344",
"v  c #4E6A44",
"b  c #476448",
"n  c #4D6649",
"m  c #4C694A",
"M  c #426C48",
"N  c #536545",
"B  c #546C44",
"V  c #5A6C43",
"C  c #56654B",
"Z  c #5A644A",
"A  c #536B4A",
"S  c #596B4C",
"D  c #48774A",
"F  c #5C7444",
"G  c #577A44",
"H  c #53724C",
"J  c #5C754B",
"K  c #5D7A4B",
"L  c #557543",
"P  c #4B6C53",
"I  c #446F51",
"U  c #5B6355",
"Y  c #5D6A55",
"T  c #566855",
"R  c #447253",
"E  c #4B7855",
"W  c #5C7C52",
"Q  c #57775A",
"!  c #626F46",
"~  c #637C46",
"^  c #62754A",
"/  c #647B4D",
"(  c #67774A",
")  c #626956",
"_  c #647C52",
"`  c #697D52",
"'  c #667753",
"]  c #4F7F67",
"[  c #636F61",
"{  c #677963",
"}  c #67823F",
"|  c #3F815A",
" . c #289D6A",
".. c #1FA067",
"X. c #5D834A",
"o. c #59815C",
"O. c #5A8556",
"+. c #47855C",
"@. c #6B8443",
"#. c #6C8B4A",
"$. c #64854A",
"%. c #728743",
"&. c #748A46",
"*. c #728C4B",
"=. c #7A8D4B",
"-. c #7C8E47",
";. c #6D924F",
":. c #74914C",
">. c #7C934D",
",. c #79974B",
"<. c #658253",
"1. c #6C8355",
"2. c #65825A",
"3. c #6B845A",
"4. c #628D5E",
"5. c #698A53",
"6. c #748D54",
"7. c #748959",
"8. c #629052",
"9. c #749453",
"0. c #7E9554",
"q. c #7C9956",
"w. c #74955B",
"e. c #7B9559",
"r. c #779A5B",
"t. c #7C9B5C",
"y. c #779B55",
"u. c #7AA057",
"i. c #4D8665",
"p. c #558B6A",
"a. c #588968",
"s. c #43906C",
"d. c #5B906C",
"f. c #5A9977",
"g. c #6B9D6A",
"h. c #7B9E64",
"j. c #759B65",
"k. c #748C7A",
"l. c #679578",
"z. c #70967F",
"x. c #7EA360",
"c. c #72A875",
"v. c #6EA878",
"b. c #829754",
"n. c #829B5C",
"m. c #859A57",
"M. c #859745",
"N. c #91A24B",
"B. c #91A244",
"V. c #87A25A",
"C. c #98A859",
"Z. c #98B05C",
"A. c #A7B454",
"S. c #A9B858",
"D. c #B2BD57",
"F. c #839D63",
"G. c #82A162",
"H. c #88AA67",
"J. c #9AB765",
"K. c #95B774",
"L. c #82AD78",
"P. c #A8BC67",
"I. c #B0BD6B",
"U. c #A5BB72",
"Y. c #B9C45B",
"T. c #ABC268",
"R. c #BBC763",
"E. c #A8C47A",
"W. c #C5CD66",
"Q. c #C8D16A",
"!. c #C6D278",
"~. c #CAD67C",
"^. c #7B9384",
"/. c #55AB8B",
"(. c #5AA987",
"). c #5CBB95",
"_. c #6BA68A",
"`. c #69A788",
"'. c #75AB88",
"]. c #76B58E",
"[. c #75B588",
"{. c #73AF93",
"}. c #6BBC97",
"|. c #64BD99",
" X c #6DBC9C",
".X c #68B695",
"XX c #73B494",
"oX c #7EB395",
"OX c #72BA95",
"+X c #73BD9D",
"@X c #7BBC9B",
"#X c #79B799",
"$X c #6DBDA2",
"%X c #73BEA2",
"&X c #7ABDA4",
"*X c #76BEA8",
"=X c #5EC89A",
"-X c #6CC19D",
";X c #66C49B",
":X c #72C29D",
">X c #79C39D",
",X c #7BC094",
"<X c #6CC3A1",
"1X c #6AC5A1",
"2X c #73C3A3",
"3X c #7BC3A4",
"4X c #78C5AA",
"5X c #879989",
"6X c #82B48E",
"7X c #82AB91",
"8X c #91AA95",
"9X c #82BB9A",
"0X c #87B799",
"qX c #87A38C",
"wX c #83BDA4",
"eX c #91BFA5",
"rX c #81C2A3",
"tX c #83CBAB",
"yX c #88C5AA",
"uX c #8BCDB3",
"iX c #87CBB2",
"pX c #8DD5B7",
"aX c #8FD6B8",
"sX c #93D5B9",
"dX c #92D5BA",
"fX c #95C1AA",
"gX c #A3D0B9",
/* pixels */
".. .;X$X2X%X-X}. X-X2X<X X#XeX7X0XoX@X#X%X2X X:X X2X2X$X$X-X;X;X",
" . .).2X$X X<X-X:X:X:X X3XoX& o @ @ p.#X@X+XOX X:X2X X$X2X2X-X-X",
"=X).-X<X/./.|.2X+XOX,X[.v.O.K 6.G.G X.c.v.].@X:X+X%X$X2X2X X}.:X",
"1X;X X-X/./.1X2X+X9Xc.t H.E.E.U.E.U.E.K.8.g.].XX+X%X X X2X2X%X%X",
"+X+X:X:X|.|.1X}.].'.$.t.E.T.!.~.!.~.P.P.J.8.D ].@X2X}. XtXpXtX&X",
"&X&X+X}.-X1X-X.Xi.O.K.P.T.Q.Q.Q.Q.W.R.S.J.K.L.o.{.+X:X:XtXpXiX&X",
"uXiX3X X-X}.s.| E h.H.M.S.D.W.Q.Q.W.W.S.N.m.H.4.d.'.>X>X:X3X3X&X",
"dXpX2X+X:XOX| D 4.w.&.Z.P.A.D.Y.R.S.A.S.I.-.@.<.D g.].@X+X+X%X*X",
"2X2X2X}.rX'.- g.h.r.*.V.C.N.B.S.S.A.N.C.C.-.%.e.j.O.p.@X#X*X%X2X",
"-X2X2X3XXX6X4.j.r.q.*.@.%.-.Z.T.J.J.>.&.&.=.=.n.F.j.- 9X@X X2X X",
"-X-X XXXl.Q <.F.9.9.r.6.*.&.V.H.,.V.9.*.*.b.b.>.9.w.M d.`.%X2X<X",
"<X<X+XrXR 2.<.u #.9.t.h.t.#.#.#.$.;.w.t.t.t.m.>.@.~ W a i.%X}.-X",
" X2X+Xf.M W F ~ e.G.9.9.e.n.9.9.9.9.r.r.t.#.q.F.e./ K E p.3X+X<X",
"$X+X:X].M 2.V ( F.t.#.:.q.n.r.t.G.r.9.9.q.$.9.F.7.V J H a.XX+X X",
"*X3X+X+.E 3.^ e $.r } 0.b.=.:.:.0.b.:.,.y.:.$.<.^ V 3.H a.oX+X2X",
"*XOX@Xp.o.2.3.^ e e *.m.0.=.q.@.=.m.*.:.y.x.X.9 B _ ' 2.o.9XXX2X",
"<X2X9XQ v _ K <.^ F F 6.~ 6.n.e.y ^ w r 6.~ G L <.2.8 S i p.OX-X",
"<X2XoXE A 8 J 3.3./ V q w 1.F.7.! ` K w w w F <.<.2.2 c P a.@X2X",
"-X}.p.& A < J 3.J ` 1.F F r F w ` 1.7.<.K 1.^ / ` _ 3 h l i `.}.",
"%X3Xp.b c 8 B / B ` ` ` 1.<.F F 1.` / / / 7.` ! q N c C l $ `.3X",
"#X@Xp.a m S , = v _ K V ` 7.<.<.1.1.<./ / ^ ` ! < 3 h C g j _.}.",
"#XrXoXR b A N B 2 9 B 8 _ <.K G K ` <.K w 6 q < < c n T j l.yX3X",
"pXuX@XE a b A N v , , < ^ 3.W L 2.3.O.L 7 < q 8 v m b m s _.3X}.",
"sXdX3Xf.p a n A c H A q 4 ' B 7 W O.W 9 , B B A A x & M d OX2X+X",
"tX3X3X+Xi.I i n m 0 S N 3 Z 3 8 8 * 8 8 < S v x m x P a.(.-X X-X",
"3X+X2X2X@XoXP & x h N S Z k N A c c < 8 N N * c j x '.#X:X-X-X2X",
" X X2X}.+X@Xa.& + O N Z Z k Y C C C Z 5 Y C 1 X % = oXrX2X X X X",
":X:X-X<X+X#X'.* $ 2 O 1 1 h 1 Y ) Z 5 k 1 $ # : $ = '.}.+X+X2X-X",
":X-X-X2X2X%X9XE Q h ; 1 $ . % : ; ;   O g g : U P ] XX2X+X+X2X<X",
" X-X2X|.$X+X#X7XQ g { h % % #   # # X + g [ U Y z.{. X2X+X}.-X-X",
":X X2X X4X4XwXfX{ Y Y c b k.p z ) l P z.g z f k.wX3X X<X}..X|.1X",
":X X X<X$X$XsXgX8Xh 1 { qX8X5Xl U C 7X0X^.g f ^.yX2X-X<X(./.).;X"
};
