/* XPM */
static char *_bf63158c7c84c33c89d6062e4030458AbiNnEvGUWdSaMcR[] = {
/* columns rows colors chars-per-pixel */
"32 32 234 2 ",
"   c #000C02",
".  c #040608",
"X  c #011908",
"o  c #191903",
"O  c #020917",
"+  c #001919",
"@  c #1D0D17",
"#  c #3F0C11",
"$  c #08281C",
"%  c #132319",
"&  c #292B1A",
"*  c #051926",
"=  c #000821",
"-  c #18262A",
";  c #04322A",
":  c #142C2D",
">  c #3B2C28",
",  c #293125",
"<  c #481317",
"1  c #592B2E",
"2  c #493B3E",
"3  c #5A3934",
"4  c #462A27",
"5  c #623835",
"6  c #783D3C",
"7  c #61302C",
"8  c #374436",
"9  c #154A36",
"0  c #424F37",
"q  c #2D3346",
"w  c #353951",
"e  c #1B3651",
"r  c #563942",
"t  c #50364E",
"y  c #7A3F41",
"u  c #384959",
"i  c #365556",
"p  c #3A655E",
"a  c #354A66",
"s  c #2F5767",
"d  c #325C64",
"f  c #3D5A78",
"g  c #475246",
"h  c #4E4351",
"j  c #454559",
"k  c #544749",
"l  c #6A4948",
"z  c #79494C",
"x  c #7B4954",
"c  c #6A5A53",
"v  c #755655",
"b  c #546150",
"n  c #606954",
"m  c #534C66",
"M  c #644B62",
"N  c #795663",
"B  c #645A7C",
"V  c #496864",
"C  c #796662",
"Z  c #68736C",
"A  c #86383B",
"S  c #993A4B",
"D  c #A93C4C",
"F  c #B23C4B",
"G  c #A63C52",
"H  c #B83C55",
"J  c #8B434F",
"K  c #95434D",
"L  c #954A55",
"P  c #89585F",
"I  c #97555E",
"U  c #A64658",
"Y  c #B64553",
"T  c #B54A5D",
"R  c #A14A57",
"E  c #9C5B61",
"W  c #8B5F60",
"Q  c #A45763",
"!  c #BD5366",
"~  c #8F716C",
"^  c #A87376",
"/  c #B06B74",
"(  c #C34C5F",
")  c #C95A67",
"_  c #D15B6A",
"`  c #CA5C72",
"'  c #DB5E78",
"]  c #C84A60",
"[  c #CA626F",
"{  c #CE6374",
"}  c #CB6879",
"|  c #D26375",
" . c #DB6575",
".. c #D96875",
"X. c #DB6579",
"o. c #D46B7A",
"O. c #DC6B7D",
"+. c #D56879",
"@. c #C5727A",
"#. c #E2647A",
"$. c #E2677A",
"%. c #219B6C",
"&. c #1DA370",
"*. c #35A67A",
"=. c #518D71",
"-. c #678871",
";. c #B28874",
":. c #908D7C",
">. c #C08C74",
",. c #52678A",
"<. c #6C718E",
"1. c #465FA2",
"2. c #5D76A9",
"3. c #5C6CAA",
"4. c #6D7AAF",
"5. c #846F89",
"6. c #B1768C",
"7. c #D96A81",
"8. c #CB7983",
"9. c #D47182",
"0. c #E17889",
"q. c #739B8E",
"w. c #53A985",
"e. c #56AC8C",
"r. c #5CB998",
"t. c #50B48C",
"y. c #63B68D",
"u. c #66AC95",
"i. c #7DAE9D",
"p. c #64BC95",
"a. c #6DBB96",
"s. c #6CB49A",
"d. c #66BC9A",
"f. c #6CBD9C",
"g. c #66B393",
"h. c #71BC96",
"j. c #74B599",
"k. c #7DB49C",
"l. c #73BD9C",
"z. c #7BBA9C",
"x. c #71B695",
"c. c #74B18B",
"v. c #7F8AB5",
"b. c #6F86B5",
"n. c #6DBEA3",
"m. c #69B9A3",
"M. c #74BCA2",
"N. c #7ABDA3",
"B. c #79B8A6",
"V. c #79B8B8",
"C. c #6BC18F",
"Z. c #65C29C",
"A. c #6CC39C",
"S. c #69C195",
"D. c #73C19C",
"F. c #77C39A",
"G. c #66C1A2",
"H. c #6CC3A2",
"J. c #69C5A8",
"K. c #73C2A2",
"L. c #7BC2A4",
"P. c #7CC5AA",
"I. c #7ECBAB",
"U. c #76C9A9",
"Y. c #7ACEB4",
"T. c #998383",
"R. c #929389",
"E. c #8B8A8F",
"W. c #BA999A",
"Q. c #AE958E",
"!. c #83B58D",
"~. c #89AD98",
"^. c #92AE9A",
"/. c #98A998",
"(. c #85B59B",
"). c #8BB49B",
"_. c #84BB9D",
"`. c #85B395",
"'. c #98B29D",
"]. c #A4A39D",
"[. c #BBA597",
"{. c #B8A48C",
"}. c #84B5A3",
"|. c #84BCA4",
" X c #89BAAB",
".X c #95B8A4",
"XX c #92B0B0",
"oX c #ACAFAB",
"OX c #868BAB",
"+X c #CA8684",
"@X c #C59987",
"#X c #CC8C9B",
"$X c #C69A98",
"%X c #C6A699",
"&X c #D9AD94",
"*X c #E8BF9F",
"=X c #CC9BA9",
"-X c #F99EAF",
";X c #C8A9A7",
":X c #DDB8BA",
">X c #D1B3B6",
",X c #EFB5BC",
"<X c #81C19D",
"1X c #81C2A4",
"2X c #82CAAC",
"3X c #84C3A9",
"4X c #8BCCB4",
"5X c #87C7B1",
"6X c #93C9B6",
"7X c #8BD4BB",
"8X c #8DD8B9",
"9X c #96D2B9",
"0X c #90C8AF",
"qX c #A5D2BB",
"wX c #EAC9B5",
"eX c #F8CEB9",
"rX c #EED3BA",
"tX c #F4D3B8",
"yX c #F7C9AC",
"uX c #BEBDDC",
"iX c #B7BFF0",
"pX c #CDB6C0",
"aX c #FEBBC7",
"sX c #E5BEC1",
"dX c #96DAC1",
"fX c #A2D8C8",
"gX c #D3C7D6",
"hX c #F5C3C8",
"jX c #F5D2C6",
"kX c #FCD4D7",
"lX c #E8D1CB",
"zX c #C8CBE4",
"xX c #E5DEF2",
"cX c #E7D5E3",
/* pixels */
"&.%.r.K.K.K.G.G.N.z.N.A.A.Z.l.l.f.A.A.Z.Z.A.l.z.k.j.I.f.l.K.f.K.",
"%.*.r.d.f.f.G.H.N.N.j.z._.(.'.^.^.^.~.~.).).).k.|.l.g.U.f.K.l.f.",
"r.Z.H.A.r.w.d.H.f.x..X/.Q.W E Q Q Q Q Q Q ^ Q..Xz.K.K.H.H.f.K.K.",
"U.f.A.A.w.w.d.f.D._./.v I } O. .' X.#.#.#.` I c ^.z.f.Z.Z.U.l.x.",
"A.f.K.D.d.H.A.z.k.'.z 8.} | .. .$.#. . .X.o.@.^ v /.z.K.I.8X1X1X",
"K.L.z.l.A.Z.y.|.% v 8.{ | Y Y F F F F F F T { 8./ l ^.j.2X8X4Xj.",
"9X4XN.K.A.Z.w.=.3 L T T ] _ ) _ _ _ ) ) ) ) ( Y T J k /.3XU.f.L.",
"9X9XL.K.p.H.=.  P @.` F Y O....... . ...o.[ ] H } / x . k.f.K.f.",
"|.3XN.K.f.K.j.  T.aX-XT | o. .X. . .#. .| o. .U aX:X~ . }.K.M.l.",
"M.L.s.M.M.M.}.  >XkX,X} 0.{ O. .+.X.#. .o.} O.9.hXlX].  N.M.K.M.",
"G.G.K.s.N.|.}.~.g W.=X8.{ +.o.o.+.$. .| o.o.' { sXE.V k.M.d.U.f.",
"J.H.n.M.N.N.k.q.8 T.#XQ T X.O. .+.X.+.7.o.| H ! W.Z i }.N.K.d.A.",
"H.A.l.N.f.N.k.: n W I S G ` ' ' 7.+.o.+.` _ H G P C c , i.2Xl.D.",
"Z.A.L.l.K.M.|.  ].4 < L R S ` 7.{ ` o.{ ! D D S # l T.  (.x.l.l.",
"D.K.x.L.z.z.0X  ].N 5 1 z L J K K U U S K L y 3 l ~ R.  _.l.D.Z.",
"a.D.z.z.z.1X9XqXg k C W.1 $Xz 6 6 A A +XQ 7 3 [.c , ^.(.L.l.S.A.",
"D.a.K.n.l.l.L.3X(.8 0 [.Q.kX1 5 ;.>.+XhX^ < ;.%X, ~.(.z.F.D.A.A.",
"l.K.n.H.D.a.L.j.|.~./.:.[.jX~ ~ *X&X*XjX%Xv &X;.o ^.(.z.l.D.Z.K.",
"l.M.d.A.h.F.x.z.i. XXXb Q.rXrXeXyXyXtXtXtXwX@X5 4 & ^.|.f.p.I.g.",
"L.f.J.A.h.z.(..Xd * e <.k {.wXeXeX@XtXrXrX:Xl z >XlXoX  a.H.l.1X",
"M.K.H.H.M.}.  . 2.b.2.v.gX. 3 ~ %X$X;XN > @ k N Q.;XR.  4X7XN.k.",
"M.M.a.l.|.-.].M 4.1.3.iXzXE.pX:X:X:X=XM j j 5.5.> o 8 ).5X7X5X|.",
"7X4XM.z.`.n jXQ.B v.v.<.OXuXxXcX;X>X5.,.,.f w j Z -._.z.U.Y.P.l.",
"dX4XI.F.!.b %X;XZ zXXXO m zXxXgX=X6.t <.,.a = : q.<Xx.D.H.d.H.H.",
"2XP.A.A.h.!.    (.(.oX. M r :XhX#X6.r M B j . q.B.l.l.h.a.K.H.G.",
"M.P.f.A.C.F.i.}.F.<XX h M N N x J x N N M w   }.M.n.D.F.l.l.H.H.",
"V.B.M.A.S.d.5XB.y.y.+ j h t h 2 2 r h t j q   (.s.r.p.A.A.Z.H.K.",
"V.B.K.A.H.Y.m.n.t.w.* u w - * - % % - q a u   }.u.e.y.S.Z.A.f.K.",
"B.P.a.C.f.n.m.J.r.m.; V u O ;  X|.i.O w f s .  Xs.g.a.l.K.K.l.l.",
"M.f.C.D.K.n.Y.G.U.B.$ p p O  Xu.l.|.+ u s d . }.N.l.M.K.n.n.D.D.",
"H.p.U.K.l.l.2X2XL.j._.X    Xj.P.M.l.B.9 X ; 6X5XL.D.H.J.r.r.p.A.",
"A.H.f.M.N.N.9X9X1XF.k.`.}.B.M.f.N.l.l.z.`.(.0XfX1Xl.J.J.r.t.t.A."
};
