/* XPM */
static char *_07960aab4d74a4894f31af209793432PbN7cmVydAXtM43O[] = {
/* columns rows colors chars-per-pixel */
"32 32 229 2 ",
"   c #020601",
".  c #0C0000",
"X  c #010B02",
"o  c #00020D",
"O  c #000F0C",
"+  c #160200",
"@  c #071706",
"#  c #000C16",
"$  c #001315",
"%  c #00191B",
"&  c #131513",
"*  c #3E120F",
"=  c #002003",
"-  c #000D20",
";  c #071625",
":  c #121B2C",
">  c #162526",
",  c #0A2F2A",
"<  c #293030",
"1  c #441412",
"2  c #4C352E",
"3  c #583937",
"4  c #462C2F",
"5  c #712E33",
"6  c #6C2F34",
"7  c #4B4138",
"8  c #6B413D",
"9  c #0A3347",
"0  c #2A3B4C",
"q  c #383C4A",
"w  c #393D52",
"e  c #363F5E",
"r  c #493849",
"t  c #563B43",
"y  c #473B53",
"u  c #783E4D",
"i  c #643B43",
"p  c #1E4E59",
"a  c #384445",
"s  c #384857",
"d  c #2B4562",
"f  c #2D5363",
"g  c #474056",
"h  c #504D4B",
"j  c #624746",
"k  c #734442",
"l  c #785955",
"z  c #67675A",
"x  c #47556C",
"c  c #4A5A79",
"v  c #565E7A",
"b  c #57516B",
"n  c #576578",
"m  c #68696C",
"M  c #767568",
"N  c #646F76",
"B  c #6A7177",
"V  c #6E586D",
"C  c #81363D",
"Z  c #833A4A",
"A  c #853D46",
"S  c #963C47",
"D  c #843E50",
"F  c #A53D4C",
"G  c #AD3A4D",
"H  c #AC3847",
"J  c #B23749",
"K  c #BC354D",
"L  c #B43A4C",
"P  c #B9394C",
"I  c #B73347",
"U  c #A83F50",
"Y  c #B63F52",
"T  c #C43950",
"R  c #89444A",
"E  c #95454F",
"W  c #934C55",
"Q  c #845758",
"!  c #915359",
"~  c #AA4251",
"^  c #A44350",
"/  c #B54552",
"(  c #BB4353",
")  c #AC444F",
"_  c #87615E",
"`  c #B35A67",
"'  c #8B726D",
"]  c #B66A72",
"[  c #A17C79",
"{  c #B06C72",
"}  c #C5515F",
"|  c #C64B5D",
" . c #CC5263",
".. c #C75A65",
"X. c #D25564",
"o. c #D25A67",
"O. c #D45B6C",
"+. c #D75F71",
"@. c #D24E66",
"#. c #D4636D",
"$. c #DB656E",
"%. c #D6686F",
"&. c #C86875",
"*. c #D36473",
"=. c #DC6574",
"-. c #DC6A73",
";. c #DC657A",
":. c #D76B77",
">. c #CC6A76",
",. c #E1697C",
"<. c #349E75",
"1. c #29996E",
"2. c #7C8177",
"3. c #6C9479",
"4. c #495D81",
"5. c #4A758D",
"6. c #506D8F",
"7. c #637C85",
"8. c #6D7286",
"9. c #5B7EA7",
"0. c #6779B8",
"q. c #6B7FC3",
"w. c #D77281",
"e. c #6D849A",
"r. c #4DAA84",
"t. c #55B38D",
"y. c #5BB893",
"u. c #51A886",
"i. c #62B58D",
"p. c #6BA599",
"a. c #76A99C",
"s. c #63BD95",
"d. c #6CBC96",
"f. c #6CB79C",
"g. c #65BB99",
"h. c #6CBC9B",
"j. c #62B597",
"k. c #75B596",
"l. c #74BC95",
"z. c #74B69B",
"x. c #7BB69B",
"c. c #73BC9C",
"v. c #7BBB9C",
"b. c #7CB395",
"n. c #6BA08C",
"m. c #5E85AC",
"M. c #6983B6",
"N. c #6383AA",
"B. c #6DBDA3",
"V. c #6EBEA9",
"C. c #74BDA3",
"Z. c #7BBBA3",
"A. c #72BCAA",
"S. c #7ABAA9",
"D. c #79B6A7",
"F. c #78ADAA",
"G. c #5BC299",
"H. c #65C29D",
"J. c #6CC29D",
"K. c #65C59B",
"L. c #73C19C",
"P. c #76C49A",
"I. c #6DC3A2",
"U. c #6DC3A9",
"Y. c #68C8A5",
"T. c #74C2A3",
"R. c #7BC3A4",
"E. c #74C4A9",
"W. c #7AC4AA",
"Q. c #76CAA9",
"!. c #7AC7B2",
"~. c #6887C4",
"^. c #7290D1",
"/. c #6F8EE1",
"(. c #868798",
"). c #9A9994",
"_. c #889F90",
"`. c #AF9690",
"'. c #8BAE96",
"]. c #91AB95",
"[. c #99AE9B",
"{. c #84B59B",
"}. c #81BA9B",
"|. c #87B59A",
" X c #97B39C",
".X c #86A28B",
"XX c #A2A797",
"oX c #B2A59C",
"OX c #9897A6",
"+X c #8A96AD",
"@X c #A09FA5",
"#X c #83BCA2",
"$X c #83BBAB",
"%X c #85B8A5",
"&X c #98B7A4",
"*X c #89B6B6",
"=X c #8EA6AE",
"-X c #A2A5AC",
";X c #B2AFB5",
":X c #86C29E",
">X c #81C2A5",
",X c #85C4AB",
"<X c #89C5AB",
"1X c #87C7AA",
"2X c #91C8AC",
"3X c #8BC9B3",
"4X c #86CDB7",
"5X c #96D1B9",
"6X c #95D2B8",
"7X c #9ACFBB",
"8X c #A0D8BD",
"9X c #8499DC",
"0X c #98A8DA",
"qX c #88A0DE",
"wX c #A4ADC2",
"eX c #ABB8D4",
"rX c #ABB2CF",
"tX c #9EB7FF",
"yX c #9AD8C6",
"uX c #B1C2D6",
"iX c #BAC6E2",
"pX c #B0CAFF",
"aX c #C8C7D4",
"sX c #CFD7DA",
"dX c #C4C7E5",
"fX c #C7D4F0",
"gX c #D4E3FF",
"hX c #CFE4FF",
"jX c #E2E9FF",
/* pixels */
"1.<.s.I.H.H.T.z.x.x.c.h.L.d.L.c.k.k.L.d.L.h.c.C.c.T.T.h.z.R.T.h.",
"1.<.s.g.Q.J.g.R.#X{.#X{.'.'.&X].[.[.'.'.|.x.z.T.T.T.h.R.c.h.T.h.",
"G.G.Y.H.r.t.y.H.}.].[.oXQ R R W E W R Q `.&X}.L.g.I.T.h.Q.g.E.h.",
"Y.H.h.Q.r.r.K.J. XM l { >.;.;.+.;.*.w.&.! _ .Xv.R.g.c.h.g.I.c.C.",
"H.I.c.h.T.h.J.b.).[ { &.,.=.,.;.:.:.&.w.` ] [ XXx.J.H.T.3X6X6Xz.",
"E.T.z.Z.z.v.b.[._ ] >.*. .X. .o.......&.=.:.] Q ].R.h.h.3X5X<Xz.",
"3X5XZ.#X#X'.2.4 ] >.*./ ( L / H L ( / G +.,.*.` + '.R.T.R.Z.S.W.",
"7X5XZ.Z.x.@ 3 E ~ G L o.#.-.%.-.-.$.#.-.H L K U Q   }.J.z.R.C.h.",
"T.!.h.c.#X@ 5 U / O.-.-.=.%.%.-.-.$.-.#.:.=.@.G W . |.L.h.E.j.E.",
"T.h.H.T.k.@ 6 F H | #.-.-.-.%.$.$.$.-.-.*.} ( G W . }.h.g.E.Q.g.",
"C.B.I.Q.c.'.j 5 ^ ( } X.X.X.o.X.X.X.o.o. .( L E 2 .Xi.Y.I.h.f.W.",
"C.C.h.h.d.{.XX1 ^ G L P I I P P P P L J L L H C . 3.i.G.Q.h.T.C.",
"T.T.T.L.l.|.XX* ^ J K T K K P J L L J L Y / F A + ].v.h.c.T.c.C.",
"T.C.h.c.>X= M [ R S G P P L L G L L L Y F S S W oXX b.c.c.h.Q.h.",
"C.c.C.v.k.@ ' `.8 k R S F G F U ~ ~ G ^ A 8 k l oX  <Xc.R.c.I.H.",
"Z.Z.C.c.k.&Xz j < 7 j u D D Z Z Z D Z u i t 2 2 z [.x.T.c.c.H.Y.",
"Z.S.B.h.P.:X[.& X m y y y y r r t r y g y V 4   , x.S.C.f.E.J.s.",
"C.C.U.I.d.l.%X&X# ;Xv v x s 0 s q q s v b OXm < #XC.S.B.W.f.J.L.",
"h.I.I.g.h.W.D.=Xs # -X< o - c x x q o o @Xm _.|.k.L.c.k.}.k.P.s.",
"I.s.J.J.E.C.D.f e.6.n OXOX8.- : ; w (.-XB > , $XW.h.l.P.}.x.h.J.",
"K.K.J.L.c.C.S., m.M.c wXwXN > ; : w (.dXx d p f D.f.T.c.,X3XW.E.",
"H.I.T.c.z.>XC.p 5.9.4.=X(.n n x c v 8.rX4.N.9.5.% C.T.h.4XyX4Xh.",
"3X,XC.W.c.c.z.Z.# 4.x s e.gXhXM.fXjXdXe c 9.M.5.O >Xh.E.!.!.E.T.",
"7XyXS.C.J.J.L.Z.*X0 s -XfXgXM.~.0.0XjXiXs d 9 9 p.Z.c.h.U.U.h.L.",
"2X#XZ.C.J.J.C.S.*Xs a -XaXiXq.tX^.0XdXaXq g a.p.c.c.P.l.h.I.T.h.",
"}.v.c.c.J.J.A.S.=X< > ).sXeXq.pX/.9XdXaX< > $XB.J.J.P.P.I.I.J.J.",
"l.l.c.C.J.J.V.S.a.X & 2.;XiX0.tX^.qXdX;X& X D.U.y.y.d.C.C.B.c.L.",
"P.L.I.B.H.H.B.C.n.X a a N uXM.M.~.^.rXw q $ S.Y.t.t.j.B.V.B.c.c.",
"L.L.J.H.J.J.I.C.a.O n 7.s $ $ # # % % 7.7.% S.I.s.y.g.I.U.I.c.l.",
"c.h.H.H.H.J.L.Z.$X*X; % *Xa.Z.$X%X%X*X% $ *XZ.C.L.J.I.I.I.H.c.l.",
"A.C.I.J.J.T.>X<XS.S.C.E.B.W.Z.x.x.Z.S.Z.S.c.1X1X>XC.U.Y.g.y.d.L.",
"A.A.I.J.h.R.2X8XS.C.H.K.U.B.Z.Z.v.c.c.c.c.c.2X6X<XC.I.Y.y.u.y.J."
};
