/* XPM */
static char *db6fad443c33423e9adfa4f2aa6a81f3VYchziu8IF9DSYvz[] = {
/* columns rows colors chars-per-pixel */
"32 32 227 2 ",
"   c #020200",
".  c #0D0200",
"X  c #000B03",
"o  c #0E0F09",
"O  c #170505",
"+  c #011003",
"@  c #00140A",
"#  c #061B0C",
"$  c #001718",
"%  c #0F1114",
"&  c #2B0606",
"*  c #30110B",
"=  c #002818",
"-  c #00210D",
";  c #382715",
":  c #20261A",
">  c #381921",
",  c #13322E",
"<  c #3C3627",
"1  c #3F2C37",
"2  c #2B3337",
"3  c #2F2F2D",
"4  c #452418",
"5  c #483428",
"6  c #592833",
"7  c #563133",
"8  c #4E2527",
"9  c #692C3D",
"0  c #673335",
"q  c #733136",
"w  c #1D453A",
"e  c #51402E",
"r  c #58453D",
"t  c #1C3947",
"y  c #333C43",
"u  c #553B4C",
"i  c #3A4545",
"p  c #3B5551",
"a  c #49454B",
"s  c #5C4345",
"d  c #464E58",
"f  c #535353",
"g  c #6A4A4A",
"h  c #6A4447",
"j  c #794642",
"k  c #64554B",
"l  c #6B5659",
"z  c #7A5957",
"x  c #71504D",
"c  c #4F624F",
"v  c #51655B",
"b  c #6B695A",
"n  c #766B5E",
"m  c #63705F",
"M  c #4C5B6F",
"N  c #4B6365",
"B  c #7F736E",
"V  c #646A72",
"C  c #87373E",
"Z  c #94343F",
"A  c #9A3D4A",
"S  c #813F4D",
"D  c #A5394B",
"F  c #A53E53",
"G  c #B33C53",
"H  c #B4394E",
"J  c #84464C",
"K  c #97434D",
"L  c #8D4B52",
"P  c #8A4853",
"I  c #934C54",
"U  c #9A4854",
"Y  c #81585D",
"T  c #97545E",
"R  c #AC4456",
"E  c #A14553",
"W  c #BC4454",
"Q  c #BB4A55",
"!  c #BF5059",
"~  c #AB414F",
"^  c #896D5A",
"/  c #8E5D63",
"(  c #B55466",
")  c #886765",
"_  c #9B6768",
"`  c #957574",
"'  c #926F67",
"]  c #A56867",
"[  c #AD6A73",
"{  c #BC6D76",
"}  c #A87A7A",
"|  c #B9727D",
" . c #B3616F",
".. c #C44A5B",
"X. c #C24555",
"o. c #D55B6E",
"O. c #CC5C71",
"+. c #D35E72",
"@. c #DA5F73",
"#. c #CA5164",
"$. c #DA646E",
"%. c #CC6C7B",
"&. c #C96675",
"*. c #D46474",
"=. c #DC6475",
"-. c #D46B7B",
";. c #DB6B7C",
":. c #DB6877",
">. c #CB717E",
",. c #D6727E",
"<. c #E26374",
"1. c #E2667B",
"2. c #E36C7E",
"3. c #E86B7B",
"4. c #1F9769",
"5. c #2D9771",
"6. c #2FA074",
"7. c #7C877A",
"8. c #47A67E",
"9. c #8F857C",
"0. c #A5847C",
"q. c #5A7799",
"w. c #717795",
"e. c #7D7FA6",
"r. c #83708E",
"t. c #B87D84",
"y. c #CB7081",
"u. c #E26E81",
"i. c #719B87",
"p. c #4AA988",
"a. c #4EB189",
"s. c #53B48C",
"d. c #5AB995",
"f. c #5AAA91",
"g. c #79AE9D",
"h. c #6CB696",
"j. c #65BC96",
"k. c #6DBC96",
"l. c #6BB499",
"z. c #65BD9A",
"x. c #6DBD9B",
"c. c #65B496",
"v. c #7BB395",
"b. c #74BB96",
"n. c #73B59C",
"m. c #7CB69B",
"M. c #73BC9C",
"N. c #79BA9D",
"B. c #76B697",
"V. c #68AB90",
"C. c #6CBDA1",
"Z. c #74BDA2",
"A. c #7ABBA2",
"S. c #74BBAA",
"D. c #79B6A3",
"F. c #5BC098",
"G. c #64C49C",
"H. c #6CC29C",
"J. c #66C79B",
"K. c #72C19C",
"L. c #7CC29F",
"P. c #72C096",
"I. c #6DC2A2",
"U. c #6BC9A1",
"Y. c #73C2A2",
"T. c #7AC3A3",
"R. c #72CAA4",
"E. c #74C5A9",
"W. c #7BC5AB",
"Q. c #7ACBAA",
"!. c #7BC8A6",
"~. c #9A8686",
"^. c #9C8B9B",
"/. c #AD968B",
"(. c #AB9B95",
"). c #B38C88",
"_. c #82AB93",
"`. c #8AAB97",
"'. c #94AD9A",
"]. c #99AD99",
"[. c #84B49E",
"{. c #8BB49C",
"}. c #82BA9D",
"|. c #88B89B",
" X c #99B49F",
".X c #95B19B",
"XX c #A6AD9E",
"oX c #BBA497",
"OX c #B4A28C",
"+X c #84B5A2",
"@X c #82BCA2",
"#X c #87B8A8",
"$X c #8EBCB1",
"%X c #BBA7A5",
"&X c #C68B93",
"*X c #C89A9C",
"=X c #D19A9F",
"-X c #C9A694",
";X c #D4A999",
":X c #CC9BA1",
">X c #D6A7AA",
",X c #CCB7AF",
"<X c #CEB4B3",
"1X c #80C09B",
"2X c #82C3A4",
"3X c #82CCAC",
"4X c #84C5AC",
"5X c #8BC8B4",
"6X c #97C6BB",
"7X c #8CD3B4",
"8X c #87D4B4",
"9X c #95DEBF",
"0X c #F7CDB8",
"qX c #FDD1BC",
"wX c #E9C1B7",
"eX c #90A2CA",
"rX c #F2BFC6",
"tX c #9AD6C2",
"yX c #9BCFC2",
"uX c #A8D3CC",
"iX c #D6C9C3",
"pX c #EAC8C7",
"aX c #F5CCC5",
"sX c #F7D2C4",
"dX c #FBD9DB",
"fX c #F6CECD",
"gX c #E3DBE0",
/* pixels */
"4.6.d.I.Z.M.E.M.[.+XZ.z.R.H.M.M.K.h.R.K.B.B.2XZ.C.I.I.I.M.A.Z.x.",
"5.6.d.z.Q.H.j.Y.[.{.+X}._.{. X.X X.X`._.{.|.B.M.Y.j.x.Y.x.M.x.E.",
"H.z.U.G.8.s.d.Y.@X'.].(.) J I I I L I T (. X2Xx.Y.Y.!.h.Q.x.x.z.",
"M.k.H.R.a.a.J.M.`.b x [ %.;.2.1.1.1.=.%.L k '.m.N.h.N.M.x.R.Y.Y.",
"K.T.M.h.H.j.H.m.XX} { -.2.@.=.=.:.:.1.;.%.t.) XXv.T.Y.!.3X3X8Xk.",
"T.N.N.T.x.L.v.].` { -.#...X...W W Q W ..;.%.[ ' '.}.B.h.3X9XQ.Y.",
"7X7XY.H.M.{.7.7  .O.o...W W ! ! Q ! ..W o.O.&.T * '.@XN.!.Q.k.R.",
"tX7XR.Y.B.# r T ( D G +.:.;.=.$.:.:.*.2.H G R T Y   {.A.x.H.I.I.",
"E.E.x.Z.+X@ l :XfXU %.*.2.=.<.$.<.3.:.:.2.R &XfX).  +Xx.C.Y.x.E.",
"E.z.E.Z.g.# ~.pXdX| %.-.*.:.=.<.<.@.=.;.+.%.>XdX<X  A.I.C.E.Z.S.",
"C.W.l.Z.@X`.9.~.rX| >.>.%.-.:.=.2.*.;.-.-.y.*X<Xv i.c.I.Y.x.S.Z.",
"W.Z.x.E.T.[.f g >X[  .&.%.&.;.*.*.;.-.-.O.( &X(.3 i.c.z.E.Z.M.S.",
"l.Y.I.H.n.{.3 7 t.I F +.=.u.&.-.*.;.&.*.G F _ ` O i A.z.Z.M.Y.z.",
"T.M.z.Y.M.- B ` & P A D ! *.-.,.*.;.&.A R E 6 * ,X  }.Q.h.Y.z.H.",
"M.x.R.j.T.# B } h 0 J I K E D ~ R K U K C q 0 n oXX v.K.H.H.K.K.",
"M.M.K.K.b.|.c 5 g ).6 } ] q A Z C C j ).0 } ' r : `.2Xx.H.H.K.M.",
"k.M.K.b.b.2X{.c 5 :X/ *X0.4 _ ] ] j 5 ,X^ ).' < {.N.Y.I.I.C.Z.N.",
"R.x.M.M.M.h.L._.< ).>XfX/.5 ;X;X;X' e dXoXOXb '.@XI.I.I.I.C.A.N.",
"C.C.I.I.E.x.M.}.`.k oXwXsX0XqXqXsX0X0X0XoXb v.T.M.x.I.C.C.M.M.b.",
"I.E.I.z.H.Y.M.b.{.X r 0.;XqX0X-XpXpX0X-Xk 7.B.H.x.Y.I.C.Z.Y.K.P.",
"I.G.H.H.k.k.k.L.|.X . * 5 ^ -Xx g l l % X `.N.k.K.Y.Z.S.3X3X!.Y.",
"I.z.x.T.M.k.k.b.{.m n k 5 ; x 0.^.w.d i , +Xk.H.x.Y.M.N.3X7XQ.Y.",
"5X5XA.A.M.Y.T.m.# iXpX/.n ; 4 pXgXeXq.q.t #Xf.p.c.S.N.B.2X3XE.C.",
"yXtXA.A.M.x.M.+X+ %X%X4 r sXaXY r.e.q.M $ , p.4.f.Z.T.M.M.M.x.Y.",
"5XW.E.I.I.I.Z.N.{.X   . s pX=X& 9 6 O . l % l.s.x.M.K.H.C.I.Y.H.",
"Z.Z.H.H.H.Y.Z.A.#XX 2 a 1 > / 9 S P h g u o D.I.H.H.J.U.I.I.Y.M.",
"M.x.H.K.M.N.N.A.V.X p i u 1 s u l u s l a $ 4XI.d.s.F.U.I.M.M.A.",
"K.K.H.H.M.N.N.Z.V.@ N d y 2 V V V f 1 a M $ D.z.s.a.d.G.K.M.A.A.",
"S.Z.C.I.I.Y.I.Z.n.+ p N w = A.D.D.#X$ N N @ Y.R.j.c.j.H.K.M.S.S.",
"S.Z.C.I.I.I.I.Y.n.#X= + 2XM.Y.I.S.W.g.@ X #XZ.k.K.M.Y.K.x.x.Z.S.",
"Z.Z.I.H.M.K.!.3XT.Z.n.S.S.Z.A.N.B.k.R.Y.D.+X$X5XW.H.H.H.j.d.z.H.",
"M.Y.I.H.M.T.7X9XT.Z.Z.E.C.Z.@Xm.}.h.J.U.M.#X6XuXW.H.H.H.d.p.s.J."
};
