/* XPM */
static char *_7b23d9d3df24588b6e26c92bbb4e4d0rSdwSwklei5CT6Z4[] = {
/* columns rows colors chars-per-pixel */
"32 32 222 2 ",
"   c #010201",
".  c #02050D",
"X  c #000B0E",
"o  c #030A05",
"O  c #1A0703",
"+  c #00160A",
"@  c #171707",
"#  c #000314",
"$  c #030A15",
"%  c #001917",
"&  c #1B1612",
"*  c #2B1813",
"=  c #331917",
"-  c #2A0B08",
";  c #072614",
":  c #1B2515",
">  c #31231A",
",  c #000725",
"<  c #0D1A28",
"1  c #281B22",
"2  c #1E2C21",
"3  c #0C2B37",
"4  c #3C392C",
"5  c #25353E",
"6  c #292F25",
"7  c #673B3D",
"8  c #114036",
"9  c #1D3947",
"0  c #2A3947",
"q  c #353949",
"w  c #363B52",
"e  c #202F44",
"r  c #4C3C45",
"t  c #463A44",
"y  c #5A3A4B",
"u  c #5D3D52",
"i  c #413C50",
"p  c #7A3E45",
"a  c #603F54",
"s  c #36414A",
"d  c #32425C",
"f  c #3B4359",
"g  c #2E4A51",
"h  c #394861",
"j  c #2C4F72",
"k  c #174952",
"l  c #574849",
"z  c #484955",
"x  c #524D56",
"c  c #785655",
"v  c #674E53",
"b  c #465266",
"n  c #51576A",
"m  c #485975",
"M  c #515D7B",
"N  c #505F74",
"B  c #5D6265",
"V  c #727273",
"C  c #6B696D",
"Z  c #715B70",
"A  c #B8363E",
"S  c #893E47",
"D  c #9C3E52",
"F  c #913F45",
"G  c #AD3C49",
"H  c #BB3641",
"J  c #B43C44",
"K  c #B93C42",
"L  c #B8394A",
"P  c #AA3B54",
"I  c #B23A54",
"U  c #B73853",
"Y  c #C33F56",
"T  c #864747",
"R  c #98454A",
"E  c #884D54",
"W  c #994656",
"Q  c #835454",
"!  c #8D5B5E",
"~  c #98575B",
"^  c #A8424B",
"/  c #BC434E",
"(  c #A34154",
")  c #AB4158",
"_  c #BC4552",
"`  c #BB4957",
"'  c #A6595F",
"]  c #947270",
"[  c #BC6872",
"{  c #C44C59",
"}  c #C34756",
"|  c #C65367",
" . c #D6586C",
".. c #D95D74",
"X. c #D6666D",
"o. c #CA6B74",
"O. c #D36273",
"+. c #DC647A",
"@. c #DC697B",
"#. c #D96677",
"$. c #C5727A",
"%. c #CD7379",
"&. c #E1677D",
"*. c #1C9C6B",
"=. c #2AA173",
"-. c #26956A",
";. c #6B9A7A",
":. c #4BA67B",
">. c #8B8C7E",
",. c #A4817A",
"<. c #3F668D",
"1. c #485D83",
"2. c #505F85",
"3. c #456285",
"4. c #596489",
"5. c #4D6695",
"6. c #526F8F",
"7. c #697388",
"8. c #78788C",
"9. c #687699",
"0. c #5773A8",
"q. c #4F70AE",
"w. c #747BA5",
"e. c #6C7EB7",
"r. c #6475A9",
"t. c #8C7D84",
"y. c #D37680",
"u. c #E46982",
"i. c #4CAB88",
"p. c #52AC85",
"a. c #57B48D",
"s. c #5CBB97",
"d. c #63B58B",
"f. c #6DB593",
"g. c #6CBA95",
"h. c #6EB699",
"j. c #66BC9A",
"k. c #6CBC9B",
"l. c #65B895",
"z. c #73B395",
"x. c #73BC97",
"c. c #72B69B",
"v. c #7CB69C",
"b. c #73BD9C",
"n. c #7BBB9C",
"m. c #7DB896",
"M. c #6FAE8D",
"N. c #7683B7",
"B. c #738AB0",
"V. c #6CBDA4",
"C. c #6CB9A4",
"Z. c #7BB6A4",
"A. c #73BEA3",
"S. c #7BBDA3",
"D. c #76BAA9",
"F. c #72B9B1",
"G. c #5FC69E",
"H. c #64C39D",
"J. c #6CC29D",
"K. c #69C395",
"L. c #72C19C",
"P. c #7DC09C",
"I. c #74C499",
"U. c #67C3A5",
"Y. c #6CC3A2",
"T. c #6EC5A7",
"R. c #73C3A3",
"E. c #7AC3A3",
"W. c #73C3AB",
"Q. c #7DC5AA",
"!. c #77C9A9",
"~. c #73CAB3",
"^. c #748DC8",
"/. c #8C8B87",
"(. c #858798",
"). c #919098",
"_. c #BB9D9B",
"`. c #B89A96",
"'. c #A28081",
"]. c #8BAC98",
"[. c #99A896",
"{. c #84B59A",
"}. c #89B69A",
"|. c #91B398",
" X c #A6A59B",
".X c #888EAA",
"XX c #9393A9",
"oX c #9496B7",
"OX c #8190B7",
"+X c #85ABA9",
"@X c #83BBA3",
"#X c #85B6A9",
"$X c #94B8A4",
"%X c #88B7B7",
"&X c #96A5BA",
"*X c #C1A5A9",
"=X c #ECBFBC",
"-X c #81C2A9",
";X c #87C8AA",
":X c #89CAB3",
">X c #88D3B3",
",X c #94D6BA",
"<X c #92C9B6",
"1X c #A0D8BD",
"2X c #E0C9B9",
"3X c #829CD7",
"4X c #8291C4",
"5X c #82B8C1",
"6X c #98ABD3",
"7X c #A2BAFA",
"8X c #ACA8C9",
"9X c #9CD8C3",
"0X c #BCC6EA",
"qX c #BECBF6",
"wX c #A2C0F6",
"eX c #DBD1C5",
"rX c #D1C6C4",
"tX c #C4C8E8",
"yX c #CBD6F3",
"uX c #DEEAF9",
"iX c #E4ECFF",
"pX c #EED0CE",
/* pixels */
"*.=.s.J.R.k.k.Y.U.G.H.E.[._._.`._.`._. X@Xk.k.A.S.b.V.R.b.b.R.k.",
"=.-.H.J.k.R.R.k.L.b.{.[.c Q Q Q Q ! Q v [.}.v.S.c.E.R.k.Q.b.R.Y.",
"G.s.Y.J.i.p.g.@X}.[.c ' y.o.o.$.%.o.$.$.~ c [.{.L.j.U.k.A.b.k.Y.",
"H.T.J.j.a.:.x.}.[.,.o.+...X.#.X.#.X.X.#.O.[ ,.[.n.J.k.!.b.Q.R.Y.",
"R.k.R.J.g.L.n.[.] %.O.O.{ { { _ / { ` ` @.O.$.] [.}.n.z.:X;X>Xj.",
"-Xh.L.J.L.n.].> [ | ..| _ ` / { { / { _ | ..| [ * ].m.P.>X,X>XR.",
"<X>XJ.!.g.}.* E ) I ) | @.O.u.+.+.&.#.u.` I U P W - $Xg.b.E.h.L.",
",X,XR.j.R.].= W P u.@.O.#.@.+.+.+.+.+.+.@.+...I W - {.R.b.L.b.b.",
"@X-Xk.U.J.{.* W P U ....@.+.@.#.#.@.@.+.&. .U P E @ n.K.k.R.b.A.",
"Z.n.!.J.j.@X X- ( L Y } } _ _ _ } _ _ ` } U L R = ].L.J.R.l.Q.k.",
"S.h.E.k.J.x.|.O ^ L J K H A K K A A A J H H _ R   M.d.H.R.k.R.R.",
"A.E.c.R.J.b.|.- F G G J A H K A A H K J J J ^ T @ ;.f.J.R.R.j.V.",
"T.l.h.R.J.n.4 `.T F ^ ^ L L L L L L L L G ^ F T _.: z.j.j.T.Y.Y.",
"J.!.E.x.n.].4 _.7 7 p S W D D ( W D W D S p 7 7 *X& -XJ.k.R.k.Y.",
"J.l.b.n.].6 O = & l r r l u u a u u y u r l l & 2 ].v.b.R.k.k.R.",
"K.L.L.}.>.c r 1   V B z z i w w w f q z z B C   $X@Xn.c.R.L.L.J.",
"K.J.P.|.2X=X*Xx $ /.V x x q h h f f q z v ] /.2 @Xc.S.E.b.L.K.J.",
"J.J.g.}.eX'.Z (.n $ 8.7.# # m m M f . . ).t.V ].S.R.c.b.h.k.Y.J.",
"J.j.!.C.% . 3 9.3.j 0.r.2.0X# $ # < &Xw 8XoXh % v.b.b.E.V.W.R.J.",
"R.k.T.W.D.%X5X3 j 0.^.q.5.6X0 5 e d b d oXN.3.3.8 @XA.A.D.C.A.L.",
"x.b.R.R.V.V.C.F.5Xj q.0.1.7.).(.B.2..X.Xw.4.3.B.0 +XD.D.D.,XP.z.",
"S.n.f.b.J.T.U.V.D.k 3.5.m n uXyX6X4XyXiX9.M 1.6.8.0 #XA.:X9X;XP.",
"<X;X;Xn.x.I.d.J.S.Z.%Xd f tXiXOXN.e.e.uXtX.Xq t c rX{.k.!.!.E.z.",
"9X9Xn.b.I.g.I.L.b.S.+Xg b tXqX4X3X7Xe.qX0XXXr l pXeX}.J.k.Y.b.E.",
":XQ.R.J.L.b.b.A.E.c.@X+ < tXqX^.3XwXN.0XtX8.. o : ; n.J.J.J.L.K.",
"A.A.Y.J.L.L.A.A.j.Q.m.+ 5 B.0XN.N.3Xw.tXXXb 1 o $X{.E.k.R.J.j.J.",
"k.J.H.J.k.x.b.k.s.a.m.; s w &X9.5.5.4.oXz s s o z.d.p.J.Y.A.R.A.",
"U.Y.Y.J.b.b.x.J.i.i.z.; q f # $ , , $ # 0 s 0 X d.:.g.!.V.V.W.k.",
"U.Y.A.A.A.b.L.J.s.a.@X3 V 7.X %XD.%X+XX N 7.M $ g.d.z.z.D.V.J.J.",
"Y.V.n.n.A.R.b.L.T.W.c.#X% % #XZ.b.h.@X#Xg % 9 +XA.!.c.v.W.Y.K.K.",
"L.b.n.n.V.T.-X;XA.D.W.k.S.S.h.R.b.E.k.b.c.-X#X:XW.T.k.E.s.a.K.I.",
"b.b.m.x.U.~.:X1X-XA.V.U.k.R.J.k.R.g.I.K.K.L.>X,X~.U.W.Y.a.:.d.I."
};
