/* XPM */
static char *_53846b51e6642a0c400919dce96ab16CHZmBMmlBK3dT2oX[] = {
/* columns rows colors chars-per-pixel */
"32 32 228 2 ",
"   c #040301",
".  c #0C0000",
"X  c #000A05",
"o  c #030B0B",
"O  c #130200",
"+  c #1C0E05",
"@  c #00150D",
"#  c #061A06",
"$  c #191A0A",
"%  c #000C10",
"&  c #001714",
"*  c #171A16",
"=  c #250102",
"-  c #210416",
";  c #1A2317",
":  c #103116",
">  c #23291D",
",  c #040F28",
"<  c #061733",
"1  c #161E31",
"2  c #2F1D2D",
"3  c #14312C",
"4  c #242C2F",
"5  c #342A28",
"6  c #38352B",
"7  c #332F3E",
"8  c #393837",
"9  c #2C2F38",
"0  c #543233",
"q  c #4F3631",
"w  c #6A3C3E",
"e  c #79383E",
"r  c #11443F",
"t  c #354A3B",
"y  c #484A3C",
"u  c #544431",
"i  c #664A3E",
"p  c #30394A",
"a  c #39396D",
"s  c #44394A",
"d  c #733C42",
"f  c #16464B",
"g  c #394657",
"h  c #2E5B55",
"j  c #3A5766",
"k  c #2D486B",
"l  c #366473",
"z  c #594B46",
"x  c #564758",
"c  c #4F5452",
"v  c #7A4849",
"b  c #7B5A5B",
"n  c #785859",
"m  c #704D4F",
"M  c #68685C",
"N  c #77645A",
"B  c #6E634F",
"V  c #425E68",
"C  c #505B7B",
"Z  c #765767",
"A  c #77666A",
"S  c #707170",
"D  c #973944",
"F  c #8B3B48",
"G  c #A43A4A",
"H  c #B43C4D",
"J  c #A73D52",
"K  c #B93E52",
"L  c #864749",
"P  c #95414E",
"I  c #8E4951",
"U  c #974854",
"Y  c #845F5B",
"T  c #96535D",
"R  c #80534E",
"E  c #B3424C",
"W  c #A64554",
"Q  c #BC4355",
"!  c #BB465B",
"~  c #B44557",
"^  c #AA4146",
"/  c #8A665B",
"(  c #9D5D63",
")  c #B65A68",
"_  c #956D69",
"`  c #9E7873",
"'  c #927068",
"]  c #AD6A72",
"[  c #B76A74",
"{  c #AE6D70",
"}  c #C54A5C",
"|  c #CC4B62",
" . c #C85964",
".. c #D5586B",
"X. c #D65E71",
"o. c #DB5E73",
"O. c #C85F70",
"+. c #E05A72",
"@. c #D5646F",
"#. c #C96878",
"$. c #D46374",
"%. c #DB6475",
"&. c #D56974",
"*. c #DA6A75",
"=. c #D6667A",
"-. c #DC667A",
";. c #D6697A",
":. c #DC6B7B",
">. c #CF616C",
",. c #E2657C",
"<. c #E3707F",
"1. c #1B9F6D",
"2. c #258E65",
"3. c #0DA26A",
"4. c #28A575",
"5. c #3FA67B",
"6. c #748976",
"7. c #42B17C",
"8. c #92807C",
"9. c #AA8A76",
"0. c #B88E7B",
"q. c #575A8F",
"w. c #727AB5",
"e. c #7D7BAC",
"r. c #856C93",
"t. c #B97A84",
"y. c #DA6E81",
"u. c #C97B86",
"i. c #E36D82",
"p. c #3EA882",
"a. c #609C82",
"s. c #4EB389",
"d. c #54B68A",
"f. c #5BBD93",
"g. c #5BB694",
"h. c #4DA88B",
"j. c #65A18A",
"k. c #6AAF9A",
"l. c #6CB595",
"z. c #65BC94",
"x. c #6CBB96",
"c. c #63BD9B",
"v. c #6CBC9C",
"b. c #63B695",
"n. c #75B596",
"m. c #7DB494",
"M. c #7CB59B",
"N. c #73BC9C",
"B. c #79BB9D",
"V. c #76BB96",
"C. c #77AF8F",
"Z. c #7380AA",
"A. c #6DBDA2",
"S. c #6EBCAA",
"D. c #67B5A2",
"F. c #73BDA2",
"G. c #7BBDA3",
"H. c #73BEAA",
"J. c #7BB6A5",
"K. c #56C291",
"L. c #6CC395",
"P. c #65C39D",
"I. c #6CC29C",
"U. c #6AC99E",
"Y. c #72C29D",
"T. c #78C59E",
"R. c #6DC2A3",
"E. c #6CC6A6",
"W. c #73C2A3",
"Q. c #7BC3A4",
"!. c #72C9A5",
"~. c #7BCAA4",
"^. c #74C2A9",
"/. c #7BC4AB",
"(. c #7CCDAB",
"). c #79C6B2",
"_. c #7ED2AE",
"`. c #8F9392",
"'. c #B9858B",
"]. c #A49C92",
"[. c #B89A95",
"{. c #A58D87",
"}. c #8AAB95",
"|. c #95AE99",
" X c #99AA97",
".X c #84B59C",
"XX c #8DB39C",
"oX c #82B99D",
"OX c #87B69B",
"+X c #96B29A",
"@X c #86A48A",
"#X c #B7AA94",
"$X c #A9A298",
"%X c #8FAFA2",
"&X c #84B6A1",
"*X c #83BCA1",
"=X c #82B6A8",
"-X c #97B7A4",
";X c #80B8B5",
":X c #B9B1AB",
">X c #C79C9B",
",X c #C6808A",
"<X c #D3A896",
"1X c #DDB096",
"2X c #C5A292",
"3X c #E3B69B",
"4X c #C4A5A5",
"5X c #D7B7B9",
"6X c #D1B2AD",
"7X c #86C7A9",
"8X c #8DCDB2",
"9X c #8BC8B4",
"0X c #8CD4B8",
"qX c #9AD7BB",
"wX c #89CFAF",
"eX c #D7C9BE",
"rX c #FED0AF",
"tX c #F8CEB6",
"yX c #FAD2B8",
"uX c #ECCEB5",
"iX c #AC9FCB",
"pX c #E2BEC0",
"aX c #9BDBC3",
"sX c #E7D5C2",
"dX c #FBD6D9",
"fX c #FCD0C8",
"gX c #F7DCEC",
"hX c #FFE3E8",
/* pixels */
"3.4.c.N.G.G.v.F.B.B.W.I.U.I.Y.N.V.T.V.N.I.U.l.Q.R.W.G.B.G.F.v.R.",
"1.4.g.Q.l.l.W.W.G.M.B.M.OXXX|.|.+X|. X|.*XB.G.B.Q.N.B.Q.F.R.v.R.",
"f.P.!.b.d.d.c.N.B.OX-X$Xv I U I I I P T ].|..XG.l.N.G.l.W.P.I.P.",
"Y.Y.N.I.s.5.I.N.OXS n ( y.X.%.-.=.-.,.=.( N 6.XX7XB.N.W.v.!.I.W.",
"Y.N.n.Q.z.U.z.oX X_ ) $.,.X.:.*.$.<.o.X.#.[ ` ].OXN.v.N.wX8X8Xn.",
"/.B.B.B.N.x.V.|.b u.:.+.| X.}  . . .....$.$.[ Y |.B.Q.l.8XqX7XG.",
"7XqX7XB.N.B.6.+ [ $.X.| } H E ^ E E Q K ..%.;.[ O XX*XN.G.G.F.W.",
"aX0XG.F.v.oX; n U J H } o.,.*.&.*.%.%.%.Q H J U n # m.Q.B.N.(.b.",
"^.W./.l.W.&X5 t.dXW O.$.-.%.@.:.*.*.@.$.;.) ) dX{.* oXN.Q.N.F.A.",
"^.A.A.W.v.*X8 5XhX] #.y.$.:.*.>.&.$.:.:.;.#.,XdX5X; M.W.l.F./.F.",
"F.A.F.F.F.*X-X XdX'.#.;.-.%.:.&.&.:.%.$.;.#.u.dX`.j.R.P.R.v.F.F.",
"v.^.^.F.N.B.}.z 5Xt.#.$.i.%.;.;.;.:.%.-.=.#.t.pXt a.g.E.v.Q.N.N.",
"W.v.l.v.!.B.8 = >XT J | ..-.;.$.:.X.-.-.! J ] [.  t N.c.N.Q.l.W.",
"I.Y.W.v.c.n.q '.= L W G ! i.>.:.$.:.-.~ J U d = 4X; M.Y.Q.l.Y.Y.",
"N.N.Y.Y.N.*X6 [.0 w e P J W ! ! ! ~ W W P e w 0 4X$ -XV.x.T.I.z.",
"N.N.Y.x.T.OX:XM z N v L ] F D G D D F ] v v R m N M .XV.Y.I.v.Y.",
"W.v.v.W.N.*X-X> u [./ Y #X0 L L L R 0 4Xb _ 0.u > m.G.v.W.W.N.W.",
"W.^.^.l.Y.l.oX-X  #X2XuXeX. 2X<X<X9.. gX5X>X9.  C.~.v.W.N.l.N.F.",
"A.A.N.N.L.I.!.l.}.B 9.1XtXyXtXyXrXrXfXfX>X` N +X~.P.v./.N.N.Y.x.",
"E.W.B.Q.Y.z.P.W.XX$ i _ <XtXtX1X3XrXtX<X/ ].}.oXv.P.W.N.N.Y.I.L.",
"U.z.Q.B.x.~.v.J.%Xo x A Y 9.3X0.` 0.9.B y @Xn.v.W.Y.N.N.(._.W.!.",
"v.W.F.B.Q.N.B.&X; 5 `.S O 0 <X_ b x x * 3 oX!.P.I.l.B.Q.wX0X_.E.",
"8X0XH./.v.N.M.# sXsX:XA . O hXgXiXa q.Z.< ;Xh.p.c.^.F.N.x.(./.H.",
"qX0X/.H.l.Q.M.# #X#X6 y sXsXZ r.e.w.w.k , & h.2.h.^.N.W.Y.Q.F.H.",
"~.Q.G.J.F.F.H.&X# $   z sX4X- x p , < C p : z.s.v.F.F.F.l.Y.W.F.",
"L.N.F.G.N.F.H.G.XX@ 1 x 8.' 2 s 8 4 1 g V 3 N.L.I.A.^.^.F.N.Y.Y.",
"N.N.F.F.L.L.v.F.C.@ k j g 9 7 7 8 4 p j V r A.E.g.g.D.H.F.v.L.L.",
"W.W.F.v.L.L.v.F.j.& f l j o o X X X % V j r A.P.s.s.g.S.S.I.L.L.",
"N.N.N.N.Y.Y.R.S.k.k.h # : n.V.N.G.M.=X@ X J.W.U.K.f.c.A.E.R.L.L.",
"N.N.N.N.Y.W.H.H.^.N.m.m.B.Q.Y.L.v.F.J.J.=XG.x.I.U.P.W.W.I.P.I.L.",
"F.F.R.R.I.W./.7Xx.T.n.B./.D.Q.x.N.W.H.H.F.l.7XwX/.G.G.W.f.d.c.W.",
"F.F.E.R.v.Q.8XqXT.L.B.V.S.).G.G.N.v.H.R.v.~.7XqX9X=XJ.N.d.7.g.W."
};
