/* XPM */
static char *_5fbf026f8544ac2f25b6a097ba537e1DJhlLvZo2gnH6ozI[] = {
/* columns rows colors chars-per-pixel */
"32 32 219 2 ",
"   c #000B00",
".  c #070404",
"X  c #110000",
"o  c #1D0100",
"O  c #001A08",
"+  c #00051A",
"@  c #040918",
"#  c #00141A",
"$  c #240704",
"%  c #381916",
"&  c #20190F",
"*  c #15291B",
"=  c #00271B",
"-  c #232214",
";  c #031322",
":  c #0D1632",
">  c #072A29",
",  c #323526",
"<  c #2E3D36",
"1  c #5B3E39",
"2  c #41293F",
"3  c #693C3A",
"4  c #3B4835",
"5  c #434839",
"6  c #554239",
"7  c #173650",
"8  c #263A4D",
"9  c #353B4B",
"0  c #373D48",
"q  c #353E56",
"w  c #4A3B4A",
"e  c #4C3549",
"r  c #513749",
"t  c #553C52",
"y  c #783A45",
"u  c #174253",
"i  c #39564C",
"p  c #2A4A55",
"a  c #344558",
"s  c #385052",
"d  c #394F67",
"f  c #395974",
"g  c #2F5367",
"h  c #4B484B",
"j  c #46485B",
"k  c #4B544F",
"l  c #794649",
"z  c #7F4E51",
"x  c #705454",
"c  c #49635A",
"v  c #474862",
"b  c #5B5763",
"n  c #555462",
"m  c #4F5574",
"M  c #4D5A6E",
"N  c #685E69",
"B  c #556472",
"V  c #686879",
"C  c #6D7173",
"Z  c #973E4C",
"A  c #973F53",
"S  c #AE3946",
"D  c #AD3B4B",
"F  c #A83745",
"G  c #BD3349",
"H  c #B43A4B",
"J  c #BA3A4E",
"K  c #B63447",
"L  c #BA3B50",
"P  c #B33C52",
"I  c #A53E51",
"U  c #C1344B",
"Y  c #864345",
"T  c #91424E",
"R  c #98434B",
"E  c #984552",
"W  c #985159",
"Q  c #875357",
"!  c #A7424E",
"~  c #A74655",
"^  c #BA4051",
"/  c #A1515A",
"(  c #A15B63",
")  c #B55A69",
"_  c #937D79",
"`  c #936668",
"'  c #B8747D",
"]  c #B66C78",
"[  c #C6475B",
"{  c #CA5365",
"}  c #C8576B",
"|  c #D55A6D",
" . c #DB5C72",
".. c #D45E72",
"X. c #CD4D63",
"o. c #D3636D",
"O. c #C76879",
"+. c #D56473",
"@. c #DB6374",
"#. c #D66974",
"$. c #DC6A75",
"%. c #DC667A",
"&. c #D5697B",
"*. c #DB6B7B",
"=. c #E26677",
"-. c #279D6D",
";. c #2F9D70",
":. c #70927B",
">. c #94857C",
",. c #586A86",
"<. c #546892",
"1. c #5C7696",
"2. c #677E97",
"3. c #6F7489",
"4. c #6879A2",
"5. c #737BAE",
"6. c #917A84",
"7. c #B17D81",
"8. c #DD7085",
"9. c #5E9D94",
"0. c #7C828C",
"q. c #44AD86",
"w. c #59AE85",
"e. c #4FB48C",
"r. c #5AB48D",
"t. c #59BC96",
"y. c #4CB999",
"u. c #68B88D",
"i. c #7CAB95",
"p. c #65B495",
"a. c #65BB96",
"s. c #6BBC94",
"d. c #6CB69A",
"f. c #65BD9A",
"g. c #6CBC9C",
"h. c #6DB593",
"j. c #73BD95",
"k. c #73B59B",
"l. c #73BC9C",
"z. c #7BBB9C",
"x. c #7AB897",
"c. c #69AE93",
"v. c #7A8BBA",
"b. c #6D85B1",
"n. c #6DBDA3",
"m. c #6DBEAA",
"M. c #6CB6A1",
"N. c #73BDA2",
"B. c #7ABDA1",
"V. c #73BDAA",
"C. c #78B6A5",
"Z. c #7AB8B4",
"A. c #7AABA7",
"S. c #5BC69C",
"D. c #6DC394",
"F. c #66C29C",
"G. c #6CC29D",
"H. c #67C798",
"J. c #71C296",
"K. c #73C29C",
"L. c #7AC09E",
"P. c #6CC3A2",
"I. c #6CC2AA",
"U. c #6DC9A4",
"Y. c #74C2A3",
"T. c #7AC3A4",
"R. c #73CAA5",
"E. c #74C3AB",
"W. c #7BC4AA",
"Q. c #78CAA8",
"!. c #75CAB2",
"~. c #7789C3",
"^. c #7E96D6",
"/. c #9D8D84",
"(. c #8E9293",
"). c #BC9E96",
"_. c #8AAD95",
"`. c #98AB98",
"'. c #83B296",
"]. c #83B59C",
"[. c #8BB39A",
"{. c #82BB9C",
"}. c #89B89B",
"|. c #93B39C",
" X c #9CB19B",
".X c #A9A49A",
"XX c #8D93A4",
"oX c #80BCA3",
"OX c #84B6AB",
"+X c #8AB9A7",
"@X c #8BB6B2",
"#X c #99B2A5",
"$X c #ACABB3",
"%X c #C5A49F",
"&X c #81C19F",
"*X c #83CBAD",
"=X c #84C5A5",
"-X c #8BCBB5",
";X c #90CBB6",
":X c #89D1B4",
">X c #96D4B9",
",X c #97D5B7",
"<X c #86D0AF",
"1X c #869AC6",
"2X c #99ADD3",
"3X c #B6BDCF",
"4X c #B1B7CB",
"5X c #8A9CE6",
"6X c #A1B3F5",
"7X c #97AFEB",
"8X c #98DAC5",
"9X c #BAC7DD",
"0X c #B5C4E4",
"qX c #C8C8DB",
"wX c #C5C7E6",
"eX c #D4D9F9",
"rX c #D7E8FF",
"tX c #E0EAFF",
"yX c #EAF1FF",
/* pixels */
"-.-.S.F.P.Y.k.B.l.K.G.F.H.G.D.j.K.s.D.D.R.f.F.R.l.B.B.N.P.P.g.N.",
";.;.t.U.a.d.B.B.g.l.j.{.[.[.|._._. X|.[.].z.G.f.Q.l.k.T.f.P.g.T.",
"t.f.Q.t.e.r.f.Y.Q.h.[..XQ W W ( / / W Q .X|.l.U.a.Y.Y.g.U.P.T.g.",
"R.g.f.P.e.q.U.g.z.[.>.7.}  ...{ } | +.O.' /.|.z.T.G.g.T.d.Q.Y.g.",
"G.G.d.Q.f.U.G.{.`.` ( ) %.@.%.*.&.*.+.&.) ( ` .X].g.d.l.*X:X:Xg.",
"T.Y.B.B.g.h.x.`.x ' &.+.%.@.@.@.&.} &.+.+.&.O.l `.z.T.g.:X8XW.T.",
";X>Xz.l.l.oX:.X ] 8.%.| F ^ S J ^ S L J @.@.8.] X `.z.l.T.Y.d.T.",
">X>XB.T.g.].- z ~ P J [ @.$.@. . .=.=. .[ L D ~ Q & i.Y.G.P.W.l.",
"T.Y.T.G.G.'.% E D |  .| @.$.@.$.@.$.$.+.| ..{ I E $ [.Y.G.P.N.Y.",
"Y.T.a.G.G.[.% R P X.@.=.@.#.+.o.+.+.@.$.$.@.{ ~ T $ +Xf.U.U.g.l.",
"l.l.Y.G.R.x., Y I J { @.o.o.#.o.+.@.o.o.| [ J Z z * w.H.F.f.W.l.",
"B.l.P.G.s.{.`.o ~ K H L H S D F S H H H J H K ~ X :.a.H.G.l.N.l.",
"oXl.G.G.j.}. Xo E H K K G G H D H L U G H D D E X _.&Xs.T.Y.k.B.",
"l.N.U.G.z.'.5 _ Z ! H H U G S ^ D H U G ! ! R Y >.4 i.z.l.l.W.l.",
"G.R.f.Y.h.[.5 ).3 Y R I H H S H D H J J ! T l 3 %X- }.j.l.g.P.G.",
"I.f.P.Y.T.+X4 /.6 1 3 l T R E Z T Z A A y 3 1 6 /., }.s.K.U.f.U.",
"m.I.R.G.g.oX+X    k h w r r e e e w t 2 w h h     '.{.j.G.P.n.N.",
"V.n.g.g.W.N.B.z.  #XV j b 9 q a a a 9 B n 3.(.  ].=Xx.j.f.F.T.N.",
"K.D.K.l.V.W.p.T.+X* 0.C @ @ M f f d ; . _ _ C #XoXp.l.Y.R.G.g.j.",
"D.u.s.Q.M.E.I.N.OXs V 3.b j 8 7 7 8 j N 6.x k [.k.!.E.n.F.F.j.T.",
"K.T.s.K.N.M.m.Z.u b.<.5.qXXX; ; + : XXwX3.q 8 @XOXC.M.E.Q.*X=Xz.",
"j.K.g.d.R.Q.n.V.g 4.<.4.3X9 a a q a a 9X1.<.,.. @XB.E.E.<X,X-XB.",
",X=XQ.R.F.f.s.T.A.d m m v yXrX1X2XrXrXa f 1.0.$Xi ].W.p.T.=XB.C.",
",X>XV.I.F.U.D.j.+Xs 9 V 3XtX~.~.b.1XtX3XM a b $XO {.N.G.D.D.N.V.",
"=X=XV.m.I.P.D.j.'.c 0 V qXeX5.5X^.v.eXqXB 0 h k '.j.V.g.H.H.U.n.",
"x.l.N.V.I.P.J.x.].i 0 B 4X9Xv.6X7Xv.wX$Xj 9 < |.x.g.T.T.H.H.G.P.",
"N.N.N.N.n.g.j.z.A.# + : a 9X2.0X2Xv.wXv ; + @Xl.u.r.d.V.l.j.G.I.",
"E.N.N.l.l.j.j.l.9.> d 1.B # @ @ ; + + ,.2.p C.Y.w.w.p.l.j.j.P.I.",
"I.n.j.x.j.J.J.D.p.k.p # > i.OXZ.Z.Z.OX= O oXz.x.u.u.s.D.J.K.Y.n.",
"P.G.j.j.j.K.K.K.K.Y.OX+X].oXN.n.V.V.k.z.T.k.z.z.K.K.D.G.D.F.Y.N.",
"G.G.K.l.m.E.W.*XG.G.N.l.l.Y.W.N.l.K.g.Y.l.N.-X*XE.I.Y.P.t.t.a.K.",
"F.G.K.g.m.!.-X8XQ.f.P.P.H.F.g.N.j.D.K.f.Y.N.;X8X!.I.m.I.y.q.r.K."
};
