/* XPM */
static char *die1709309887[] = {
/* columns rows colors chars-per-pixel */
"32 32 131 2 ",
"   c #2A2C2D",
".  c #282D31",
"X  c #333636",
"o  c #3C3A36",
"O  c #343A3C",
"+  c #3B3B3A",
"@  c #1B4F3E",
"#  c #3C4239",
"$  c #4C4337",
"%  c #43443B",
"&  c #47493C",
"*  c #52453A",
"=  c #53483A",
"-  c #5B4E3E",
";  c #5D503C",
":  c #62523E",
">  c #313B40",
",  c #3C4349",
"<  c #205241",
"1  c #3D584A",
"2  c #3D5A51",
"3  c #317659",
"4  c #37785D",
"5  c #484540",
"6  c #4F4D43",
"7  c #485548",
"8  c #47594C",
"9  c #5C5345",
"0  c #435D54",
"q  c #545F50",
"w  c #625543",
"e  c #695642",
"r  c #655946",
"t  c #6E5B44",
"y  c #665B4A",
"u  c #695E4A",
"i  c #715C45",
"p  c #765F48",
"a  c #785F48",
"s  c #42675E",
"d  c #486A5E",
"f  c #566555",
"g  c #566B5B",
"h  c #5D6D5B",
"j  c #74624A",
"k  c #7C644C",
"l  c #666653",
"z  c #6A6954",
"x  c #736651",
"c  c #786652",
"v  c #7E6D52",
"b  c #536C66",
"n  c #556E68",
"m  c #596E6A",
"M  c #477D68",
"N  c #4C7F6D",
"B  c #54766D",
"V  c #5E7870",
"C  c #63776C",
"Z  c #617B72",
"A  c #80664D",
"S  c #81694F",
"D  c #846C51",
"F  c #896F53",
"G  c #837155",
"H  c #8C7255",
"J  c #857358",
"K  c #8D765A",
"L  c #8C785B",
"P  c #937B5D",
"I  c #937D61",
"U  c #25966A",
"Y  c #2D9A6F",
"T  c #17A067",
"R  c #1FA36D",
"E  c #27A672",
"W  c #3DAF7E",
"Q  c #4F836E",
"!  c #51826E",
"~  c #4E8471",
"^  c #548672",
"/  c #598A76",
"(  c #548B78",
")  c #5D8978",
"_  c #5C957E",
"`  c #688178",
"'  c #678D7F",
"]  c #6A8C7F",
"[  c #99805F",
"{  c #9C8463",
"}  c #9F8864",
"|  c #9F8769",
" . c #A18A66",
".. c #A48B6A",
"X. c #A98F6E",
"o. c #AA916D",
"O. c #A98F70",
"+. c #AA9070",
"@. c #B19772",
"#. c #B99E77",
"$. c #5B9781",
"%. c #549E82",
"&. c #658E82",
"*. c #619C84",
"=. c #6C9D89",
"-. c #49B386",
";. c #4CB488",
":. c #56B78F",
">. c #5BB791",
",. c #5CB992",
"<. c #61A48A",
"1. c #64AB8F",
"2. c #64AC91",
"3. c #66B193",
"4. c #68B194",
"5. c #63BC97",
"6. c #66BC99",
"7. c #6DBE9D",
"8. c #6FC09F",
"9. c #6FC0A0",
"0. c #70C0A0",
"q. c #79C3A6",
"w. c #7FC5AA",
"e. c #83C6AD",
"r. c #87C8AF",
"t. c #8CC9B3",
"y. c #91CBB6",
"u. c #94CCB8",
"i. c #9ACEBC",
"p. c #9FD0BF",
"a. c #A3D1C2",
/* pixels */
"T R 6.0.0.9.9.9.8.8.8.0.0.8.8.8.0.0.0.0.0.0.0.0.0.0.8.0.0.0.0.0.",
"R E 6.9.7.8.9.0.8.8.0.0.0.0.8.8.0.0.8.0.0.8.8.0.0.0.0.0.0.0.0.8.",
"6.6.8.8.;.-.6.7.<._ _ _ <.1._ _ _ $.1.<._ _ _ $.4.8.0.0.0.0.0.0.",
"0.0.0.7.-.-.6.*.g l z z l n z z z z h f z z l q / 7.0.0.0.0.0.0.",
"0.0.0.9.6.7.3.d y P P P J G P [ [ [ J G P P [ x d 2.0.0.t.i.e.8.",
"0.0.0.0.0.0.1.2 r { ........@.#.#.@... .....} c 0 2.0.7.t.p.r.8.",
"p.u.0.9.8.7.Y < = D ..o.o.X.X.o.o.o.o.o.o...H : 1 2.9.9.q.q.0.0.",
"p.i.q.9.9.8.U @ * k S S H S D D D H D D D D k ; 2 2.0.9.8.0.0.0.",
"q.q.9.9.0.9.%.1 - a D S F S S A A A A F D A A : 8 *.0.0.0.0.0.8.",
"9.9.0.0.0.7.~ # t A D D F D D A A A D F F F A i 6 ~ 7.8.0.0.0.0.",
"8.0.0.0.9.9.~ # e S H F H H H F F F H H F H D i & 4 ,.0.0.8.0.0.",
"0.0.0.9.9.7.~ # : F H S F F F D A F H H A H K : % 3 >.8.0.0.0.0.",
"0.0.0.0.0.7.~ # ; F K A S F S S A D F D k H H : & M 7.0.0.0.0.8.",
"0.0.0.8.0.9.^ % : F F S S D S k A A D D S F H i 6 B 7.7.0.0.0.0.",
"0.0.0.7.7.0.&.6 k D A A A A k k a k A A k A D k 9 ! 7.7.7.7.0.0.",
"8.0.0.V s ( C r a S A A A F F D S F F S S S S k : 7 N s B 0.0.0.",
"0.9.7.Z . $ - p k F F D k D J D F F S k D D F v p : $   n 9.9.9.",
"0.9.9.Z X e i p A F v k k A A A A A A A D k F k a t i o n 9.0.0.",
"9.0.9.V X j i k D F D D D F D D H D F D D D F F k t p o b 0.0.9.",
"0.0.9.V O j i a F D D S A D D S S D D S A D D D A t j % b 0.0.0.",
"0.0.0.Z + c k p k k k j j k k k k k k k p k k v p j F + m u.e.7.",
"0.9.7.V + L P j i t t t t j j t t t j i t t t t j K I % m a.t.7.",
"y.t.q.V + I ..I K K L P I I I I I I I I L L K L P .. .5 n e.q.8.",
"a.p.0.V O I X.....X...O.+.+.+.+.X.X.o.+.O.X.........| % b 8.8.8.",
"e.e.0.Z X k K K {  .} { { }  . . .} } { {  . . .P H F o b 9.9.9.",
"7.7.9.Z   $ - w y u y ; ; 9 9 r y w 9 - - r u u w 9 *   b 9.9.9.",
"9.0.0.` , O > > O > > > > > > O O > > > O > > > > O > > Z 0.0.0.",
"9.0.9.=.&.' ] ] ^ Q ' ' ' ' ' &.' &.' ' ' ' ' ' ) Q ) &.=.0.0.9.",
"0.0.0.0.9.9.9.9.5.,.8.0.0.0.0.8.8.0.0.8.0.0.8.0.6.>.6.9.9.0.0.0.",
"0.9.0.0.9.9.9.7.0.0.8.8.0.0.0.0.0.0.0.0.0.0.0.8.7.0.0.9.0.0.9.0.",
"0.0.0.9.9.0.r.t.0.0.0.0.9.0.0.0.0.8.0.0.0.0.e.t.w.7.9.9.5.>.6.0.",
"0.9.0.0.0.0.i.p.q.9.0.0.0.8.0.0.0.0.0.0.0.0.t.a.e.0.9.9.:.W >.0."
};
