/* XPM */
static char *npcF11709309387[] = {
/* columns rows colors chars-per-pixel */
"32 32 178 2 ",
"   c #130E10",
".  c #16211C",
"X  c #20221E",
"o  c #1D2E27",
"O  c #242828",
"+  c #2C342E",
"@  c #2D2E34",
"#  c #2D3533",
"$  c #2A3B33",
"%  c #353B37",
"&  c #333B3C",
"*  c #453236",
"=  c #124631",
"-  c #2A463A",
";  c #32453C",
":  c #374B3D",
">  c #583B44",
",  c #374543",
"<  c #394243",
"1  c #334B41",
"2  c #3A4B44",
"3  c #395248",
"4  c #3D6255",
"5  c #434743",
"6  c #434D4C",
"7  c #43554E",
"8  c #425B49",
"9  c #5C514C",
"0  c #524D54",
"q  c #5E4950",
"w  c #495754",
"e  c #445B51",
"r  c #585453",
"t  c #794F4F",
"y  c #754953",
"u  c #6C5B59",
"i  c #765359",
"p  c #456355",
"a  c #4B6956",
"s  c #4A6559",
"d  c #4D6B5B",
"f  c #53685B",
"g  c #50735E",
"h  c #78625C",
"j  c #6E5E64",
"k  c #467763",
"l  c #547560",
"z  c #5A7B64",
"x  c #577868",
"c  c #606F6F",
"v  c #7C6B63",
"b  c #746E68",
"n  c #657C69",
"m  c #7D6E70",
"M  c #787673",
"N  c #875562",
"B  c #975A68",
"V  c #856D68",
"C  c #8C6F6F",
"Z  c #856A75",
"A  c #A57867",
"S  c #A8726E",
"D  c #1BA16A",
"F  c #21A46E",
"G  c #2AA774",
"H  c #32A475",
"J  c #35AC7C",
"K  c #5D8269",
"L  c #538571",
"P  c #558774",
"I  c #5C8D7B",
"U  c #55967E",
"Y  c #62866C",
"T  c #64896E",
"R  c #688E72",
"E  c #6F8979",
"W  c #758776",
"Q  c #6C9378",
"!  c #94856F",
"~  c #8C8C7E",
"^  c #BE8166",
"/  c #A28370",
"(  c #BF8A77",
")  c #C08165",
"_  c #CA997A",
"`  c #757D82",
"'  c #7F7D89",
"]  c #807585",
"[  c #957B8A",
"{  c #B37989",
"}  c #5C9C83",
"|  c #669786",
" . c #799685",
".. c #789D92",
"X. c #59A787",
"o. c #5DA88A",
"O. c #45B284",
"+. c #4EB48A",
"@. c #52B68C",
"#. c #59B791",
"$. c #5CBA93",
"%. c #68A68C",
"&. c #69AC92",
"*. c #79AC9A",
"=. c #6AB497",
"-. c #61BB96",
";. c #65BD99",
":. c #6DBE9E",
">. c #74B49B",
",. c #71BC9E",
"<. c #77BDA2",
"1. c #66C29D",
"2. c #6EC09F",
"3. c #70C09F",
"4. c #6FC1A0",
"5. c #70C0A0",
"6. c #79C3A6",
"7. c #7DC5A9",
"8. c #84818B",
"9. c #8E8E8D",
"0. c #83978B",
"q. c #8A9599",
"w. c #929698",
"e. c #9F939B",
"r. c #A68A87",
"t. c #B39689",
"y. c #A38A90",
"u. c #AC8995",
"i. c #A89299",
"p. c #B9A298",
"a. c #9799A7",
"s. c #A09BA4",
"d. c #A4A2AC",
"f. c #B8AAAD",
"g. c #AAAEB5",
"h. c #B1ABB2",
"j. c #AFB1BD",
"k. c #B3B3BD",
"l. c #C89D86",
"z. c #CC9F91",
"x. c #D7AA87",
"c. c #D7A993",
"v. c #EBB78D",
"b. c #E8B895",
"n. c #EDBE9A",
"m. c #C6AEA2",
"M. c #C9B3AE",
"N. c #D7B6A6",
"B. c #C3B2B0",
"V. c #DBBEB1",
"C. c #E2B7A3",
"Z. c #E3BAA3",
"A. c #EDBEA3",
"S. c #83C7AD",
"D. c #87C8AF",
"F. c #87C8B0",
"G. c #8CC9B2",
"H. c #91CBB6",
"J. c #96CDB9",
"K. c #9ACEBC",
"L. c #9ED0BF",
"P. c #F1C19E",
"I. c #D8C5BF",
"U. c #EDC3AD",
"Y. c #F2C4A3",
"T. c #F2C6A9",
"R. c #E7C7B6",
"E. c #F6CDB5",
"W. c #F8CFB7",
"Q. c #F7D1BB",
"!. c #F9D1B9",
"~. c #B9B9C3",
"^. c #C2BEC3",
"/. c #9DD3C0",
"(. c #D8C6C0",
"). c #F3D6C8",
"_. c #EEDAD7",
"`. c #EBE3EC",
/* pixels */
"D D $.5.5.4.2.5.5.3.5.3.5.5.5.5.2.5.5.5.5.5.4.5.4.5.,.4.5.5.5.4.",
"F G -.2.:.:.2.5.5.5.4.5.3.4.5.4.5.5.5.:.5.5.5.5.5.5.5.5.4.5.5.5.",
"-.-.:.2.@.+.-.3.3.5.5.5.5.5.,.,.,.:.,.5.,.,.4.5.5.5.5.5.:.4.5.5.",
"5.3.4.:.@.O.-.3.5.5.5.<.,. .v t t t h  .,.,.5.4.:.5.5.5.5.5.6.5.",
"5.5.5.4.;.;.:.2.5.5.4. .V B A A ^ ) ^ A V  .,.,.5.5.4.,.5.S.H.S.",
"5.5.5.5.3.5.2.:.5.5.&.! ) v.Y.Y.Y.A.A.C.l.A W 4.5.4.5.5.6.G./.F.",
"H.G.6.,.5.:.O.J #.5.%.r.Z._._.).E.W.!.E.A.( m :.5.4.5.4.,.7.7.<.",
"/.K.6.5.5.:.J D @.Q ~ m.).`.`.).W.W.!.!.!.C./  .5.5.5.5.4.5.5.5.",
"S.S.6.:.5.2.#.+.1.b S N.Q._.).Q.!.!.!.!.W.!.z.u 5.5.:.5.5.5.4.,.",
"5.5.5.5.3.4.2.:.o.M t.U.Q.Q.Q.Q.!.!.!.!.!.!.N.m } =.4.4.5.5.5.4.",
"4.4.4.5.5.5.2.4.U q.f.R.E.E.E.T.A.Y.T.!.!.V.B.s.| X.#.;.4.5.5.4.",
"4.,.5.3.3.4.4.&.| g.k.f.R.R.U.P.v.v.A.Q.V.N.h.~.8.} O.$.5.5.5.5.",
"5.4.4.5.5.5.5.4 c g.k.s.i.p.b.n.n.n.A.c.y.a.h.~.w.4 $.;.5.,.4.5.",
"5.5.5.5.3.4.5.% 0 d.j.a.] C _ v.v.v.x.S m q.d.~.' , 4.4.5.5.5.4.",
"5.5.5.4.5.5.7.| x ` ' 8.e.r./ x.Y.Y.l./ i.[ ' ] c P 5.5.5.5.5.5.",
"5.2.5.,.5.5.H.L.>.w @ u z.M.p.N.Q.E.N.m.V.V < 6 *.<.4.,.4.5.4.5.",
"4.5.3.4.5.5.D.H.>.e . 9 t.b.R.R.I.(.R.U.c.v X 2 ..,.4.5.5.5.5.5.",
"3.5.5.5.5.4.5.6.| d 3 6 m p.I.^.j.k.I.V.r.6 1 p w &.4.,.5.4.4.5.",
"5.5.5.5.5.5.4.P l s a ; & j [ a.d.s.w.m 0 $ p a f L 5.5.5.5.5.,.",
"3.5.5.4.5.5.4.- 3 x p 2 & 5 h [ [ [ Z 0 % ; 3 K l ; 5.5.5.4.2.4.",
"5.2.5.5.5.5.5.p 3 T 8 + w E w.u.{ { i.0.z @ + R a 4 5.5.5.6.6.6.",
"4.4.5.5.4.5.5.=.L g : : d Y E 9.y.y.0.R K ; $ d d } 5.5.5.F.J.S.",
"6.6.5.5.5.5.5.5.6.: o 3 l T R n m b K Q K p ; o 1.2.5.5.5.D.J.S.",
"J.H.6.5.5.4.5.4.4.- X 6 s l T R n n T x d 7 $ = J $.5.5.5.6.6.6.",
"K.J.6.5.5.5.5.5.5.3 * q 0 6 f x l z x 7 < # - H G @.6.2.2.2.3.5.",
"7.7.5.5.5.5.,.5.5.I f u i i 0 6 - $ , < & 3 P $.$.;.5.3.3.3.4.,.",
"2.2.5.5.5.4.4.5.3.5.} u B S N > X   O k } o.5.5.3.3.:.:.4.5.5.5.",
"3.5.5.3.5.5.5.3.$.@.X.f y B N > * 2 s } ,.,.5.5.2.#.@.;.5.5.5.4.",
"5.5.5.5.3.5.3.2.@.O.$.p # 9 r # k 4.2.5.5.5.4.5.;.@.O.-.5.5.5.,.",
"3.5.4.4.5.4.5.2.;.$.1.P e a f 8 I 4.5.5.5.3.,.4.:.;.$.;.5.5.5.4.",
"5.4.4.,.5.5.5.5.3.3.3.3.>.p k :.2.5.4.5.5.5.3.3.5.5.5.5.5.3.2.2.",
"3.5.5.5.3.5.S.F.7.3.3.3.3.1.:.5.5.3.5.5.3.:.6.S.D.6.4.5.:.-.#.;."
};
