/* XPM */
static char *npc1709309387[] = {
/* columns rows colors chars-per-pixel */
"32 32 193 2 ",
"   c #09110E",
".  c #141514",
"X  c #19261F",
"o  c #152B22",
"O  c #262B2A",
"+  c #233127",
"@  c #26322D",
"#  c #322D32",
"$  c #2C3332",
"%  c #2D3A33",
"&  c #353A3B",
"*  c #37383C",
"=  c #49383F",
"-  c #2B4237",
";  c #32433C",
":  c #39433C",
">  c #33483A",
",  c #5C3F44",
"<  c #394342",
"1  c #354D42",
"2  c #3C4C46",
"3  c #3B5647",
"4  c #30674F",
"5  c #3C6554",
"6  c #317055",
"7  c #484748",
"8  c #554C4B",
"9  c #44544B",
"0  c #4C554D",
"q  c #445D4B",
"w  c #594F55",
"e  c #4A5452",
"r  c #465B53",
"t  c #495C54",
"y  c #565758",
"u  c #7B4A4E",
"i  c #644A54",
"p  c #6B4A55",
"a  c #6A5957",
"s  c #735C5F",
"d  c #446353",
"f  c #4C6454",
"g  c #4C645B",
"h  c #496858",
"j  c #4C6A5A",
"k  c #516E5B",
"l  c #58775F",
"z  c #506A60",
"x  c #447461",
"c  c #4C7364",
"v  c #4F7967",
"b  c #557967",
"n  c #5A7C65",
"m  c #5E7A73",
"M  c #6D6562",
"N  c #61656C",
"B  c #667567",
"V  c #65796C",
"C  c #6F6E70",
"Z  c #6C6C79",
"A  c #797C77",
"S  c #805B5B",
"D  c #92735D",
"F  c #845C65",
"G  c #846A67",
"H  c #99706D",
"J  c #857875",
"K  c #937879",
"L  c #A47465",
"P  c #2D8661",
"I  c #1BA26B",
"U  c #21A46E",
"Y  c #2AA774",
"T  c #36AB7C",
"R  c #55806F",
"E  c #5F836B",
"W  c #4D8A72",
"Q  c #588674",
"!  c #5D937D",
"~  c #62856B",
"^  c #63896E",
"/  c #668A70",
"(  c #688E72",
")  c #678779",
"_  c #74887B",
"`  c #669279",
"'  c #BC836D",
"]  c #AA8879",
"[  c #BA8677",
"{  c #C68C70",
"}  c #CD9172",
"|  c #817584",
" . c #847C85",
".. c #8F7F84",
"X. c #947A89",
"o. c #AE7686",
"O. c #5C9C82",
"+. c #6C8F84",
"@. c #7A9484",
"#. c #57A686",
"$. c #46B284",
"%. c #4CB488",
"&. c #51B58B",
"*. c #57B68F",
"=. c #58B791",
"-. c #5BBA93",
";. c #64A58B",
":. c #69AF94",
">. c #7CAA94",
",. c #67B395",
"<. c #61BB96",
"1. c #65BC99",
"2. c #6DBE9E",
"3. c #7AB59C",
"4. c #71BD9E",
"5. c #72BEA0",
"6. c #78BDA2",
"7. c #6FC09F",
"8. c #70C09F",
"9. c #6FC1A0",
"0. c #70C0A0",
"q. c #79C3A6",
"w. c #7EC5A9",
"e. c #878B88",
"r. c #968488",
"t. c #859085",
"y. c #87958B",
"u. c #9B9185",
"i. c #888393",
"p. c #8B8A9B",
"a. c #968C97",
"s. c #8A9894",
"d. c #939297",
"f. c #B28C84",
"g. c #B89B8B",
"h. c #A68993",
"j. c #B38996",
"k. c #A89796",
"l. c #B19C93",
"z. c #BDA08F",
"x. c #9494A2",
"c. c #9999A5",
"v. c #9D99A5",
"b. c #A59BA2",
"n. c #9AA4A9",
"m. c #AEA7AD",
"M. c #B1A4A8",
"N. c #ABA9B2",
"B. c #ADADB9",
"V. c #B7AFB5",
"C. c #B2B3BD",
"Z. c #C09992",
"A. c #D1A389",
"S. c #C6A899",
"D. c #D6A895",
"F. c #DFB39C",
"G. c #EEBB94",
"H. c #EDBD9A",
"J. c #C8AEA4",
"K. c #CCB5AF",
"L. c #D3B3A6",
"P. c #D7BAAC",
"I. c #C7B9B8",
"U. c #D4BDB4",
"Y. c #E5BAA6",
"T. c #EABDA3",
"R. c #83C6AD",
"E. c #87C8AF",
"W. c #8BC9B2",
"Q. c #91CBB6",
"!. c #96CDB9",
"~. c #9ACEBC",
"^. c #F3C29E",
"/. c #EEC0A5",
"(. c #F2C3A3",
"). c #F4C7AB",
"_. c #EAC8B6",
"`. c #F5CEB6",
"'. c #F8CFB6",
"]. c #F3CDB8",
"[. c #FBD1B7",
"{. c #F7D3BE",
"}. c #F8D0B8",
"|. c #BBBAC4",
" X c #C8BEC1",
".X c #CBC2C3",
"XX c #DCC9C2",
"oX c #EFD7CF",
"OX c #F5D4C3",
"+X c #F3D7CB",
"@X c #EEDDDD",
"#X c #EDE1E6",
"$X c #E8E7F6",
/* pixels */
"I I -.0.0.7.7.9.0.0.0.0.0.0.9.9.9.9.9.9.9.0.0.0.0.0.9.0.0.8.0.0.",
"U Y <.9.2.7.7.9.8.0.0.8.8.8.9.1.9.9.7.9.0.0.0.7.7.0.0.4.0.9.9.0.",
"<.<.2.2.*.%.<.8.0.0.8.8.3.s.] ] t.e.@.3.9.9.8.8.0.7.9.9.0.0.4.0.",
"8.8.9.2.%.$.<.8.8.8.8.8.>.J a p u u S @.9.4.8.8.0.5.0.0.0.0.0.0.",
"0.0.9.9.1.1.7.7.7.4.] s D ' } } } } { L s J 3.8.0.0.0.0.q.E.Q.R.",
"0.0.5.9.0.0.7.7.7.@.J ' A./.(.(.(.(.T.F.} L _ 8.0.0.0.5.0.W.~.E.",
"Q.W.q.7.9.2.$.T =.) ] F.oX@X+X[.'.}.}.`.T.[ M 8.5.9.0.0.0.q.w.q.",
"~.~.q.0.9.2.T I #.u.S._.#X$XoX[.'.'.}.}.'.Y.f.e.3.9.0.0.0.0.0.0.",
"E.R.0.0.0.9.-.&.A f.Y.{.@X#X+X`.}.}.}.].'.].D.G >.2.0.9.5.0.9.5.",
"0.0.0.0.9.0.9.! A Z._.[.{.OX{.[.}.}.}.'.'.'.L.J ) 2.0.5.9.0.0.9.",
"9.0.0.0.0.0.0.3 A K.].'.`.`.[.[.'.`.`.'.'.].U.h.g #.-.1.0.9.9.0.",
"0.0.0.0.9.0.9.Z v.V.K._.`.`.^.^.G.T.`.].].P.N.N.+.O.$.<.0.9.5.0.",
"0.0.9.0.0.0.#.n.|.C.N.M.J.U.).^.H.).).P.M.m.B.|.n.d W 1.5.0.9.0.",
"7.0.0.4.0.9.5 p.|.C.c.i.o.D.^.^.H.(.H.f.| x.B. Xp.# t 9.9.0.9.5.",
"0.7.0.9.0.0.` g  .c.p.p.r.G [ ^.^.A.D K a.p.c.d.N v ! 0.9.5.0.9.",
"0.0.0.0.0.0.!.r y Z | b.M.M ] [.[.g.a r.V. .Z N g 6.0.0.7.0.0.8.",
"0.9.9.5.9.0.W.) e $ s l.S.S.L.OX].P.z.S.L.C # 7 m 6.9.9.9.9.0.9.",
"5.0.0.9.0.9.q.m r X w l.H.).XX.X.XXX].T.D.M   > b 2.9.9.9.5.5.0.",
"9.0.0.0.9.0.0.g r 1 2 N k.P. XB.B.I.U.z.J e - q g :.4.2.9.9.9.9.",
"0.7.0.9.0.0.,.b f j ; # y ..v.c.x.b.a.Z * % j f k v +.9.0.5.9.0.",
"0.7.9.9.0.9.x ^ ~ d < * 7 s X.X.X.X.G 8 & < 3 n l + g 5.9.q.q.0.",
"9.5.0.0.0.0.x j ~ 1 $ 9 V y.h.o.o.h.d._ t $ + ~ j 3 v 9.0.W.!.R.",
"q.q.5.0.0.9.q.> q > - f E E s.h.j.a.V E b - + f 3 ,.q.9.0.W.~.R.",
"!.W.q.0.0.9.9.Q q % 1 h E ^ +.] K _ / ^ b 3 $ > 6 =.0.0.0.0.w.q.",
"~.!.q.0.0.0.0.2.9 O 9 g n ( ( B B ^ ( m j f & o P -.0.9.0.9.7.0.",
"w.w.0.8.0.0.5.2.9 # 7 t f b ( n n ^ ~ k t e = @ W 7.9.9.0.7.0.0.",
"0.7.0.0.0.0.5.2.c 8 i i w e f q 9 d t y i p w d ;.7.7.7.0.0.8.0.",
"0.0.0.0.8.0.0.8.<.4 7 F F 7 $ $ + $ * p H , - q.7.-.&.1.0.8.0.9.",
"9.0.0.9.0.8.0.2.*.6 > 0 7 % c ;.;.v : : y & > 0.7.&.$.-.0.5.9.8.",
"5.8.0.0.0.0.0.9.1.-.v X - O.7.0.4.8.,.5 . 5 9.9.2.<.-.2.0.0.9.0.",
"9.8.0.8.0.0.0.0.0.0.0.Q R ,.0.0.0.0.5.! z ` 0.7.7.8.0.0.0.8.2.8.",
"0.0.0.0.0.0.w.W.q.0.0.4.2.7.0.0.0.0.0.0.2.4.0.R.E.q.9.0.2.<.=.1."
};
