/* XPM */
static char *npcF31709309384[] = {
/* columns rows colors chars-per-pixel */
"32 32 186 2 ",
"   c #0B0C0B",
".  c #1C2120",
"X  c #1C2821",
"o  c #153025",
"O  c #2F262C",
"+  c #26362C",
"@  c #283932",
"#  c #323B3A",
"$  c #413934",
"%  c #403B3B",
"&  c #2D4235",
"*  c #314234",
"=  c #33433C",
"-  c #32483E",
";  c #343F40",
":  c #374541",
">  c #3B4243",
",  c #3A4C46",
"<  c #365147",
"1  c #395749",
"2  c #3C6254",
"3  c #47484A",
"4  c #574949",
"5  c #43534D",
"6  c #47594C",
"7  c #5F4E55",
"8  c #4A5E57",
"9  c #555958",
"0  c #69484F",
"q  c #794E4E",
"w  c #6F4955",
"e  c #774A55",
"r  c #635558",
"t  c #795150",
"y  c #446555",
"u  c #456855",
"i  c #486A57",
"p  c #4D6759",
"a  c #4B6B5B",
"s  c #53735C",
"d  c #795A63",
"f  c #4C6C61",
"g  c #556964",
"h  c #4A7665",
"j  c #547362",
"k  c #5A7C63",
"l  c #567B68",
"z  c #5A7871",
"x  c #6C6962",
"c  c #667969",
"v  c #77756D",
"b  c #796170",
"n  c #6C7379",
"m  c #7B7F75",
"M  c #87525F",
"N  c #975F6D",
"B  c #826768",
"V  c #946C68",
"C  c #877469",
"Z  c #94796E",
"A  c #897779",
"S  c #92717D",
"D  c #A97968",
"F  c #B17370",
"G  c #279A6B",
"H  c #309D70",
"J  c #1BA16A",
"K  c #21A46E",
"L  c #2AA774",
"P  c #36AB7C",
"I  c #4E856F",
"U  c #5A816A",
"Y  c #578472",
"T  c #528C74",
"R  c #469574",
"E  c #55937A",
"W  c #59937C",
"Q  c #58997E",
"!  c #63866D",
"~  c #648A6E",
"^  c #678D71",
"/  c #698877",
"(  c #77877A",
")  c #6A9174",
"_  c #43AC7F",
"`  c #AD896D",
"'  c #BF8166",
"]  c #A78979",
"[  c #B98C78",
"{  c #C18266",
"}  c #C8977A",
"|  c #7B7A86",
" . c #947A8A",
".. c #AD7C88",
"X. c #B27383",
"o. c #5D9F85",
"O. c #7B8785",
"+. c #669682",
"@. c #739889",
"#. c #7D8F91",
"$. c #4CA782",
"%. c #46B284",
"&. c #4EB48A",
"*. c #53B58C",
"=. c #5DB08E",
"-. c #58B791",
";. c #5CB993",
":. c #6BA68E",
">. c #70A18F",
",. c #66AE91",
"<. c #6AB496",
"1. c #61BB96",
"2. c #66BD99",
"3. c #6DBE9E",
"4. c #71B79A",
"5. c #71BC9E",
"6. c #78BA9E",
"7. c #6FC09F",
"8. c #70C09F",
"9. c #6FC0A0",
"0. c #70C0A0",
"q. c #79C3A6",
"w. c #7EC5A9",
"e. c #78C8A8",
"r. c #8D888C",
"t. c #998987",
"y. c #868A94",
"u. c #8F949C",
"i. c #919292",
"p. c #9A9598",
"a. c #A3868A",
"s. c #A4939C",
"d. c #B09290",
"f. c #B69A92",
"g. c #BFA18F",
"h. c #BFA69A",
"j. c #9495A3",
"k. c #9E97A2",
"l. c #A899A1",
"z. c #A2A2AD",
"x. c #B5A8A9",
"c. c #A8A6B1",
"v. c #A9A9B4",
"b. c #ADADB9",
"n. c #B3B2BC",
"m. c #CA9B89",
"M. c #CDA486",
"N. c #C7A495",
"B. c #D7AC99",
"V. c #DDB29A",
"C. c #EAB68C",
"Z. c #EAB997",
"A. c #E7BA9C",
"S. c #EFBF99",
"D. c #CBB5AD",
"F. c #D7BBB0",
"G. c #E3BAA6",
"H. c #ECBEA3",
"J. c #83C7AD",
"K. c #85C9AE",
"L. c #87C8B0",
"P. c #8CC9B2",
"I. c #91CBB6",
"U. c #96CDB9",
"Y. c #9ACEBC",
"T. c #9ED0BF",
"R. c #F1C19E",
"E. c #D9C6BF",
"W. c #EDC1A8",
"Q. c #F3C5A3",
"!. c #F4C8AB",
"~. c #EBC7B4",
"^. c #E6C8B7",
"/. c #F3CBB4",
"(. c #F8CFB7",
"). c #F8D0B7",
"_. c #F7D1BB",
"`. c #F8D1B9",
"'. c #B6B6C0",
"]. c #9DD2C0",
"[. c #D0C5C4",
"{. c #EDD2CA",
"}. c #F5D3C1",
"|. c #F3D8CC",
" X c #EEDBD9",
".X c #EBE5EE",
/* pixels */
"J J ;.0.0.0.9.0.0.9.8.0.0.3.0.0.0.0.0.7.0.0.0.0.0.0.0.0.0.0.8.0.",
"K L ;.7.9.3.7.0.0.0.0.0.0.0.0.3.0.0.0.0.8.8.0.7.0.8.9.5.9.0.0.9.",
"1.1.3.7.*.&.1.8.0.9.9.0.0.7.3.5.5.5.5.3.8.8.0.0.9.8.0.0.7.9.0.5.",
"8.8.9.3.*.%.1.8.0.0.0.0.6.6.m q t t q v 6.5.0.8.0.0.0.9.0.0.q.0.",
"0.0.0.9.2.2.7.7.9.9.9.6.] V D { ' ' { D B A 0.0.0.0.0.0.0.K.U.J.",
"0.0.0.0.7.7.7.3.7.9.) C ] B.H.W.H.W.H.A.m.D / 9.0.7.0.0.0.P.Y.J.",
"I.P.q.3.9.7.%.P *.9.v V B. X X}.).(.(./.!.m.x 0.7.0.0.0.0.q.J.q.",
"T.Y.q.0.9.3.P J &.:.t.g.{..X.X|.).).).`.).G.] @.4.0.0.0.0.0.0.0.",
"J.J.0.0.0.7.-.&.7.+.f.W.}.|.|.}.`.(.`.(.(./.N.C 4.7.0.0.9.0.7.0.",
"0.0.0.0.8.9.7.9.E ! h./.`._._._._.`.`.`._.(.G.A W 9.0.5.0.0.0.0.",
"9.8.0.0.9.0.9.9.z O.x.F./.`./.Q.H.Q.!.`.`.~.D.j.z ;.-.2.9.5.0.7.",
"0.0.0.0.9.9.9.,.#.z.v.x.F.^./.R.C.Z.!.}.G.D.z.v.#.$._ 1.0.0.0.0.",
"0.0.0.8.0.0.9.h #.n.b.z.p.d.V.Q.S.R.Q.B.a.k.b.'.u.y R 2.0.9.0.0.",
"9.5.0.9.0.7.q.1 n z.c.j.| V } C.C.C.C.[ b y.z.'.| ; E 3.0.0.0.0.",
"0.9.0.0.0.0.w.>.g n | | s.a.D M.R.Z.` Z l.r.| | g +.,.0.0.0.9.0.",
"0.0.0.8.0.0.P.].>.h ; 4 f.F.N.F.`.~.N.f.^.Z O > @.J.9.0.0.7.0.0.",
"0.8.0.0.0.0.L.P.>.j X $ ] A.~.^.E.E.^.~.B.C   = @.q.7.0.0.9.0.0.",
"0.9.0.8.0.7.q.e.g 5 - : v h.E.'.b.n.[.F.] 9 & 1 8 q.0.0.0.5.9.0.",
"0.7.9.0.9.0.7.Q g p a < 3 x  .k.j.u.s.A 3 # a a g E ,.0.0.0.0.0.",
"0.0.0.0.8.0.9.2 j ^ 6 > # ; d  . . .S r # = 1 s k & E 3.0.9.7.8.",
"0.0.0.9.0.0.0.h y c & . 6 ( i.d.X...s.i.k # X s i u +.0.9.q.q.q.",
"9.7.8.0.0.0.0.<.i u & + a ^ ) r...a.O.~ U < + 1 u <.3.0.0.L.U.J.",
"q.q.0.0.8.8.8.8.e.T < 1 j ~ / c B v ! ) U i * @ =.3.0.0.0.J.U.J.",
"I.I.q.0.8.8.8.7.7.W < : y j ! ~ c c ^ U a 8 % o H ;.0.0.0.q.q.q.",
"Y.U.q.0.0.0.0.0.8.7.y + # 3 p k s s l 8 3 7 0 @ G -.0.0.0.7.7.0.",
"w.w.0.0.0.0.5.0.0.0.o.f : ; , = @ = 5 7 d w 4 I -.2.0.7.0.0.0.0.",
"0.3.0.0.0.0.0.0.7.3.3.3.o.o.,     O w N F e - e.0.7.3.7.7.0.0.0.",
"0.0.0.0.0.9.0.8.;.*.1.7.7.0.Y , 3 4 e N M 0 I 0.3.-.*.2.0.0.0.7.",
"8.0.9.0.7.0.8.7.*.%.-.7.0.0.5.0.,.2 % x % - q.0.3.*.%.1.0.0.0.0.",
"0.0.0.0.0.0.0.7.2.;.2.8.0.0.9.0.<.l 6 s 6 f 9.9.3.1.;.2.0.0.0.0.",
"9.0.5.9.0.7.0.0.0.0.0.0.0.9.0.0.0.0.T - I 0.5.0.0.0.0.0.0.3.3.0.",
"8.0.0.0.9.0.J.L.q.0.0.9.5.0.0.0.0.3.3.3.5.0.0.J.J.q.7.0.7.1.-.2."
};
