/* XPM */
static char *npcL31709309385[] = {
/* columns rows colors chars-per-pixel */
"32 32 177 2 ",
"   c #0A100D",
".  c #311B1F",
"X  c #1C201D",
"o  c #1C2C25",
"O  c #1B392C",
"+  c #282222",
"@  c #23342C",
"#  c #2B2C30",
"$  c #302F36",
"%  c #293D34",
"&  c #363B37",
"*  c #492B32",
"=  c #453637",
"-  c #563839",
";  c #2A4539",
":  c #2B453A",
">  c #3C4239",
",  c #49443D",
"<  c #6B4F3C",
"1  c #5C3B41",
"2  c #663D44",
"3  c #374C41",
"4  c #2E5543",
"5  c #375445",
"6  c #3D5750",
"7  c #3A674F",
"8  c #386B56",
"9  c #49494E",
"0  c #455347",
"q  c #4C4E50",
"w  c #535C58",
"e  c #784D57",
"r  c #6A5452",
"t  c #655957",
"y  c #735D5A",
"u  c #4C6A58",
"i  c #57665B",
"p  c #53735E",
"a  c #6B634B",
"s  c #5F5F67",
"d  c #795D68",
"f  c #576E63",
"g  c #577767",
"h  c #5C7C62",
"j  c #6C6763",
"k  c #726C64",
"l  c #7B656C",
"z  c #77756B",
"x  c #6B7276",
"c  c #757A79",
"v  c #814B57",
"b  c #966A5E",
"n  c #8F5461",
"m  c #9E5E6D",
"M  c #937868",
"N  c #877073",
"B  c #9B7774",
"V  c #A97567",
"C  c #A66371",
"Z  c #A96574",
"A  c #B16978",
"S  c #A77C72",
"D  c #2E9D70",
"F  c #1BA26B",
"G  c #23A36E",
"H  c #2AA774",
"J  c #36AB7C",
"K  c #438469",
"L  c #4C836D",
"P  c #5E8169",
"I  c #578774",
"U  c #57957B",
"Y  c #63846C",
"T  c #66876D",
"R  c #6B8973",
"E  c #748879",
"W  c #6D9475",
"Q  c #719477",
"!  c #898474",
"~  c #92877B",
"^  c #B78569",
"/  c #BD926E",
"(  c #AF907C",
")  c #C88E6C",
"_  c #C79579",
"`  c #7A7984",
"'  c #827D8C",
"]  c #987D89",
"[  c #569C81",
"{  c #758385",
"}  c #6F9D89",
"|  c #759589",
" . c #7F9990",
".. c #59AA89",
"X. c #45B284",
"o. c #4DB58B",
"O. c #52B68C",
"+. c #59B791",
"@. c #5BBA93",
"#. c #67A48B",
"$. c #73A48C",
"%. c #65AD90",
"&. c #7CA494",
"*. c #73AC93",
"=. c #6AB597",
"-. c #61BB96",
";. c #65BD99",
":. c #6DBD9D",
">. c #71B197",
",. c #70BD9E",
"<. c #70BFA0",
"1. c #66C29D",
"2. c #6FC09F",
"3. c #70C09F",
"4. c #6FC1A0",
"5. c #70C0A0",
"6. c #79C3A6",
"7. c #7DC5A9",
"8. c #8E8A8D",
"9. c #898994",
"0. c #8D8C9A",
"q. c #8D9698",
"w. c #B09590",
"e. c #B49F9C",
"r. c #BAA299",
"t. c #9595A2",
"y. c #9A95A2",
"u. c #9D9AA5",
"i. c #9D9EAA",
"p. c #AC9FA3",
"a. c #A6A1AA",
"s. c #ADA5AB",
"d. c #BCA9A5",
"f. c #B5A8AB",
"g. c #A9A7B1",
"h. c #ACABB4",
"j. c #AEAEB8",
"k. c #B5ACB1",
"l. c #B2B2BB",
"z. c #C69883",
"x. c #D19D87",
"c. c #C69E90",
"v. c #D2A08F",
"b. c #CEA998",
"n. c #D4A596",
"m. c #E0AC8F",
"M. c #E9B593",
"N. c #D3ACA0",
"B. c #CEB5AC",
"V. c #CAB7B5",
"C. c #DEBFB4",
"Z. c #83C6AD",
"A. c #87C8AF",
"S. c #87C8B0",
"D. c #8CC9B2",
"F. c #91CBB6",
"G. c #96CCB9",
"H. c #9ACEBC",
"J. c #9ED0BF",
"K. c #F3C29B",
"L. c #D9C1B9",
"P. c #F4C8AB",
"I. c #F5CCB4",
"U. c #F8CDB0",
"Y. c #F6CFB8",
"T. c #F8D0B7",
"R. c #F7D2BD",
"E. c #F9D1B8",
"W. c #B9BAC3",
"Q. c #BCBDC5",
"!. c #C5BEC1",
"~. c #C2C2CA",
"^. c #F4D3C2",
"/. c #EAD6D5",
"(. c #EFDCDA",
"). c #EAE4EF",
"_. c #EAE7F6",
/* pixels */
"F F @.5.5.4.2.5.4.3.5.5.4.5.,.3.3.3.3.5.5.2.5.5.2.5.5.5.5.5.5.5.",
"G H -.2.:.:.2.5.5.5.5.3.3.,.,.,.,.,.,.4.5.5.5.5.5.5.5.4.2.5.5.:.",
"@.-.:.2.O.o.-.3.5.5.,.<.*.E k k k k E 4.:.5.5.5.5.4.5.5.4.5.5.5.",
"5.3.5.2.O.X.-.3.5.6.E y b ^ ) ) ) ) V e z ,.5.5.3.5.,.5.3.5.6.5.",
"5.5.,.4.;.;.2.2.3.*.! S z.n.M.M.M.M.x.V M $.5.5.4.5.<.4.5.A.F.Z.",
"5.5.5.2.3.5.2.:.,.z ^ C./.^.I.U.I.I.I.K.( z 5.3.<.5.5.<.5.D.H.A.",
"F.D.6.2.4.4.X.J +.~ v./._.(.^.T.Y.T.T.T.m.8.,.3.5.5.5.5.5.6.Z.6.",
"J.H.6.5.5.:.J F i c.I.(.).(.R.Y.Y.Y.T.T.Y.b.N $.5.<.5.5.5.5.5.<.",
"Z.Z.5.5.4.2.+.o.t n.E.R.^.^.E.E.E.Y.E.E.E.N.B | 5.5.5.5.5.5.5.5.",
"5.5.5.5.5.5.2.4.y n.R.E.T.Y.E.E.E.E.E.R.C.p.9.g :.5.2.4.5.2.3.5.",
"5.4.5.5.5.5.5.4.y _ K.P.E.Y.I.I.I.Y.C.p.s.l.W.0.f 8 +.1.5.5.5.4.",
"5.5.5.5.5.5.5.2.y _ K.U.E.C.B.d.d.d.f.i.j.!.~.g.q O X.@.5.3.5.<.",
"5.4.2.5.5.5.3.5.j _ K._ w.d.k.h.h.g.l.Q.W.Q.Q.i.3 O +.;.<.4.<.5.",
"5.5.5.5.5.<.3.;.E z./ B ] y.W.W.l.W.!.~.W.W.i.{ I I 4.<.5.5.5.5.",
"5.4.5.<.4.5.>.| 9.r.M e.V.g.l.W.j.g.W.j.g.0.x g <.Z.5.5.5.5.<.5.",
"3.5.3.5.,.5.q.c u.s.p.B.C.k.g.j.g.i.t.0.` ` x | G.7.2.4.,.5.5.2.",
"5.<.5.5.5.5.&.c 0.g.L.k.a.s.g.p.t.0.{ s $ 6 ,.A.D.6.2.5.5.5.5.5.",
"5.4.<.5.4.<.>.} {  .g.i.t.u.t.9.' ` s $ o L 6.5.6.5.5.5.2.5.5.2.",
"5.5.<.5.<.5.4.4.%.#.q.x l N l d d s 3 # : U 1.2.2.3.5.3.5.3.5.5.",
"<.4.4.5.<.5.5.<.4.4.*.% . 1 r r r i g u 5 > D ..3.5.5.5.5.4.2.5.",
"5.4.<.5.<.5.5.4.<.5.:.0 - r g P i i T T u @ X K 5.5.4.5.5.6.6.6.",
"4.<.5.<.4.5.5.5.5.5.L l ] E x T f 9 i f 0 & > P ,.5.3.5.5.S.F.Z.",
"6.6.5.5.5.5.5.4.4.4.K c 8.T W W Y w 9 $ , z.( p ..2.5.5.4.A.H.Z.",
"F.F.6.5.5.4.5.4.4.4.6.u 0 Y W Q R j e 1 - _ ^ 0 D @.5.4.5.6.6.6.",
"H.H.6.5.5.5.5.3.3.3.6.4 : p T z N m m n 2 < a 7 G +.5.5.5.4.:.5.",
"7.6.5.5.5.5.5.5.3.3.2.#.L 5 , e C A A C 2 O [ ..+.:.5.4.5.5.5.5.",
"2.2.5.5.3.4.4.,.3.:.3.,.U : + e C Z m e = : %.=.5.4.:.<.4.5.5.5.",
"5.5.5.5.5.5.5.5.@.O.-.I h Y u > 1 v *   @ 3 O L 4.+.O.;.,.5.5.5.",
"5.5.2.5.5.5.4.:.O.X.@.7 > p h u & + X o 3 3 : I ;.O.X.-.5.5.5.5.",
"2.5.5.5.5.3.5.5.1.@.1.=.U : X o L =.-.U : : :.:.3.;.@.;.5.5.5.5.",
"5.<.5.5.5.3.5.5.2.3.5.5.4.2.:.:.,.5.:.:.:.:.2.5.3.3.<.5.5.2.:.5.",
"5.5.3.4.5.5.Z.S.7.5.5.3.5.2.5.5.5.5.<.:.5.5.5.Z.A.6.4.5.2.-.+.;."
};
