/* XPM */
static char *npcL1709309384[] = {
/* columns rows colors chars-per-pixel */
"32 32 191 2 ",
"   c #0D0D0E",
".  c #221C1B",
"X  c #1F2624",
"o  c #262B27",
"O  c #332B21",
"+  c #28322E",
"@  c #2A3B33",
"#  c #393A3C",
"$  c #44282C",
"%  c #59383A",
"&  c #294135",
"*  c #2E4339",
"=  c #38493E",
"-  c #674638",
";  c #4B3D40",
":  c #6B3D43",
">  c #2D4F42",
",  c #3A4C43",
"<  c #315445",
"1  c #385448",
"2  c #365C4C",
"3  c #3E5C51",
"4  c #366C56",
"5  c #4D484A",
"6  c #554C4A",
"7  c #45564E",
"8  c #474F52",
"9  c #4B4B54",
"0  c #4C5755",
"q  c #5B5754",
"w  c #6B464B",
"e  c #6F4C4E",
"r  c #7A4B59",
"t  c #7C595B",
"y  c #4A6657",
"u  c #4A6A5B",
"i  c #506756",
"p  c #7F6048",
"a  c #636057",
"s  c #746659",
"d  c #595B63",
"f  c #795F66",
"g  c #4B6760",
"h  c #5B6E62",
"j  c #4A7664",
"k  c #5D7A67",
"l  c #6C6B6E",
"z  c #736765",
"x  c #647967",
"c  c #7A746C",
"v  c #74786F",
"b  c #6C6A75",
"n  c #7F6C7A",
"m  c #687879",
"M  c #7A7876",
"N  c #844E5A",
"B  c #8F5A54",
"V  c #88575A",
"C  c #88585A",
"Z  c #915B55",
"A  c #85655D",
"S  c #95605B",
"D  c #AB7858",
"F  c #965D6B",
"G  c #806F6D",
"H  c #896A68",
"J  c #9D616F",
"K  c #85766B",
"L  c #8C7473",
"P  c #AE7967",
"I  c #A76674",
"U  c #18A068",
"Y  c #21A46E",
"T  c #2AA774",
"R  c #35AC7C",
"E  c #418D6D",
"W  c #5E8169",
"Q  c #538B73",
"!  c #5A8976",
"~  c #469F79",
"^  c #63886D",
"/  c #6C8977",
"(  c #768778",
")  c #6D9274",
"_  c #709778",
"`  c #86897E",
"'  c #B7886C",
"]  c #A68375",
"[  c #B6867F",
"{  c #C88D75",
"}  c #D19472",
"|  c #7F7D8B",
" . c #8A7683",
".. c #5D9B82",
"X. c #6F8D80",
"o. c #788482",
"O. c #7B8C87",
"+. c #659A84",
"@. c #799487",
"#. c #57AA87",
"$. c #46B284",
"%. c #4CB488",
"&. c #52B68C",
"*. c #57B891",
"=. c #5BB993",
"-. c #67A98E",
";. c #7CA18E",
":. c #65AD90",
">. c #6CAD93",
",. c #79A892",
"<. c #6BB597",
"1. c #61BB96",
"2. c #6CB799",
"3. c #65BD99",
"4. c #6DBE9D",
"5. c #74B399",
"6. c #7BB19B",
"7. c #71BD9E",
"8. c #70BFA0",
"9. c #6FC09F",
"0. c #70C09F",
"q. c #6FC1A0",
"w. c #70C0A0",
"e. c #79C3A6",
"r. c #74C8A6",
"t. c #7DC5A9",
"y. c #878580",
"u. c #81828C",
"i. c #88898B",
"p. c #878795",
"a. c #9B8891",
"s. c #959097",
"d. c #98969A",
"f. c #AD938E",
"g. c #B79A8D",
"h. c #8F90A0",
"j. c #9595A2",
"k. c #9B99A5",
"l. c #9D9EAC",
"z. c #A69CA1",
"x. c #81B9A4",
"c. c #ACA0A3",
"v. c #A4A2AD",
"b. c #AAA4AD",
"n. c #B5A5A5",
"m. c #B9A9AA",
"M. c #A4A5B2",
"N. c #A7A8B3",
"B. c #ADACB5",
"V. c #AEAEB8",
"C. c #B4AAB1",
"Z. c #B0AFB9",
"A. c #B4B4BD",
"S. c #C69882",
"D. c #D3A48C",
"F. c #C5A197",
"G. c #D9AA96",
"H. c #D7AD9C",
"J. c #EAB795",
"K. c #C5AFAA",
"L. c #C7B2AD",
"P. c #D7BCAF",
"I. c #CDBBB7",
"U. c #E6BEA9",
"Y. c #83C6AD",
"T. c #87C8AF",
"R. c #87C8B0",
"E. c #8BC9B2",
"W. c #91CBB6",
"Q. c #96CDB9",
"!. c #9ACEBC",
"~. c #9ED0BF",
"^. c #F5C6A5",
"/. c #F3C6AC",
"(. c #F4C9AE",
"). c #E5C6B7",
"_. c #F5CCB3",
"`. c #F8CFB7",
"'. c #F8D0B7",
"]. c #F7D2BC",
"[. c #F9D1B8",
"{. c #B7B7C1",
"}. c #BBBBC4",
"|. c #BFBFC8",
" X c #C1C1C9",
".X c #ECCFC4",
"XX c #F5D4C3",
"oX c #EDDCDA",
"OX c #F1DBD5",
"+X c #EEDFE0",
"@X c #EAE4EE",
/* pixels */
"U Y =.w.w.9.q.9.w.w.9.w.w.q.0.w.w.w.w.w.w.q.8.w.w.q.q.w.0.8.w.q.",
"Y T 1.q.4.9.9.q.w.w.w.w.0.7.7.7.7.4.7.0.w.w.w.w.w.8.8.w.w.w.w.0.",
"=.1.4.9.*.%.1.0.w.0.w.w.;.( c v v v @.5.w.q.8.8.w.q.8.w.w.9.w.8.",
"w.0.w.4.&.$.1.0.w.w.0.w.` S Z B Z Z K ,.8.8.q.8.w.w.w.w.9.w.e.w.",
"w.w.w.q.3.3.4.9.8.,.G t P } } } } } ' S t ( 7.8.w.w.w.w.w.T.Q.Y.",
"w.w.9.0.9.9.9.4.2.K P G.U._././.(.(./.G.{ P _ w.w.8.w.w.w.E.!.Y.",
"W.E.e.9.9.9.$.R #.K S..X+XoXXX[.'.'.[._.J.[ ^ w.w.w.w.w.w.e.Y.e.",
"~.!.e.w.0.4.R Q c g.U.+X@X+XXX`.'.'.'.'._.K.] O.7.w.w.8.w.w.w.8.",
"Y.Y.e.9.w.9.*.( C H.[.OX+XOXXX[.`.`.`.].`.U.[ G 5.q.8.8.w.w.w.8.",
"w.w.0.q.w.w.q.` C H.].].].].].[.`.].`.XX`.U.f.G ..w.8.8.w.w.w.w.",
"8.q.w.w.w.q.q.y.B G.`.`.`.[.[.`.`.`.].U.U.L.b.i.u 1.*.3.q.w.w.q.",
"w.9.w.w.w.w.w.y.V } J.^.[.[.[.[.[.].U.m.z.b.{.Z.o.4 E 1.8.w.w.8.",
"q.w.q.7.w.q.q.y.V D.^.(.'.).K.n.m.n.n.B.V.{.|. Xd.o j 3.w.w.w.w.",
"w.8.w.w.w.w.9.i.A D.^.D.F.K.b.l.l.l.N.}.|.|.|.}.p.X j q.w.w.w.8.",
"0.q.8.w.w.w.5.O.G S.' ] a.k.Z.A.V.V.}.|.|.{.V.j.d 3 ! w.w.w.w.q.",
"w.w.w.0.w.w.@.i.s.g.s z.m.v.Z.|.V.N.A.A.A.v.u.m m >.<.7.q.w.8.w.",
"8.w.w.w.8.8.X.i.N.c.f.P.).L.C.{.A.v.j.k.j.O.d 0 8.x.w.w.w.w.w.w.",
"w.w.w.w.8.8.+.p.k.b.I.I.K.m.v.v.M.j.p.b 8 7 g ! 8.8.w.w.w.w.w.w.",
"w.w.w.8.8.w.>.O.M s.A.Z.v.M.l.h.p. .b #   & ~ 9.8.e.8.8.w.q.w.8.",
"w.w.w.w.w.w.8.,.( o.s.p.p.a. .L | l 9 + X 2 ~ 9.8.8.8.w.w.8.q.q.",
"w.w.w.q.q.8.w.8.7.5.@.# $ : w e : q u u y = 4 9.w.w.8.w.8.e.e.w.",
"w.8.8.w.w.w.w.w.8.8.6., $ w a x q 0 W W u 2 4 Q 4.q.w.w.w.E.Q.R.",
"e.e.w.w.8.w.w.w.8.<.j 6 z G ^ ^ h 0 h k y = o = -.4.w.w.w.R.Q.R.",
"Q.W.e.w.w.w.w.8.w.+.@ f s.O./ ) x 0 8 7 & 6 A s j =.w.q.w.e.e.e.",
"!.Q.e.w.w.w.w.w.q.-.3 l / k ^ _ ) h 9 $ . s U.P @ *.w.w.w.w.9.w.",
"t.t.w.w.w.w.w.w.9.9.r.> = ^ ) ) ( n F N O - D p 2 q.w.w.w.w.w.w.",
"4.9.w.w.8.q.w.w.9.9.q.2 & u x z H I I I N % O i 2.4.4.4.w.w.w.q.",
"w.w.w.w.w.w.0.0.=.%.9...y & 5 r J I I J r ; < ..4.*.&.3.w.0.w.w.",
"w.0.8.w.w.w.8.9.&.$.*.9.<.:.! 6 w z z q $ g 4.w.4.&.$.=.w.w.w.w.",
"w.w.q.w.0.w.w.9.3.=.4.9.w.q.+.1 * 3 7 < * j r.q.9.3.=.4.w.8.9.w.",
"8.w.w.0.0.q.w.w.w.w.q.w.w.q.4.q.Q > = j <.4.9.0.9.9.w.w.w.0.4.w.",
"0.q.w.q.w.w.Y.R.e.w.8.w.w.w.q.4.4.4.1.9.9.9.e.Y.Y.e.w.w.4.1.*.3."
};
