/* XPM */
static char *npcL21709309385[] = {
/* columns rows colors chars-per-pixel */
"32 32 186 2 ",
"   c #040A08",
".  c #111915",
"X  c #131E19",
"o  c #1B2924",
"O  c #1D332A",
"+  c #252828",
"@  c #24342C",
"#  c #26352E",
"$  c #313636",
"%  c #313F3B",
"&  c #46292D",
"*  c #432F32",
"=  c #5B383A",
"-  c #29463B",
";  c #2B4A3E",
":  c #344336",
">  c #34453B",
",  c #344B3E",
"<  c #5C4437",
"1  c #6A4F3C",
"2  c #643943",
"3  c #2D4F40",
"4  c #344C42",
"5  c #394D43",
"6  c #3A5649",
"7  c #3B6454",
"8  c #3F6958",
"9  c #357554",
"0  c #494544",
"q  c #594D41",
"w  c #495649",
"e  c #4E4D51",
"r  c #4A5954",
"t  c #555959",
"y  c #684449",
"u  c #754F54",
"i  c #675452",
"p  c #74575C",
"a  c #4A6B5A",
"s  c #536559",
"d  c #53705C",
"f  c #61674B",
"g  c #71605C",
"h  c #785C66",
"j  c #586E61",
"k  c #497B67",
"l  c #547669",
"z  c #5E7E69",
"x  c #666866",
"c  c #726C65",
"v  c #7D636A",
"b  c #687867",
"n  c #78746B",
"m  c #676D74",
"M  c #6B6E74",
"N  c #747378",
"B  c #8B665E",
"V  c #956A5F",
"C  c #8B5863",
"Z  c #965A66",
"A  c #8E6A6B",
"S  c #95676A",
"D  c #99746F",
"F  c #977B6C",
"G  c #8D6F79",
"H  c #887972",
"J  c #A3616F",
"K  c #A77766",
"L  c #A96775",
"P  c #B26979",
"I  c #A77E73",
"U  c #1BA26B",
"Y  c #21A46E",
"T  c #2AA774",
"R  c #36AB7C",
"E  c #5D8167",
"W  c #4E8D73",
"Q  c #598873",
"!  c #4A9778",
"~  c #56977D",
"^  c #62846B",
"/  c #70806E",
"(  c #658672",
")  c #6A8B73",
"_  c #66897B",
"`  c #718879",
"'  c #6D9476",
"]  c #72907E",
"[  c #8A8677",
"{  c #B9896C",
"}  c #A78B78",
"|  c #C88E6C",
" . c #C49274",
".. c #747380",
"X. c #6D8F81",
"o. c #7B8784",
"O. c #7C8885",
"+. c #6D9A88",
"@. c #749588",
"#. c #4FA281",
"$. c #45B284",
"%. c #4DB58A",
"&. c #52B68C",
"*. c #5BB18D",
"=. c #58B791",
"-. c #5BB992",
";. c #65A68B",
":. c #73A68D",
">. c #66AC91",
",. c #67B194",
"<. c #69B295",
"1. c #61BB96",
"2. c #6DB699",
"3. c #66BD99",
"4. c #6DBE9D",
"5. c #75B399",
"6. c #71BD9E",
"7. c #6FBFA0",
"8. c #7DB9A2",
"9. c #6FC09F",
"0. c #70C09F",
"q. c #6FC1A0",
"w. c #70C0A0",
"e. c #79C3A6",
"r. c #73C8A6",
"t. c #7EC5A9",
"y. c #87878A",
"u. c #94838C",
"i. c #888796",
"p. c #908E99",
"a. c #95949B",
"s. c #B49A96",
"d. c #BAA39B",
"f. c #9997A4",
"g. c #9C9CA8",
"h. c #A69DA3",
"j. c #9FA0AA",
"k. c #8BB7A7",
"l. c #AEA1A5",
"z. c #A3A2AD",
"x. c #ACA5AB",
"c. c #BBA9A6",
"v. c #B7ABAD",
"b. c #A6A6B2",
"n. c #ACABB4",
"m. c #AFAFBA",
"M. c #B5ADB3",
"N. c #B2B2BC",
"B. c #C79886",
"V. c #D09D87",
"C. c #CDA385",
"Z. c #D5A386",
"A. c #CAA596",
"S. c #E0AB8F",
"D. c #E7B292",
"F. c #E9B593",
"G. c #D9ADA0",
"H. c #DEB1A0",
"J. c #D6BAAE",
"K. c #C5B3B0",
"L. c #D1BBB3",
"P. c #E2B7A0",
"I. c #83C6AC",
"U. c #87C8AF",
"Y. c #87C8B0",
"T. c #8CCAB3",
"R. c #91CBB6",
"E. c #96CDB9",
"W. c #9ACEBC",
"Q. c #9ED0BF",
"!. c #F1C09A",
"~. c #F4C7A7",
"^. c #E5C4B5",
"/. c #F5CCB5",
"(. c #F4CEB9",
"). c #F8D0B7",
"_. c #F6D2BF",
"`. c #F9D0B9",
"'. c #B7B8C1",
"]. c #BBBBC4",
"[. c #C1C1C9",
"{. c #EBD4CF",
"}. c #F3D3C3",
"|. c #EFDDDC",
" X c #F0DBD6",
".X c #EAE4EE",
/* pixels */
"U U 1.w.w.9.q.7.w.w.0.q.6.w.6.w.w.w.7.w.w.w.9.w.w.9.w.0.w.w.0.w.",
"Y T -.9.4.9.9.q.w.7.w.w.w.4.4.6.6.4.6.w.w.w.w.w.w.w.w.q.w.q.w.w.",
"1.1.4.9.&.%.1.0.w.w.w.w.w.] c c c c ` 5.9.0.w.q.w.w.w.w.w.w.0.w.",
"0.0.q.4.&.$.1.0.7.w.6.n u K | | | | { V p @.w.q.w.9.w.0.w.w.w.w.",
"w.w.0.q.3.3.9.9.0.0.:.F K V.F.D.D.D.S. .I [ :.q.w.w.w.w.e.I.R.I.",
"w.w.w.q.0.0.4.4.9.0.n  .^.{.}.)././././.P.I n q.w.7.w.w.w.T.Q.Y.",
"R.T.e.6.q.9.$.R =.9.u.G.|..X X_.).).).)./.V.F q.w.w.w.w.w.e.t.e.",
"Q.W.e.7.q.7.R U Q [ A.}.|..X X_.).).).).)./.A.M w.w.7.w.w.w.w.w.",
"I.I.w.w.w.9.=.%.( S H.`._.}.}.`.).).).).).(.A.v 5.8.7.7.7.q.7.q.",
"w.w.w.w.q.w.4.q.] A H.`.).).`.`.).).).).(.L.l.u.s ;.7.7.7.7.w.7.",
"q.w.w.w.w.0.w.q.) B Z.!.~.)././.).).^.K.l.x.N.N.o.a =.7.w.w.w.w.",
"w.w.w.w.w.w.w.q.( B Z.~.).`.J.K.c.c.c.x.b.m.[.[.h.6 $.-.w.w.7.w.",
"w.w.w.w.w.w.q.9._ H C.F.B.s.v.n.n.M.m.N.].].[.].p.4 -.3.w.w.w.w.",
"0.w.w.4.w.w.9.q.+.[ C.{ D u.z.'.'.N.'.[.[.].m.j.m l 7.7.7.w.w.w.",
"w.0.w.w.w.w.t.k.O.a.A.F s.v.z.N.'.n.m.N.m.b.i.m l >.7.w.q.w.7.w.",
"w.q.w.w.w.w.T.k.y.z.x.d.L.L.v.n.m.b.f.f.i...m ..5.8.q.w.7.w.w.w.",
"6.w.w.w.w.7.I.k.O.p.N.K.K.h.z.b.g.g.p.i.j + e k.T.r.q.w.7.w.w.w.",
"q.w.w.7.w.4.e.6.@.@.a.n.g.f.g.f.i...M t $ O k r.e.r.7.w.w.w.7.w.",
"w.w.w.w.w.7.q.q.2.;.+.O.M G G C h h t % @ 7 ! 9.7.q.7.w.w.w.w.w.",
"w.w.w.w.w.w.q.w.7.7.7.X.@ & y i i i s l a 6 ; W q.7.q.7.w.7.q.w.",
"w.7.w.w.w.w.q.w.7.7.7.@.e y g z b s d ' ^ 6 o O r.q.w.w.7.w.e.e.",
"q.q.w.0.w.w.w.w.7.7.<.r u u.] ^ ^ s r j d 5 < w ;.2.w.w.w.T.E.I.",
"e.e.w.w.w.w.w.w.w.w.<.a N ` ^ ' ' ^ t e 0 q s.} w ~ w.w.w.U.W.I.",
"E.R.e.7.w.w.w.w.w.w.w.r.l s ' ' ' ) x h y < | K : W w.w.w.e.e.e.",
"W.E.e.w.w.w.w.w.w.w.0.6.4 , E ^ / H A D Z = 1 f 9 #.w.w.w.q.9.w.",
"t.t.w.w.w.w.w.0.w.w.2.Q 5 @ @ e A L P P J 2 O ! =.9.9.q.w.w.0.w.",
"9.0.w.w.w.0.7.w.4.4.>.; > @   * C Z J L J = ; >.q.9.9.9.w.w.w.q.",
"9.7.0.w.q.w.w.0.-.&.*.k % % > 3 3 @ = S g 6 w @ 9.-.%.3.w.w.0.w.",
"w.0.w.w.7.w.7.0.&.$.-.w.8 o X 7 <.8 + s b a , ; 9.&.$.1.w.w.w.0.",
"7.w.w.0.w.0.w.9.3.-.3.9.2.,.,.2.7.2.2.k . . - 3.4.3.-.3.w.7.w.w.",
"w.w.7.w.w.w.w.w.w.w.0.w.q.9.w.w.w.w.q.4.2.4.4.9.0.0.7.w.w.4.4.w.",
"0.w.q.w.0.w.t.T.e.w.w.w.q.9.q.w.6.w.w.4.0.w.w.I.U.e.q.q.9.1.-.3."
};
