/* XPM */
static char *npcR21709309386[] = {
/* columns rows colors chars-per-pixel */
"32 32 163 2 ",
"   c #080607",
".  c #070B09",
"X  c #160B0C",
"o  c #0E1310",
"O  c #111612",
"+  c #191A17",
"@  c #1C1D1D",
"#  c #15221D",
"$  c #1E1F21",
"%  c #351F23",
"&  c #1F2924",
"*  c #232725",
"=  c #31322E",
"-  c #2D3A34",
";  c #3A3838",
":  c #433035",
">  c #433D35",
",  c #5B493D",
"<  c #3E3D44",
"1  c #6B3D43",
"2  c #3B4945",
"3  c #395145",
"4  c #3B594B",
"5  c #386552",
"6  c #43454A",
"7  c #5B474B",
"8  c #415B4B",
"9  c #484851",
"0  c #465150",
"q  c #555957",
"w  c #604C4A",
"e  c #744752",
"r  c #754952",
"t  c #695556",
"y  c #7C525B",
"u  c #476555",
"i  c #4B6B5B",
"p  c #59655D",
"a  c #58735C",
"s  c #4A7866",
"d  c #4A7966",
"f  c #587864",
"g  c #686868",
"h  c #706B64",
"j  c #7A796C",
"k  c #677C73",
"l  c #6F7D7A",
"z  c #747874",
"x  c #8D5D4F",
"c  c #9B635A",
"v  c #A76A59",
"b  c #A3705E",
"n  c #B37E5D",
"m  c #955966",
"M  c #995A68",
"N  c #9A716C",
"B  c #9E766E",
"V  c #996570",
"C  c #A66573",
"Z  c #AC6776",
"A  c #B06878",
"S  c #AF7E76",
"D  c #17A067",
"F  c #1FA36D",
"G  c #27A672",
"H  c #35AB7A",
"J  c #3DAF7E",
"K  c #568E78",
"L  c #4E9878",
"P  c #64876D",
"I  c #698C71",
"U  c #788E76",
"Y  c #6D9475",
"T  c #709878",
"R  c #A2826B",
"E  c #AF856F",
"W  c #BB8370",
"Q  c #B08079",
"!  c #7E7C85",
"~  c #A07E81",
"^  c #5B9C82",
"/  c #7B8F87",
"(  c #689484",
")  c #649F88",
"_  c #789987",
"`  c #47B285",
"'  c #49B386",
"]  c #4DB389",
"[  c #54B78E",
"{  c #5BB992",
"}  c #65A58B",
"|  c #71A38F",
" . c #67AC90",
".. c #6BAE94",
"X. c #70AE93",
"o. c #7BAB94",
"O. c #7AAD99",
"+. c #66B394",
"@. c #6BB295",
"#. c #61BB96",
"$. c #65BC99",
"%. c #6CBE9D",
"&. c #71B79A",
"*. c #6FC09F",
"=. c #6FC0A0",
"-. c #70C0A0",
";. c #79C3A6",
":. c #7DC4A9",
">. c #888E8C",
",. c #908D83",
"<. c #9E998C",
"1. c #858595",
"2. c #8B8B9A",
"3. c #949197",
"4. c #94929E",
"5. c #99959D",
"6. c #B08893",
"7. c #AD9B99",
"8. c #9595A2",
"9. c #9A99A6",
"0. c #9C9CA9",
"q. c #A29DA6",
"w. c #A8A2AA",
"e. c #B8A4A0",
"r. c #A6A6B2",
"t. c #ADACB7",
"y. c #B6B1B6",
"u. c #B3B3BD",
"i. c #CFA190",
"p. c #D0A293",
"a. c #E4AD8B",
"s. c #EAB386",
"d. c #EAB798",
"f. c #ECBC9F",
"g. c #C9B3AC",
"h. c #D7B9AB",
"j. c #DCBEB0",
"k. c #E7BAA0",
"l. c #83C6AD",
"z. c #87C8AF",
"x. c #8CC9B3",
"c. c #92CBB7",
"v. c #94CCB8",
"b. c #9ACEBC",
"n. c #9FD0BF",
"m. c #EFC09B",
"M. c #F4C9AF",
"N. c #E1C1B1",
"B. c #EFC8B3",
"V. c #F5CDB5",
"C. c #F7D0B9",
"Z. c #F8D0B8",
"A. c #B7B7C1",
"S. c #BCBCC5",
"D. c #A3D1C2",
"F. c #C0C0C8",
"G. c #CBC3D0",
"H. c #F2D3C3",
"J. c #F3D7CC",
"K. c #EEDEDE",
"L. c #F2D9D0",
"P. c #EBE2EA",
"I. c #E8E8F8",
/* pixels */
"D F $.-.-.-.-.-.-.-.-.-.-.-.-.-.=.-.-.-.-.-.-.-.-.-.-.=.-.-.-.*.",
"F G $.-.%.%.-.-.-.-.-.=.-.-.-.-.-.-.-.=.-.-.-.-.-.-.-.-.-.-.-.-.",
"$.$.-.*.] ` %.-.-.-.-.-.=.=.=.-.-.-.-.-.-.-.-.-.-.-.-.-.*.*.-.-.",
"-.-.-.%.' ` %.-.-.-.-.-.-.;.&.X.X.X.X.%.-.-.-.-.-.-.=.-.-.;.-.=.",
"-.-.-.-.%.%.*.*.-.-.-.-.N ,.b v v v v j j | -.-.-.-.-.=.z.n.l.*.",
"-.-.-.-.*.*.%.%.%.-.o.B S p.k.k.f.k.f.p.W B -.-.-.-.-.-.x.n.l.*.",
"b.v.-.-.%.%.H G #.-.( x a.V.Z.Z.Z.Z.H.J.k.c -.-.-.-.-.-.-.;.-.-.",
"D.b.;.-.-.%.G F #.;.,.i.C.C.Z.Z.Z.Z.P.I.L.p.<._ -.=.-.-.-.-.-.-.",
";.;.-.-.-.*.#.#.%.-.c C.Z.Z.Z.Z.C.C.K.P.J.Z.S h -.-.-.-.-.-.-.-.",
"-.=.-.-.-.-.-.-.} ( ~ j.Z.Z.Z.Z.Z.C.C.Z.Z.Z.Q h *.*.-.-.-.-.-.-.",
"-.-.-.-.-.-.-.%.5 q t.q.B.V.Z.Z.Z.Z.Z.Z.V.V.E h { ' { -.-.-.-.-.",
"-.-.-.=.-.-.-.^ g F.F.u.8.q.j.j.N.N.C.Z.m.s.b h [ J { -.-.-.-.-.",
"=.-.-.-.-.*.-.^ g A.F.S.S.A.8.8.8.8.h.B.M.M.S h %.$.*.-.=.-.-.-.",
"-.-.-.-.-.-.-.^ 9 0.F.F.S.S.F.F.F.S.9.e W s.R k =.=.*.-.-.-.-.=.",
"-.-.-.*.-.-.c.c.i < 2.0.S.S.S.8.A.S.9.G.g R e.! O.=.-.-.-.-.-.-.",
"-.=.-.-.-.-.b.n.X.) < 2.8.8.8.A.S.8.g.H.h.7.w.3.O.*.=.-.-.=.-.-.",
"-.=.-.-.-.-.:.:.-.=.K $ & ~ 1.4.4.A.q.4.y.S.0.! X.-.-.-.=.-.-.-.",
"-.-.-.-.-.-.=.%.=.=. .s   < g 1.1.0.r.t.A.5.z l &.-.-.-.-.-.-.=.",
"-.%.-.=.-.-.-.-.=.-.^ < 4 4 u r e e y ; q Y +.%.-.-.-.=.-.-.-.-.",
"-.-.-.-.-.-.-.-.-.=.5 - i d f 7 t w 1 X p L { -.-.-.-.-.-.-.=.-.",
"-.-.-.-.-.-.-.-.-.=.. - i I p 6 I u >.y 0 K *.*.-.-.-.=.l.c.:.=.",
"-.-.-.-.=.-.-.=.....> ; 2 a 2 q I f 3.6.: d -.-.-.=.-.*.x.D.x.%.",
"c.x.-.-.-.-.-.%.3 , d.R X t 0 Y T T P g p ^ ] H { -.-.-.;.l.;.%.",
"D.b.;.-.-.-.-.%.s , n x % V p U I T Y + / -.H D ] -.-.-.=.-.-.-.",
"l.l.-.-.-.-.-.-.-.-.# % A A Z Z h a 8 # k +.{ ] $.-.-.-.%.-.-.-.",
"-.%.-.-.-.-.-.-.-.-.K = M A Z m m O o 2 * d -.-.-.-.-.-.-.-.-.-.",
"-.-.-.-.-.-.-.*.[ [ * u + Z C   . 4 u 2 $ d -.-.#.[ #.-.-.-.-.-.",
"-.-.-.-.-.-.-.%.` J = i f a % - @.* @ @ | =.-.-.[ J { -.-.-.-.-.",
"-.=.-.-.-.-.-.*.{ { d o O ; } ..-.} } } -.-.-.-.$.{ %.-.-.-.-.-.",
"-.-.-.-.-.-.-.*.-.=.-.-.-.=.=.-.-.-.-.-.-.-.-.*.%.-.%.-.-.-.-.-.",
"-.-.-.-.-.-.l.x.;.=.=.-.-.=.-.-.-.-.-.-.-.-.l.x.:.-.-.-.$.[ $.%.",
"=.-.-.-.-.-.b.n.;.=.-.-.-.-.-.-.-.-.-.-.-.-.x.D.l.%.-.-.[ J { -."
};
