/* XPM */
static char *npcR31709309386[] = {
/* columns rows colors chars-per-pixel */
"32 32 184 2 ",
"   c #000302",
".  c #1A241F",
"X  c #1C2420",
"o  c #1F2C25",
"O  c #282B29",
"+  c #24332C",
"@  c #26392E",
"#  c #283731",
"$  c #363436",
"%  c #412C33",
"&  c #433637",
"*  c #55353B",
"=  c #284035",
"-  c #32463C",
";  c #51463D",
":  c #64403D",
">  c #583B42",
",  c #693D48",
"<  c #2F4E41",
"1  c #344D42",
"2  c #3F4843",
"3  c #395547",
"4  c #385C4D",
"5  c #3F5F51",
"6  c #396454",
"7  c #43454B",
"8  c #435447",
"9  c #4C5453",
"0  c #575856",
"q  c #6C444C",
"w  c #71494E",
"e  c #705B4E",
"r  c #6B5958",
"t  c #72545F",
"y  c #47624F",
"u  c #456554",
"i  c #4C6558",
"p  c #436C5B",
"a  c #55755D",
"s  c #676657",
"d  c #575C62",
"f  c #765961",
"g  c #576D61",
"h  c #4F7768",
"j  c #5A7663",
"k  c #5A776B",
"l  c #657568",
"z  c #7B706D",
"x  c #786C76",
"c  c #667074",
"v  c #78767D",
"b  c #845D46",
"n  c #A5695C",
"m  c #8E5360",
"M  c #995A69",
"N  c #876E6E",
"B  c #916D64",
"V  c #967968",
"C  c #9D6270",
"Z  c #8E7373",
"A  c #887578",
"S  c #907273",
"D  c #AC6676",
"F  c #B36979",
"G  c #A37D70",
"H  c #3D8869",
"J  c #1BA16A",
"K  c #21A46E",
"L  c #2AA774",
"P  c #35AB7B",
"I  c #3CAD7F",
"U  c #4D826C",
"Y  c #5E836C",
"T  c #5F886C",
"R  c #568675",
"E  c #5A957D",
"W  c #698D71",
"Q  c #6A8876",
"!  c #6F8E7D",
"~  c #768676",
"^  c #679274",
"/  c #719677",
"(  c #9C8678",
")  c #9C8B79",
"_  c #A68577",
"`  c #BB8771",
"'  c #B78B7F",
"]  c #BC967A",
"[  c #7C7D89",
"{  c #817E87",
"}  c #927D85",
"|  c #5C9D83",
" . c #6D9786",
".. c #739887",
"X. c #5FA187",
"o. c #46B284",
"O. c #4EB48A",
"+. c #52B68C",
"@. c #58B68E",
"#. c #59B791",
"$. c #5CB993",
"%. c #63A48A",
"&. c #64AB8F",
"*. c #76A68F",
"=. c #65AE90",
"-. c #75A993",
";. c #6BB395",
":. c #62BB96",
">. c #6DB699",
",. c #65BD99",
"<. c #6DBE9D",
"1. c #72B499",
"2. c #71BE9F",
"3. c #70BFA0",
"4. c #6EC09F",
"5. c #70C09F",
"6. c #6FC1A0",
"7. c #70C0A0",
"8. c #79C3A6",
"9. c #74C9A7",
"0. c #7EC5A9",
"q. c #878A89",
"w. c #95898A",
"e. c #839486",
"r. c #879487",
"t. c #8B8997",
"y. c #9E8A92",
"u. c #919896",
"i. c #93939D",
"p. c #A28E80",
"a. c #B78E82",
"s. c #A5968C",
"d. c #87A391",
"f. c #9A9AA6",
"g. c #A39FA6",
"h. c #8AB3A1",
"j. c #AEA2A5",
"k. c #A6A2AA",
"l. c #B0A4A7",
"z. c #A4A5B1",
"x. c #ABAAB5",
"c. c #B2ABB0",
"v. c #B3B2BC",
"b. c #B8B6BE",
"n. c #CB9680",
"m. c #D09F81",
"M. c #D9A88C",
"N. c #CCA89E",
"B. c #D7A996",
"V. c #E4B08E",
"C. c #E1AE93",
"Z. c #C1ADAA",
"A. c #C6B3AE",
"S. c #CBB3AB",
"D. c #D8B8AA",
"F. c #C8B6B4",
"G. c #E6B9A6",
"H. c #E8BDA8",
"J. c #83C7AD",
"K. c #85C8AE",
"L. c #87C8B0",
"P. c #8CC9B3",
"I. c #91CBB6",
"U. c #96CDB9",
"Y. c #9ACEBC",
"T. c #9ED1BF",
"R. c #F2C29F",
"E. c #F4C7A7",
"W. c #EAC3B1",
"Q. c #ECC8B4",
"!. c #F5CCB4",
"~. c #F8CFB6",
"^. c #F6CFB9",
"/. c #F8D0B7",
"(. c #F6D2BE",
"). c #F8D0B8",
"_. c #B7B8C1",
"`. c #BFBFC7",
"'. c #C2C2CA",
"]. c #F4D4C4",
"[. c #F3D8CE",
"{. c #EEDFE1",
"}. c #ECE3EB",
"|. c #E8E5F3",
/* pixels */
"J J $.7.7.6.7.6.7.5.7.7.7.2.7.7.7.6.7.7.4.7.7.5.7.6.7.7.7.7.7.7.",
"K L $.4.4.4.4.2.7.7.3.6.7.6.7.7.7.7.7.7.7.7.7.7.7.7.5.6.6.5.6.3.",
":.:.<.<.+.O.:.7.4.7.7.7.7.7.7.7.2.2.2.3.7.7.5.5.5.7.7.7.7.7.5.7.",
"7.5.6.4.+.o.:.5.7.7.7.4.7.7.r.Z Z Z S e.6.6.7.5.7.6.5.7.7.7.7.7.",
"7.7.6.6.,.,.4.4.3.6.6.2...q.S n n n n V ~ ..5.5.7.7.7.7.8.K.I.J.",
"7.7.7.2.5.7.4.<.6.3.6.e.G a.m.C.C.B.C.B.] _ w.*.6.7.7.3.7.P.Y.K.",
"I.P.8.6.6.4.o.P #.3.7.N ` H.!.!.~.~.~.].W.n.B ..7.7.7.7.7.8.J.8.",
"T.Y.8.3.6.3.P J O.1.d.p.C.~.).).~./.[.}.{.H.a.r.2.7.7.7.7.3.3.3.",
"J.J.7.7.5.4.#.O.:...Z B.^.^.).)././.[.|.}.].D.p.>.3.7.7.5.7.7.5.",
"7.7.7.7.7.6.<.3.6. .Z N.^.).).).).).(.].(.).H.p.>.7.5.2.7.7.7.7.",
"6.7.7.7.5.7.2.9.$.k q.j.D.).).).)./././././.G._ >.$.#.,.7.6.7.7.",
"5.7.7.7.7.6.7.U p q.v.v.c.g.D.Q.Q.Q.!./.!.R.M.) =.+.o.:.7.3.7.5.",
"7.7.7.7.5.7.7.4 7 g.'.'._.z.z.j.j.l.S./.!.E.V._ ;.$.#.,.3.7.7.6.",
"6.7.3.7.3.6.9.4 $ t.`.'.`.`._.z.x.x.c.s.' V.M.) 1.6.4.<.7.7.7.3.",
"2.7.7.7.7.7.0. .R c i.x._.`.`._._.'.x.t.} B ] s...-.7.6.7.6.7.5.",
"6.7.7.4.7.7.P.T.J.h 9 { z.x.x.z.v._.c.F.S.( s.g.{ Q 6.7.5.3.7.7.",
"7.6.7.7.3.7.K.P.0.X.k g d [ t.f.z.x.x.Z.S.A.c.f.v Q 7.7.7.7.7.7.",
"7.3.7.7.7.7.7.8.9.6.9.p . 7 [ q.t.f.z.g.x.b.k.t.~ ..7.6.6.3.3.6.",
"3.7.7.7.7.7.6.3.3.3.7.h o + 9 x A A } t.q.i.u. .-.1.6.7.3.6.7.7.",
"7.6.3.7.7.7.7.7.3.<.,.5 1 9 y r , w w * $ c h.:.3.3.6.3.7.3.6.7.",
"7.6.3.7.3.6.3.3.3.X.p = 4 Y j 0 0 s r q & k 3.:.7.3.7.7.6.8.8.7.",
"3.6.6.7.6.6.6.6.6.R + o 3 T a 7 g Q ~ y.f 9 6.3.7.7.7.7.7.P.U.J.",
"8.8.3.7.6.3.3.3.3.Y s e ; 9 0 9 k ^ ! u.z i 6.,.:.3.7.7.7.L.Y.J.",
"I.I.8.7.6.3.3.3.<.s ` m.: > t l / / ^ j i R ,.I P $.7.7.7.8.8.8.",
"Y.U.8.7.7.7.7.7.<.j b b q m C N z ~ W y 1 | ,.P L #.7.7.7.6.4.7.",
"0.0.7.7.7.7.3.7.6.X.6 X , C D F C r 8 - p &.<.$.#.,.7.6.7.7.7.7.",
"7.4.7.7.7.7.7.5.4.;.=.3 % q M D M * O 3 *.2.7.7.7.3.<.3.7.6.3.7.",
"7.7.7.5.4.7.7.5.#.H @ - O   * M * @ a W ^ ;.7.7.<.#.+.,.7.2.7.6.",
"7.3.5.6.7.7.7.4.#.H < - 2 # O O 3 a a a u %.7.7.,.+.o.$.7.7.7.7.",
"4.7.7.7.3.7.7.4.,.@.&.< 3 E &.&.p . . 3 >.<.7.7.5.:.$.<.7.7.2.7.",
"7.7.7.3.7.5.7.7.7.7.2.<.,.5.2.2.<.<.<.<.7.7.5.7.7.7.7.7.7.4.4.4.",
"7.7.7.5.6.7.J.L.8.7.7.7.7.7.5.5.5.5.5.5.7.7.7.J.K.8.6.7.<.:.#.,."
};
