/* XPM */
static char *npcR1709309385[] = {
/* columns rows colors chars-per-pixel */
"32 32 186 2 ",
"   c #1C1D19",
".  c #331F22",
"X  c #1E2A26",
"o  c #29332E",
"O  c #33342D",
"+  c #2B2B30",
"@  c #263F34",
"#  c #303C37",
"$  c #4E2E35",
"%  c #4F3D3A",
"&  c #2B4438",
"*  c #32443A",
"=  c #3A443B",
"-  c #384743",
";  c #364941",
":  c #3C4B44",
">  c #335145",
",  c #3B5649",
"<  c #3E5C51",
"1  c #3C6655",
"2  c #434942",
"3  c #474B4A",
"4  c #5A514E",
"5  c #494F53",
"6  c #4A5A55",
"7  c #575658",
"8  c #69494B",
"9  c #74504E",
"0  c #446455",
"q  c #4A6559",
"w  c #446D5C",
"e  c #56655B",
"r  c #4B715D",
"t  c #58725F",
"y  c #77614B",
"u  c #556964",
"i  c #487664",
"p  c #5A7463",
"a  c #597E6A",
"s  c #676966",
"d  c #7B6766",
"f  c #6E746E",
"g  c #7F7467",
"h  c #71736A",
"j  c #7E6673",
"k  c #687073",
"l  c #747978",
"z  c #7A7F7D",
"x  c #895758",
"c  c #9C6E51",
"v  c #AC755F",
"b  c #945967",
"n  c #816B67",
"m  c #9B666B",
"M  c #937B6D",
"N  c #9D7B6A",
"B  c #836973",
"V  c #9D6170",
"C  c #8D7E7B",
"Z  c #987972",
"A  c #AA7561",
"S  c #A97B66",
"D  c #AE6777",
"F  c #A76875",
"G  c #1BA16A",
"H  c #21A46E",
"J  c #2AA774",
"K  c #35AB7B",
"L  c #5A8975",
"P  c #4C9E7C",
"I  c #5A937D",
"U  c #65856E",
"Y  c #698D71",
"T  c #758978",
"R  c #6E9475",
"E  c #61937A",
"W  c #709777",
"Q  c #87827D",
"!  c #9B897B",
"~  c #A48574",
"^  c #A6877D",
"/  c #B98470",
"(  c #C89379",
")  c #D79C79",
"_  c #D99D7A",
"`  c #7C7C82",
"'  c #797886",
"]  c #8B7680",
"[  c #847D82",
"{  c #3EB282",
"}  c #5C9F84",
"|  c #778A80",
" . c #7D8882",
".. c #6D9B86",
"X. c #659F88",
"o. c #719283",
"O. c #789986",
"+. c #5CA989",
"@. c #45B284",
"#. c #4EB58A",
"$. c #52B68C",
"%. c #58B08B",
"&. c #59B791",
"*. c #5CB993",
"=. c #65A48A",
"-. c #64A58B",
";. c #6CA68D",
":. c #70A18B",
">. c #66AE91",
",. c #6BAA91",
"<. c #73AA94",
"1. c #69B395",
"2. c #62BB96",
"3. c #6BB799",
"4. c #66BD99",
"5. c #6DBE9D",
"6. c #70B196",
"7. c #74B499",
"8. c #70BD9E",
"9. c #77BAA0",
"0. c #6FC09F",
"q. c #70C09F",
"w. c #6FC1A0",
"e. c #70C0A0",
"r. c #79C3A6",
"t. c #7EC5A9",
"y. c #838C83",
"u. c #92868F",
"i. c #839185",
"p. c #8C8C93",
"a. c #888897",
"s. c #979398",
"d. c #92919E",
"f. c #A99188",
"g. c #AE908A",
"h. c #BCA59D",
"j. c #9595A2",
"k. c #9E9DA9",
"l. c #A29DA7",
"z. c #A19FA9",
"x. c #86ADA0",
"c. c #A2A1AD",
"v. c #AEA4A9",
"b. c #B1A3A4",
"n. c #B8ABAC",
"m. c #A4A5B1",
"M. c #ACABB6",
"N. c #ADAEB9",
"B. c #B1ADB4",
"V. c #AFB0BB",
"C. c #B3B3BC",
"Z. c #C39483",
"A. c #C79D90",
"S. c #D9A987",
"D. c #D5A897",
"F. c #DBAD93",
"G. c #ECB98E",
"H. c #E4B598",
"J. c #C9B1A8",
"K. c #D6B8AB",
"L. c #C8B8B6",
"P. c #E6BBA7",
"I. c #83C7AD",
"U. c #87C8AF",
"Y. c #87C8B0",
"T. c #8CC9B2",
"R. c #91CBB6",
"E. c #96CDB9",
"W. c #9ACEBC",
"Q. c #9ED0BF",
"!. c #EFC4AD",
"~. c #F3C6A6",
"^. c #F3C8AE",
"/. c #E6C5B6",
"(. c #ECC6B2",
"). c #F4CDB6",
"_. c #F9D0B7",
"`. c #F7D1BB",
"'. c #F8D0B8",
"]. c #BCBCC5",
"[. c #C1C1C9",
"{. c #F4D6C8",
"}. c #EFDDDA",
"|. c #F1DBD4",
" X c #EDE2E7",
".X c #E7E8F9",
/* pixels */
"G G 2.e.e.0.w.w.e.e.e.e.e.e.e.q.e.q.e.e.e.e.q.e.e.q.q.e.e.e.e.w.",
"H J *.0.0.5.0.w.q.q.q.e.e.q.8.8.8.8.8.8.q.e.e.e.w.e.e.e.w.8.e.e.",
"2.2.5.5.$.#.2.q.q.q.q.q.8.e.o.h h h h l :.q.0.w.e.w.e.w.e.e.e.w.",
"e.q.w.0.$.@.2.q.q.q.q.7.y.C N A v v v v Z C i.w.8.e.e.e.e.e.e.e.",
"e.e.w.8.4.4.0.0.e.e.8...b x S _ ) ) ) ( S x g 7.8.e.e.8.e.I.E.I.",
"e.e.w.w.q.0.5.5.w.e.y.m ( P.^.!.^.^.^.)./.H./ d O.w.e.w.e.R.W.U.",
"R.T.r.w.w.w.@.K *.e.Q m D.).'.'.`._.`.|. X}.D.x  .e.e.e.e.r.I.r.",
"Q.W.r.e.e.8.K G $.U f.D.(.'.'.'.`.`.`.}..X X!.A.u.;.e.e.e.e.e.8.",
"I.I.e.e.e.w.&.#.4.s g.!.'.'.'.'.'.'.'.{.|.{.).P.~ O.q.e.e.e.e.e.",
"e.e.e.e.e.e.w.3.} h g.K.).'.'.'.'.'.'.'.'.'._.P.^ W q.q.e.q.q.e.",
"w.e.e.e.8.e.5.I p p.n.n.J.K./.`.'.'.'.'.'.^.~.H.~ E $.4.e.e.e.e.",
"e.e.e.e.8.8.1.6 ` V.].B.l.l.K.).).).)._.'.^.G.S.N I @.2.e.q.e.w.",
"e.e.w.e.e.e.>.: u.].[.].V.M.v.b.b.b.b.K.).!.~.H.! E &.4.e.e.8.e.",
"w.e.e.8.e.w.>.- ' V.].[.[.[.N.z.m.m.m.v.g.Z.G.F.! ..0.w.e.w.e.w.",
"e.e.e.e.e.e.9.u 5 d.M.N.].[.[.].M.].].z.u.Z ~ F.^ o.<.e.e.e.e.e.",
"q.e.0.e.e.e.T.x.a u ' j.M.M.M.m.M.].M.B.J.h.M A.l.T | 8.w.e.w.e.",
"e.8.e.e.e.e.Y.T.9.< 5 ' [ d.d.l.C.N.k.n././.J.c.k.C z 8.w.e.w.e.",
"e.w.e.w.e.e.e.r.9.} u 5 5 k ' j.k.c.m.v.n.L.L.z.d.z | w.e.e.e.e.",
"e.w.e.e.8.e.w.w.5.r.-.1 + + 7 ` a.d.k.c.m.N.B.p.T o.<.e.e.e.w.8.",
"e.e.e.e.e.e.e.e.w.w.-.i @ X 2 s j j B ] [ [ p.| | 6.e.e.e.w.w.e.",
"e.8.w.e.e.e.e.e.w.+.6 ; , r p 7 8 8 8 8 . o L 5.8.8.e.e.w.r.r.r.",
"w.w.e.e.e.e.8.w.r.> o > r Y Y e 6 p e 4 $ - +.e.e.e.w.e.e.Y.E.I.",
"r.r.e.e.e.e.8.5.1., o - 6 U p 5 u a p f B 4 w 4.4.5.e.e.e.Y.E.I.",
"E.R.r.e.e.e.8.,.q g ~ d 2 3 5 6 U Y Y T s.d @ { K *.e.e.e.r.r.r.",
"W.E.r.e.e.e.e.X.# N H./ % % 4 s R W R U k s w K J &.e.e.e.e.w.e.",
"t.r.e.w.e.e.8.,.1 y c 9 8 b b n T Y R U * ; 1.2.&.4.e.e.e.e.e.e.",
"w.w.e.e.8.w.w.w.w.w   . 9 D D D V x t 0 * 0 3.e.e.w.5.5.e.w.w.8.",
"e.e.e.e.e.e.e.q.*.P , O 8 V F F V 9 = & r >.5.e.5.&.$.4.e.e.e.e.",
"w.e.e.w.e.e.e.0.$.@.%.L 3 3 e e 3 0 =.>.3.e.e.e.5.$.@.2.e.e.e.e.",
"q.e.e.e.e.w.e.0.4.*.4.=.r - * & - a 5.8.e.e.e.e.0.2.*.4.e.e.w.8.",
"e.e.8.e.q.w.e.e.e.e.e.e.=.w > > i >.e.8.e.e.q.e.q.q.e.e.e.0.0.0.",
"8.e.w.e.e.e.I.Y.r.e.e.e.8.3.5.5.8.8.e.w.e.e.e.I.I.r.e.e.5.2.&.4."
};
