/* XPM */
static char *npcT21709309386[] = {
/* columns rows colors chars-per-pixel */
"32 32 182 2 ",
"   c #0E0B0F",
".  c #28181A",
"X  c #1E201F",
"o  c #351C23",
"O  c #1B2721",
"+  c #1A3229",
"@  c #252A2A",
"#  c #2E2E2D",
"$  c #362A2D",
"%  c #26332D",
"&  c #2D3633",
"*  c #293931",
"=  c #363B3B",
"-  c #343C3A",
";  c #4B2E33",
":  c #443636",
">  c #5E3C37",
",  c #1F4233",
"<  c #2D493E",
"1  c #3B463C",
"2  c #334C3F",
"3  c #5E4B3F",
"4  c #634236",
"5  c #704F38",
"6  c #4C3840",
"7  c #563440",
"8  c #5A3C44",
"9  c #3B4642",
"0  c #374942",
"q  c #2B5343",
"w  c #3A5446",
"e  c #3B5549",
"r  c #3D584B",
"t  c #2E604C",
"y  c #386955",
"u  c #444D45",
"i  c #445349",
"p  c #405C4F",
"a  c #4A4A51",
"s  c #435D50",
"d  c #4C5E54",
"f  c #4F5E58",
"g  c #525855",
"h  c #535C5B",
"j  c #654B48",
"k  c #6A494F",
"l  c #74454F",
"z  c #64564D",
"x  c #7F554A",
"c  c #6A4A55",
"v  c #744854",
"b  c #715857",
"n  c #446355",
"m  c #496356",
"M  c #496959",
"N  c #4A6A59",
"B  c #56645B",
"V  c #56735E",
"C  c #775460",
"Z  c #536E63",
"A  c #586D67",
"S  c #4D7264",
"D  c #577464",
"F  c #567A70",
"G  c #64646A",
"H  c #766B65",
"J  c #786B66",
"K  c #697568",
"L  c #607C68",
"P  c #7E766E",
"I  c #6C6D72",
"U  c #627E73",
"Y  c #777C76",
"T  c #74737A",
"R  c #9A5F54",
"E  c #996256",
"W  c #9A5B6A",
"Q  c #A15F6F",
"!  c #846E66",
"~  c #9B6E62",
"^  c #8D7D6C",
"/  c #917365",
"(  c #A17D6E",
")  c #A66372",
"_  c #AD6776",
"`  c #B36A7A",
"'  c #1BA16A",
"]  c #21A46E",
"[  c #2AA774",
"{  c #36AD7D",
"}  c #5A8F7A",
"|  c #539078",
" . c #618369",
".. c #68886F",
"X. c #648472",
"o. c #748C7C",
"O. c #6D9374",
"+. c #6F9878",
"@. c #729B7A",
"#. c #8C836F",
"$. c #878976",
"%. c #9A8374",
"&. c #B48679",
"*. c #5C9B82",
"=. c #7B8E8B",
"-. c #669683",
";. c #769589",
":. c #45B284",
">. c #4EB389",
",. c #52B68C",
"<. c #59B791",
"1. c #5CBA93",
"2. c #67A18B",
"3. c #70A38C",
"4. c #65AB90",
"5. c #69AB92",
"6. c #6AB396",
"7. c #61BB96",
"8. c #66BD99",
"9. c #6DBE9E",
"0. c #73B397",
"q. c #70B498",
"w. c #70BE9E",
"e. c #70BFA0",
"r. c #65C19B",
"t. c #6FC09F",
"y. c #70C09F",
"u. c #6FC0A0",
"i. c #70C0A0",
"p. c #79C2A6",
"a. c #7EC5AA",
"s. c #79C8A9",
"d. c #878388",
"f. c #89898F",
"g. c #8E8D94",
"h. c #96949D",
"j. c #B79687",
"k. c #9797A4",
"l. c #A29CA3",
"z. c #9EA1A6",
"x. c #9EA6A9",
"c. c #A9A2A8",
"v. c #B0A2A4",
"b. c #BAA7A5",
"n. c #BBA8A5",
"m. c #B1A9AE",
"M. c #ADABB4",
"N. c #ADAEB9",
"B. c #B0AAB0",
"V. c #B3B3BD",
"C. c #C99988",
"Z. c #CD9C90",
"A. c #D3A48B",
"S. c #DDA689",
"D. c #C8A695",
"F. c #E5B79E",
"G. c #C5AFA9",
"H. c #CCB4AA",
"J. c #D6B9AF",
"K. c #DEBFB1",
"L. c #E9BEA9",
"P. c #83C6AD",
"I. c #87C8AF",
"U. c #87CAB1",
"Y. c #8CC9B2",
"T. c #91CBB6",
"R. c #96CDB9",
"E. c #9ACEBC",
"W. c #9DD0BF",
"Q. c #EDC1A9",
"!. c #EAC6B5",
"~. c #F4CCB5",
"^. c #F8D0B7",
"/. c #F6D2BE",
"(. c #F9D0B8",
"). c #B6B6C1",
"_. c #BCBCC4",
"`. c #C3C3CB",
"'. c #F6D4C2",
"]. c #EFDDDB",
"[. c #F2D9D2",
"{. c #EBE3EB",
/* pixels */
"' ' 1.i.i.i.i.u.i.i.y.i.i.y.i.i.i.i.e.i.i.u.i.i.u.i.i.t.i.i.y.i.",
"] [ 1.t.9.t.t.i.i.i.i.i.i.w.w.w.w.w.w.y.i.i.i.i.i.i.i.i.i.i.e.u.",
"7.7.9.9.,.>.7.y.i.y.y.i.u.o.J J H H o.e.i.u.u.i.t.i.i.u.i.t.i.i.",
"i.y.u.t.,.:.7.y.i.i.i.q.q.$.E E E R #.0.q.i.i.i.i.i.y.i.i.y.p.i.",
"i.i.u.e.8.8.t.t.e.i.3.^ ( C.S.S.S.S.A.&.%.$.;.u.i.i.e.i.i.P.R.P.",
"i.i.i.u.i.y.t.9.9.9.K &.F.!./.^.~.~.~.Q.A.~ K u.u.i.u.i.i.Y.E.I.",
"T.Y.p.u.e.9.:.{ <.0.P Z.[.{.].'.^.^.^.(.Q.&.P e.e.i.i.i.i.p.P.p.",
"W.E.p.i.i.9.{ ' ,.Y j.!.[.{.].(.^.^.^.^.(.Q.j.-.i.i.i.i.i.e.i.e.",
"P.P.p.t.i.u.<.>.7.! Z.^.'.'.'.(.^.^.(.(.(.^.D.o.9.i.u.u.u.u.i.i.",
"i.i.y.t.i.u.9.u.M d.J.~.(.(.(.(.^.(.(.(.(.!.H.T M i.u.u.i.i.u.i.",
"u.u.i.i.i.e.i.u.=.M.B.K.(.(.(.(.^.^.(.(.~.H.v.c.=.1.1.r.i.i.i.i.",
"i.i.y.u.u.u.4.S c._.V.m.l.J.~.~.~.~.!.G.v.M.V.`.x.y :.1.i.u.i.i.",
"e.i.e.u.i.y.*.1 k.`.`.N.k.l.b.b.m.n.v.h.k.V.`.`.z., <.8.i.i.u.i.",
"y.u.i.i.i.i.6.} Z c.`._.N.M.M.M.M.M.M.M.V.`._.g.h | u.t.i.i.i.i.",
"i.e.u.i.u.i.a.U.Z I k._.`.`.`.`.`.`.`.`.`._.k.G Z s.i.u.i.u.u.i.",
"i.i.i.y.e.i.Y.W.;.f h I T k.).`.`.`.M.f.T G h A ;.a.t.i.i.i.i.i.",
"i.i.i.i.u.p.s.x.U V w & @ a T d.f.d.A = @ & i L L a.i.e.i.i.i.e.",
"u.i.u.i.u.u.9.-...O. .n 0 & & - - - & = 9 N  .O.X.-.i.i.i.i.i.i.",
"i.i.u.u.u.u.4.Z ..@.@.D s e 2 2 2 0 0 p m  .@.@...S y.i.i.u.u.i.",
"u.i.u.u.u.u.4.D L O.+.B i M M M M M M d m D O.O. .F y.i.u.u.e.i.",
"i.i.i.i.i.i.9.-.i V D g b g p M M n d g b B V M w 2.i.i.e.p.p.p.",
"u.u.i.9.i.i.w.p.+ 1 % / C.z * p M e u / j.z % % + p.i.i.i.U.R.P.",
"p.p.i.i.i.y.i.i.y @   / L.j X i f 9 = ( A.3   < t t.i.i.i.P.R.P.",
"R.T.p.i.i.i.i.y.w.* o 4 5 > 8 v C k > x R . O ] { <.i.i.i.p.a.p.",
"E.R.p.i.i.i.i.i.9.n j ; . l _ _ ) W v 8 # O t { [ <.i.i.i.u.t.i.",
"a.a.i.u.i.i.i.i.t.s.q v ` _ ` Q v 7 6 9 y 4.t.1.<.9.u.t.u.i.i.i.",
"t.t.i.i.i.t.i.i.t.u.y k W _ Q k # O r 6.p.i.i.i.u.t.9.t.i.e.y.i.",
"i.i.i.w.i.i.i.y.<.,.r.< $ c : e 4.e.i.y.i.u.i.i.t.<.,.8.y.i.i.u.",
"i.i.i.i.i.y.i.t.,.:.1.w 1 L i n 4.i.u.u.i.i.i.i.8.,.:.7.i.i.e.i.",
"e.y.u.e.e.i.i.t.8.1.r.5.B & p 2.9.e.i.i.i.u.9.i.t.8.1.8.i.i.i.i.",
"i.u.y.i.i.u.i.i.i.i.i.w.9.9.9.e.e.i.e.i.t.e.y.y.y.i.i.i.i.t.9.y.",
"y.i.i.u.i.i.P.I.p.i.y.y.y.9.i.u.i.i.i.u.t.t.p.P.I.p.u.i.9.7.<.8."
};
