/* XPM */
static char *npcT31709309387[] = {
/* columns rows colors chars-per-pixel */
"32 32 179 2 ",
"   c #181917",
".  c #21201E",
"X  c #1C2322",
"o  c #222E26",
"O  c #262C2A",
"+  c #27322D",
"@  c #3F302A",
"#  c #2D3635",
"$  c #323A37",
"%  c #383838",
"&  c #51332C",
"*  c #4C2E3A",
"=  c #483636",
"-  c #503134",
";  c #2C483C",
":  c #35443C",
">  c #334B3F",
",  c #43423A",
"<  c #6B4938",
"1  c #3E3E40",
"2  c #573A43",
"3  c #633B47",
"4  c #2D4E41",
"5  c #364D43",
"6  c #2D5447",
"7  c #3B5246",
"8  c #3A5B4D",
"9  c #37755C",
"0  c #474E49",
"q  c #514744",
"w  c #485C4D",
"e  c #4B4A52",
"r  c #495B53",
"t  c #4A5A52",
"y  c #565E53",
"u  c #545C5C",
"i  c #6F4A49",
"p  c #684652",
"a  c #6A5B55",
"s  c #685857",
"d  c #725C55",
"f  c #74525E",
"g  c #446354",
"h  c #4D6756",
"j  c #47685C",
"k  c #4A6A59",
"l  c #57675B",
"z  c #55725C",
"x  c #585760",
"c  c #4A6F60",
"v  c #427561",
"b  c #4C7B68",
"n  c #5A7A62",
"m  c #5A766A",
"M  c #606468",
"N  c #766B65",
"B  c #637663",
"V  c #637F6C",
"C  c #6E6D74",
"Z  c #717A71",
"A  c #75787C",
"S  c #81525C",
"D  c #9A5F54",
"F  c #996156",
"G  c #9D6B5A",
"H  c #8A5562",
"J  c #915462",
"K  c #8C6E6A",
"L  c #9F606F",
"P  c #8E7266",
"I  c #947969",
"U  c #8B7D74",
"Y  c #A46272",
"T  c #AC6675",
"R  c #B46A7B",
"E  c #A47F75",
"W  c #279C6C",
"Q  c #3B956F",
"!  c #1BA16A",
"~  c #21A46E",
"^  c #2AA774",
"/  c #34A779",
"(  c #47856C",
")  c #5D806B",
"_  c #4E8670",
"`  c #528D76",
"'  c #5A8A79",
"]  c #57957C",
"[  c #66866E",
"{  c #668A6F",
"}  c #638575",
"|  c #698D72",
" . c #628A79",
".. c #768D7D",
"X. c #6D9475",
"o. c #729B7A",
"O. c #8B816F",
"+. c #95816F",
"@. c #888674",
"#. c #A98478",
"$. c #B98373",
"%. c #B9947D",
"&. c #C9957E",
"*. c #7C7B83",
"=. c #6F9582",
"-. c #629984",
";. c #6C9F8B",
":. c #779984",
">. c #709589",
",. c #46B284",
"<. c #4EB48A",
"1. c #52B68C",
"2. c #58B791",
"3. c #5BB993",
"4. c #65A68D",
"5. c #68AE92",
"6. c #7AA494",
"7. c #70AB94",
"8. c #6CB296",
"9. c #61BB96",
"0. c #6DB799",
"q. c #65BD99",
"w. c #6DBE9E",
"e. c #72B598",
"r. c #70BD9E",
"t. c #7ABCA2",
"y. c #6FC09F",
"u. c #70C09F",
"i. c #6FC0A0",
"p. c #70C0A0",
"a. c #79C3A6",
"s. c #7DC5A9",
"d. c #85888D",
"f. c #8B8C9D",
"g. c #96949E",
"h. c #A38E81",
"j. c #A09498",
"k. c #88A29B",
"l. c #999BA0",
"z. c #AC9EA1",
"x. c #AFA1A3",
"c. c #A2A2AC",
"v. c #BAA7A5",
"b. c #B1A6A9",
"n. c #BCABAB",
"m. c #ADACB5",
"M. c #AEAEB9",
"N. c #B1ADB4",
"B. c #B3B4BC",
"V. c #CA9989",
"C. c #DDA789",
"Z. c #C8A192",
"A. c #D6AA9B",
"S. c #C5B2AD",
"D. c #D3B9AD",
"F. c #DEBEB1",
"G. c #E6BAA5",
"H. c #83C6AD",
"J. c #86C8AF",
"K. c #8AC7B1",
"L. c #8CC9B2",
"P. c #91CBB6",
"I. c #96CDB9",
"U. c #9ACEBC",
"Y. c #9ED0BF",
"T. c #E3C2B2",
"R. c #EDC9B4",
"E. c #F4CCB4",
"W. c #F2CDBA",
"Q. c #F8D0B7",
"!. c #F7D1BB",
"~. c #F9D1B8",
"^. c #BBBBC4",
"/. c #BFBFC9",
"(. c #C3C3CB",
"). c #F6D4C2",
"_. c #EFDFDE",
"`. c #F1DAD2",
"'. c #EBE4EC",
/* pixels */
"! ! 3.p.p.i.p.p.p.p.p.p.p.p.p.p.r.p.p.p.p.p.p.p.p.i.p.y.p.y.p.p.",
"~ ^ 3.y.i.w.y.p.r.p.p.p.p.p.r.r.r.r.r.r.i.p.y.p.p.u.p.p.p.p.y.p.",
"9.9.w.y.1.<.9.u.p.p.p.p.i.p.=.N N N N ..i.p.p.p.p.p.p.p.u.y.p.p.",
"u.u.i.w.1.,.9.u.p.p.p.p.e.e.@.F F F D O.e.e.u.u.p.y.p.y.p.a.p.p.",
"p.p.i.i.q.q.y.y.i.i.i.:.U E V.C.C.C.C.V.#.+.:.7.p.p.p.p.p.J.P.H.",
"p.p.p.i.u.u.y.w.r.r.i.Z $.G.W.~.E.E.E.E.T.&.P =.p.p.p.r.p.L.Y.J.",
"P.L.a.i.i.i.,./ 2.e.e.U A._.'.`.~.~.Q.Q.Q.G.E =.i.p.p.p.p.a.s.a.",
"Y.U.a.p.i.i./ ! <.;.U Z.R._.'.`.!.Q.Q.Q.Q.Q.C.#.0.i.p.p.p.p.p.p.",
"H.H.p.p.i.y.2.<.q.=.K A.~.).).!.Q.Q.Q.Q.~.~.G.h.8.r.r.p.p.r.p.p.",
"p.p.p.p.p.p.y.w.w.} j.F.Q.~.~.~.Q.Q.Q.~.~.Q.R.x.Z b r.r.p.p.i.p.",
"y.p.p.p.i.p.i.p.9.k.N.n.F.~.~.Q.Q.!.~.~.~.R.S.m.l.>.2.q.r.p.p.p.",
"p.p.p.p.p.p.p._ c c.^.B.b.x.D.R.R.W.E.F.S.b.m.^.^.6.Q 3.p.p.i.p.",
"p.p.r.i.p.p.i.8 5 z.(./.m.f.g.S.v.v.v.z.l.c.^.(.^.>.( q.p.i.p.p.",
"p.u.p.p.i.p.y.-.` *.N.(.^.M.m.m.N.N.N.m.M.^./.M.*.j 5.i.p.p.i.p.",
"i.u.p.u.p.p.s.J.t.m *.c./.(.(././././.(.(.(.B.l.>.' p.p.p.p.p.p.",
"p.p.i.p.p.p.L.U.s.' t x C A l.^.(.(./.z.d.C M m 6.6.i.p.i.p.i.r.",
"p.p.p.p.i.r.K.K.t.) z 5 O O e *.d.>.*.x % O : h V ' r.p.p.p.r.p.",
"p.i.p.i.i.r.t.;.' | X.n w : # $ 1 1 % # : 7 z | | } 5.p.p.p.p.p.",
"i.p.p.r.p.p.p.' l } o.X.c t 7 4 : 5 5 5 w h { o.X.{ -.p.r.i.p.p.",
"p.r.p.p.i.p.p.' k [ X.| l t h k k k j j t t V o.| m 4.p.p.i.p.p.",
"p.i.p.p.p.y.p.4.-.h n n y d y g g k g w a s z z g g 8.p.p.a.a.p.",
"i.i.i.p.p.p.p.p.p.5 $ % G V.a : g k > , #.#.q : + 4 p.p.p.K.I.J.",
"a.a.r.p.p.y.i.i.p.j # . I R.d O t u # = #.%., . 6 v p.p.p.J.U.H.",
"I.P.a.p.p.p.i.i.i.5.` X & G i 2 f f p = < < & + / 3.p.p.p.a.a.a.",
"U.I.a.p.p.p.p.p.p.u.a.8   = p H L T R S * @ - 7 W 3.p.u.p.y.y.p.",
"s.s.p.p.p.p.i.p.p.u.i.q.v ; % * 3 J T R R J = 9 2.w.y.y.p.p.p.p.",
"i.i.i.r.p.i.p.u.w.w.y.y.i.a.v X o 2 J Y L f 0 _ y.y.y.y.p.p.u.p.",
"i.p.p.p.r.p.p.u.3.1.9.w.i.i.r.i.p.` 0 f 2 7 a.p.y.2.1.q.p.r.p.y.",
"p.p.w.p.p.p.p.y.1.,.2.w.r.p.p.p.p.] g B t w p.p.w.1.,.3.p.p.p.i.",
"p.p.p.p.p.i.p.y.q.3.w.y.p.u.i.p.p.y.( o ; ] p.p.y.9.3.w.p.p.p.u.",
"p.p.y.p.u.i.p.p.p.p.p.p.p.p.p.y.p.u.w.0.r.r.p.p.u.y.p.p.p.y.w.p.",
"w.p.p.p.p.p.H.J.a.p.u.i.p.p.p.p.u.u.u.u.p.p.p.H.J.p.i.p.w.9.2.q."
};
