/* XPM */
static char *npcT1709309386[] = {
/* columns rows colors chars-per-pixel */
"32 32 175 2 ",
"   c #0C0B0D",
".  c #150F10",
"X  c #371E25",
"o  c #0A3121",
"O  c #1E3028",
"+  c #252D28",
"@  c #20342F",
"#  c #2D3836",
"$  c #383935",
"%  c #343A39",
"&  c #4E3B3C",
"*  c #56353B",
"=  c #2B453A",
"-  c #32443C",
";  c #37453F",
":  c #6B493B",
">  c #5A3C43",
",  c #673C46",
"<  c #3B4744",
"1  c #344A41",
"2  c #355447",
"3  c #3C5447",
"4  c #3D544A",
"5  c #396553",
"6  c #4A434A",
"7  c #5F464A",
"8  c #58484D",
"9  c #415347",
"0  c #46594B",
"q  c #59554F",
"w  c #514A51",
"e  c #455D52",
"r  c #4B5954",
"t  c #595855",
"y  c #61494A",
"u  c #775747",
"i  c #734952",
"p  c #6B5952",
"a  c #785D55",
"s  c #45614E",
"d  c #436154",
"f  c #4A6355",
"g  c #4B645A",
"h  c #456A5A",
"j  c #496959",
"k  c #576E66",
"l  c #447561",
"z  c #487965",
"x  c #5C7464",
"c  c #5C7D65",
"v  c #58776E",
"b  c #56796E",
"n  c #69686C",
"m  c #746764",
"M  c #6D766B",
"N  c #607A68",
"B  c #6E6F73",
"V  c #687172",
"C  c #74747B",
"Z  c #835B46",
"A  c #844D59",
"S  c #864E5A",
"D  c #83575F",
"F  c #886A57",
"G  c #9A6F5F",
"H  c #A57457",
"J  c #865861",
"K  c #935D67",
"L  c #906E67",
"P  c #9B6C63",
"I  c #977464",
"U  c #A67C69",
"Y  c #2B805D",
"T  c #1BA16A",
"R  c #21A46E",
"E  c #2AA975",
"W  c #36AB7C",
"Q  c #4C816C",
"!  c #5E8169",
"~  c #5D8978",
"^  c #5B957E",
"/  c #608367",
"(  c #62836B",
")  c #68827A",
"_  c #77877A",
"`  c #7E8C7C",
"'  c #6D9475",
"]  c #709979",
"[  c #878677",
"{  c #8D847B",
"}  c #AF8071",
"|  c #CD967C",
" . c #D79D7E",
".. c #787880",
"X. c #679A86",
"o. c #7B9284",
"O. c #58AD8A",
"+. c #45B284",
"@. c #4EB48A",
"#. c #52B68C",
"$. c #53B98F",
"%. c #58B791",
"&. c #5BB993",
"*. c #63A68B",
"=. c #65AA8F",
"-. c #71A58E",
";. c #66AD91",
":. c #6EAA94",
">. c #78AB98",
",. c #61BB96",
"<. c #6CB598",
"1. c #65BD99",
"2. c #6DBE9D",
"3. c #71B196",
"4. c #74B49A",
"5. c #71BD9F",
"6. c #7BBAA1",
"7. c #6FC09F",
"8. c #70C09F",
"9. c #6FC1A1",
"0. c #70C0A0",
"q. c #79C3A6",
"w. c #7EC5A9",
"e. c #87878D",
"r. c #89878B",
"t. c #8E8E95",
"y. c #859894",
"u. c #94949C",
"i. c #99959C",
"p. c #B18C82",
"a. c #B99387",
"s. c #9B9AA3",
"d. c #9B9BA8",
"f. c #94B9AC",
"g. c #B5A5A5",
"h. c #B9A8A6",
"j. c #B0A6AB",
"k. c #ABACB4",
"l. c #AEAFB9",
"z. c #B8AFB3",
"x. c #B4B3BC",
"c. c #C59387",
"v. c #CB9C90",
"b. c #D5A691",
"n. c #E1B091",
"m. c #D6B9AD",
"M. c #D3B9B0",
"N. c #E9BEA9",
"B. c #83C7AD",
"V. c #87C8AF",
"C. c #87C8B0",
"Z. c #8CCAB3",
"A. c #91CBB6",
"S. c #96CDB9",
"D. c #9ACEBC",
"F. c #9ED0BF",
"G. c #EDC2AC",
"H. c #F2C7AE",
"J. c #F4C9AF",
"K. c #E7C1B2",
"L. c #EFC9B5",
"P. c #F4CDB6",
"I. c #F8D0B7",
"U. c #F7D1BB",
"Y. c #F9D1B8",
"T. c #B7B7C0",
"R. c #BBBBC4",
"E. c #BFBFC8",
"W. c #C3C3CB",
"Q. c #E8CDC5",
"!. c #F5D4C1",
"~. c #F3D6C9",
"^. c #EFDAD5",
"/. c #EDDEE0",
"(. c #EAE5F0",
/* pixels */
"T T ,.0.0.9.9.8.0.0.8.0.5.9.7.0.0.0.0.0.0.9.0.0.9.0.9.9.9.9.9.9.",
"R E &.7.2.2.7.0.0.7.0.9.0.0.9.7.9.8.0.8.0.0.0.0.0.0.9.9.9.5.9.6.",
",.,.2.7.#.@.,.8.0.0.0.0.0.6.7.7.0.2.9.0.0.0.9.9.0.0.0.6.0.0.9.9.",
"5.7.9.2.#.+.,.8.0.0.8.0.0.5.4.3.3.3.3.5.0.0.9.9.9.0.0.9.0.0.0.9.",
"0.0.0.9.1.1.7.7.9.9.0.-.o.[ I G P G I [ ' -.9.9.9.9.0.0.0.C.S.B.",
"0.0.0.9.8.0.2.2.9.9.9.o.L } |  . . .| } L ` 9.9.9.6.0.0.0.Z.D.V.",
"A.Z.0.9.0.9.+.W %.9.` U b.K.L.J.J.J.H.G.b.U _ 9.9.7.0.0.0.q.w.q.",
"F.D.q.6.9.2.W T @.9.{ c.Q.(./.U.I.Y.Y.Y.H.c.I q.9.9.0.0.0.0.0.0.",
"B.B.0.0.9.5.%.@.&.M p.N.^.(./.U.I.I.I.I.I.G.a.m 9.0.0.0.0.0.0.7.",
"0.0.0.0.0.0.9.5.q.M c.P.!.~.~.U.I.U.I.U.I.I.v.m 0.0.0.0.8.0.0.0.",
"9.9.0.0.0.0.9.<.z ..M.P.U.I.I.I.I.U.I.I.Y.I.m.r.l O.#.1.0.0.0.0.",
"8.0.0.0.9.0.9.6.y.k.z.M.L.P.I.I.I.I.U.I.P.m.z.l.y.=.+.,.0.0.0.7.",
"0.0.0.0.8.0.9.^ k.E.x.j.h.M.L.Y.Y.Y.P.m.h.j.l.W.k.~ &.1.0.0.6.7.",
"8.0.0.7.6.9.9.1 e.E.W.x.d.i.g.g.h.h.g.i.s.x.E.W.i.< 7.2.0.9.7.9.",
"0.7.0.0.7.7.w.x n k.W.W.l.d.d.d.d.d.d.d.k.W.W.x.B k 0.0.0.0.9.7.",
"0.0.0.0.9.9.Z.f.) V u.x.E.R.R.R.T.T.R.R.E.R.s.C ) >.9.8.9.7.9.9.",
"0.0.9.9.9.0.C.Z.4.e r C r.u.x.W.W.W.x.s.e.C t e f.7.9.9.5.0.0.0.",
"7.0.7.7.0.9.q.:.X.N 0 ; $ 6 C t.u.t.C w $ % 4 ! X.*.5.9.9.9.5.0.",
"0.0.7.9.0.0.0.b N ' / s - # % ; < < % # - s N ' x v 5.9.0.9.9.9.",
"6.0.9.9.6.9.0.g N ' ] ! j 4 ; = - - 1 4 f c ] ] ( k 5.5.9.5.9.0.",
"7.9.7.9.7.9.9.b x ' ' k r f j j j j j f r x ' ' c b 0.0.0.q.q.q.",
"9.7.7.9.6.0.9.=.e c ( t y t f j j j f q y q ( / 0 X.0.0.0.C.S.B.",
"q.q.0.9.9.0.8.3.4 e 9 p P a 0 e f d 0 a P p 9 e = O.0.0.0.V.S.B.",
"A.A.q.0.0.9.5.2.^ =   u n.U & < e < ; F n.F   @ Y O.0.0.0.q.q.q.",
"D.S.q.0.0.0.0.0.q.= . : H Z & 6 8 8 & : H : . o E &.0.9.0.9.2.0.",
"w.w.0.8.0.0.0.0.9.l q * X * A S i S S , X * 7 5 %.2.9.9.0.0.0.0.",
"7.7.0.0.9.9.6.7.7.9.e > D K i # + + 7 K J > 4 q.9.2.2.5.7.9.0.0.",
"0.0.0.0.7.7.9.7.&.$.h 1 3 = z <.0.6.Q = 3 - d 0.7.&.#.1.9.7.9.6.",
"0.0.2.0.9.0.9.7.#.+.&.l O 2 *.0.0.0.;.d + h 4.0.1.#.+.,.9.8.0.0.",
"0.0.0.0.8.0.8.7.1.&.2.;.O.*.<.8.0.0.2.;.O.;.9.9.8.1.&.1.9.0.9.0.",
"0.0.0.0.8.0.0.0.0.0.0.2.4.9.0.0.7.9.2.6.6.7.8.8.8.0.0.0.0.2.2.8.",
"0.0.8.9.0.0.B.C.q.0.0.0.0.0.8.9.9.9.7.9.0.0.0.B.V.q.0.0.2.,.&.1."
};
