/* XPM */
static char *persT31709309286[] = {
/* columns rows colors chars-per-pixel */
"32 32 183 2 ",
"   c #0C0E12",
".  c #1C1E24",
"X  c #192F25",
"o  c #222428",
"O  c #302E2E",
"+  c #2B3637",
"@  c #36313F",
"#  c #522530",
"$  c #483734",
"%  c #593232",
"&  c #7D2C35",
"*  c #673B3E",
"=  c #2B4539",
"-  c #354036",
";  c #263749",
":  c #313948",
">  c #283F67",
",  c #413E4D",
"<  c #453F51",
"1  c #6A3E4B",
"2  c #7B3B49",
"3  c #384648",
"4  c #354458",
"5  c #3A475A",
"6  c #3A495B",
"7  c #3D4B61",
"8  c #314B68",
"9  c #3B4F69",
"0  c #364D75",
"q  c #5C4943",
"w  c #475448",
"e  c #444854",
"r  c #514355",
"t  c #4D525C",
"y  c #545559",
"u  c #6D5047",
"i  c #685546",
"p  c #614854",
"a  c #466859",
"s  c #70745C",
"d  c #444E60",
"f  c #42546B",
"g  c #47556A",
"h  c #5A5F6B",
"j  c #485A77",
"k  c #435B7F",
"l  c #655864",
"z  c #4A6562",
"x  c #586A67",
"c  c #4A786A",
"v  c #587568",
"b  c #536675",
"n  c #537273",
"m  c #686766",
"M  c #756967",
"N  c #696B77",
"B  c #68767B",
"V  c #78727A",
"C  c #882935",
"Z  c #972E3A",
"A  c #873B46",
"S  c #813B4B",
"D  c #993943",
"F  c #A73845",
"G  c #B33847",
"H  c #BA3847",
"J  c #B63948",
"K  c #BA3A4A",
"L  c #8A4547",
"P  c #965957",
"I  c #956D56",
"U  c #A4745B",
"Y  c #A45E64",
"T  c #B75361",
"R  c #976A6D",
"E  c #AF696E",
"W  c #BB626C",
"Q  c #BF6A72",
"!  c #A67674",
"~  c #C14656",
"^  c #C44B5B",
"/  c #CA5363",
"(  c #C65E6C",
")  c #CD5A69",
"_  c #D15E6E",
"`  c #C6606C",
"'  c #CB606E",
"]  c #D56474",
"[  c #D86777",
"{  c #D86878",
"}  c #398E69",
"|  c #18A068",
" . c #21A46E",
".. c #30AA79",
"X. c #578A77",
"o. c #5A9679",
"O. c #5A957C",
"+. c #658477",
"@. c #748C78",
"#. c #86877A",
"$. c #97847B",
"%. c #A18075",
"&. c #3B5285",
"*. c #596B8E",
"=. c #5A718E",
"-. c #697082",
";. c #737885",
":. c #6B6C93",
">. c #6F7892",
",. c #4B6AAE",
"<. c #907A9D",
"1. c #5B9681",
"2. c #599880",
"3. c #6A8A87",
"4. c #5CA286",
"5. c #45B284",
"6. c #4DB488",
"7. c #53B58C",
"8. c #5BB792",
"9. c #5BB993",
"0. c #62A48B",
"q. c #68A492",
"w. c #7BAF96",
"e. c #66B495",
"r. c #61BB96",
"t. c #66BD99",
"y. c #6DBE9D",
"u. c #77B599",
"i. c #71BD9F",
"p. c #71BFA0",
"a. c #77B9A4",
"s. c #6FC09F",
"d. c #70C09F",
"f. c #6FC0A0",
"g. c #70C0A0",
"h. c #79C3A6",
"j. c #73C8A6",
"k. c #7DC5A9",
"l. c #7492DE",
"z. c #7A97E3",
"x. c #918E82",
"c. c #8B9687",
"v. c #919688",
"b. c #8D909F",
"n. c #A48D86",
"m. c #8EA08F",
"M. c #8996BC",
"N. c #979CB3",
"B. c #A298B2",
"V. c #98A3AA",
"C. c #83BCA8",
"Z. c #9CA4BA",
"A. c #A6A3B5",
"S. c #83C6AD",
"D. c #87C8AF",
"F. c #87C9B1",
"G. c #8CCAB3",
"H. c #91CBB6",
"J. c #96CDB9",
"K. c #9ACEBC",
"L. c #9ED0BF",
"P. c #9AA7CD",
"I. c #8DA3DE",
"U. c #ABAEC4",
"Y. c #AAB7CA",
"T. c #AEBACE",
"R. c #B8B2C8",
"E. c #BBBBC9",
"W. c #A8B3D5",
"Q. c #A6B4DF",
"!. c #849DE0",
"~. c #B0BDE7",
"^. c #A3B7F0",
"/. c #C4B7CD",
"(. c #9EC9C0",
"). c #B4C3CF",
"_. c #B5C0E8",
"`. c #D0CFDD",
"'. c #C8C9E6",
"]. c #D2CFE7",
"[. c #D3D3E4",
"{. c #D4D1E8",
"}. c #C8D2F5",
/* pixels */
"|  .9.g.g.s.f.f.g.g.f.g.f.g.p.g.g.g.g.g.g.g.g.g.p.g.g.g.f.f.d.g.",
" ...r.f.y.s.s.g.g.g.g.g.p.p.p.p.i.i.i.i.g.j.g.g.g.d.d.g.g.p.g.g.",
"9.r.y.y.7.6.r.d.g.g.p.p.w.c.x.x.x.x.x.x.m.u.s.s.g.g.g.f.g.s.g.s.",
"y.d.f.y.7.5.r.d.g.a.v.$.! W ( ( ` ` ' ' Q ! #.t.g.d.g.p.p.g.h.g.",
"g.g.f.f.t.t.s.s.y.@.E ( _ ] ] { [ [ [ [ ] ( W R u.g.g.g.g.S.J.S.",
"g.g.g.g.g.f.s.s.a P _ ] [ { { { [ [ { { [ [ ] Y x y.f.g.g.G.L.S.",
"H.G.h.s.g.f.5.c 1 T [ [ _ / / ^ ^ ^ / ^ ) ] { ( u M f.g.g.h.S.h.",
"L.K.h.g.g.f...X C / ) ) / ^ ~ ~ ^ ~ ~ ^ ^ ) _ / F * g.p.g.g.g.p.",
"S.S.j.d.g.s.9.X C ~ ~ ~ / _ _ _ ] _ ] _ / ^ ~ ~ F * f.g.g.f.g.g.",
"g.g.d.d.g.d.f.= & ^ / ) ] { { { { { { { ] _ ) ^ D i g.f.g.g.f.g.",
"g.s.d.g.g.g.g.4.@ Z ~ / _ _ _ _ _ _ _ _ _ _ ^ F % O.9.t.g.g.g.g.",
"g.g.g.g.g.g.g.j.- C K K ~ ~ ^ ~ ~ ^ ~ ~ ~ ~ ~ Z $ 7.5.9.g.f.g.g.",
"g.g.g.s.g.g.g.o.i L F J K K K K K K K K K J G L u o.9.t.g.f.g.g.",
"g.s.p.g.g.g.g.= I P A A F J K K H H K H J D A L U s s.y.g.g.g.g.",
"g.g.g.f.s.g.k.v i % @ r p 2 S S S S A S 2 r r $ i @.g.f.g.f.f.g.",
"p.f.d.g.g.g.H.3.i % i x d e < , , , < e e g y O v C.s.g.g.g.g.g.",
"g.g.d.g.g.j.G.- I Y R N j f 7 7 5 7 5 9 j b +.+.a.k.s.g.d.g.g.s.",
"d.g.g.g.g.g.j.+ I <.:.d y h 9 8 8 8 9 b m w c y.h.p.f.g.g.g.g.g.",
"g.g.d.g.g.d.g.X.y ,.,.> 3 t 4 ; ; ; : h R B B q.g.g.i.g.g.p.g.g.",
"g.f.g.g.g.g.p.j.c j ,.&.0 *.;.-.k j ;.>.M._.W.a.g.g.f.g.g.f.s.s.",
"p.d.g.f.g.g.f.f.h.3.=.k *.W.}.^.l.!._.}._.'.Y.a.g.g.g.p.g.h.h.h.",
"f.f.g.g.g.g.p.g.d.S.3.6 -.E.~.z.l.l.Q.[.].{.T.a.g.g.f.g.g.F.J.S.",
"h.h.p.g.p.f.f.f.p.p.1.: N E.Q.z.z.l.I.`.{.].U.q.r.y.g.g.h.S.J.S.",
"H.H.h.g.g.f.g.p.p.p.1.3 l A.W.!.!.z.I./.E.].A.x } 8.g.s.s.h.h.h.",
"K.J.h.g.g.g.g.g.f.j.O.q # l b.N.N.P.Z.V m R./.n.w 7.h.s.s.s.s.g.",
"k.k.g.f.g.g.i.g.f.f.2.3 : + o . o 6 b e m U.R.%.w r.g.d.d.d.f.p.",
"d.d.g.g.f.g.g.f.f.f.2.3 : : .   . + b V.V.R.B.M @.i.y.i.p.g.g.d.",
"g.g.g.g.g.g.g.d.9.6.4.z 5 d ; o z n O.k.(.).N.+.e.r.7.r.g.f.g.g.",
"g.s.g.g.d.g.s.s.7.5.9.O.b =.d c i.p.i.p.g.g.g.p.t.7.5.r.g.g.d.g.",
"g.g.g.s.g.g.g.s.t.9.s.4.n ;.B 1.y.i.f.g.g.g.p.g.s.t.9.t.g.g.p.g.",
"p.f.p.g.g.d.g.g.d.g.s.i.0.X.O.y.d.g.g.p.s.g.d.d.d.g.g.g.f.s.y.s.",
"g.g.g.f.g.g.S.F.h.d.d.i.y.t.y.f.g.g.g.f.f.y.h.S.D.h.f.g.y.r.9.t."
};
