/* XPM */
static char *persL1709309284[] = {
/* columns rows colors chars-per-pixel */
"32 32 188 2 ",
"   c #000201",
".  c #0B0F12",
"X  c #0D1815",
"o  c #111213",
"O  c #111F19",
"+  c #12211B",
"@  c #161A22",
"#  c #1D2628",
"$  c #183629",
"%  c #21252C",
"&  c #382725",
"*  c #282A33",
"=  c #263831",
"-  c #481F2D",
";  c #4A2C2D",
":  c #51322F",
">  c #443A36",
",  c #593F30",
"<  c #7B232F",
"1  c #6E2F33",
"2  c #653539",
"3  c #28483A",
"4  c #544138",
"5  c #6E463B",
"6  c #2A2844",
"7  c #2C3248",
"8  c #353A48",
"9  c #353D4D",
"0  c #5E3F43",
"q  c #7A3A45",
"w  c #364740",
"e  c #3D404F",
"r  c #3C4353",
"t  c #394855",
"y  c #3B6957",
"u  c #344A6A",
"i  c #464947",
"p  c #584648",
"a  c #494657",
"s  c #4E5250",
"d  c #6A4747",
"f  c #7B4845",
"g  c #64544D",
"h  c #67555C",
"j  c #49665C",
"k  c #79685E",
"l  c #575669",
"z  c #484B70",
"x  c #595572",
"c  c #674E6A",
"v  c #665A64",
"b  c #675373",
"n  c #5B606B",
"m  c #467564",
"M  c #52706B",
"N  c #737271",
"B  c #92353E",
"V  c #923C46",
"C  c #A23A45",
"Z  c #B33746",
"A  c #B93647",
"S  c #B93A49",
"D  c #884F53",
"F  c #9B4A55",
"G  c #AC4859",
"H  c #B24A55",
"J  c #AA555B",
"K  c #816950",
"L  c #AC765D",
"P  c #825164",
"I  c #B55A65",
"U  c #836E66",
"Y  c #9C766B",
"T  c #81697E",
"R  c #997973",
"E  c #C44757",
"W  c #C54C5C",
"Q  c #CA5262",
"!  c #C55866",
"~  c #C45D6B",
"^  c #D25E6E",
"/  c #C6626E",
"(  c #C56877",
")  c #D56474",
"_  c #D86676",
"`  c #D46779",
"'  c #D66A7C",
"]  c #D86878",
"[  c #1AA26A",
"{  c #21A46E",
"}  c #2AA774",
"|  c #36AB7C",
" . c #598575",
".. c #65846C",
"X. c #688A7C",
"o. c #9A876F",
"O. c #948279",
"+. c #B2896E",
"@. c #AB8975",
"#. c #C79575",
"$. c #D09D79",
"%. c #DEA378",
"&. c #527293",
"*. c #717690",
"=. c #596AB0",
"-. c #7272B1",
";. c #8B7084",
":. c #8E7084",
">. c #877D9D",
",. c #D97181",
"<. c #789786",
"1. c #7C869D",
"2. c #46B184",
"3. c #4CB488",
"4. c #52B68C",
"5. c #55BB93",
"6. c #5DBA94",
"7. c #62BB96",
"8. c #6BB698",
"9. c #66BC99",
"0. c #6DBF9E",
"q. c #72BD9E",
"w. c #6683A6",
"e. c #6987A8",
"r. c #778BAA",
"t. c #6DADA2",
"y. c #70BFA0",
"u. c #6FC09F",
"i. c #70C09F",
"p. c #6EC1A1",
"a. c #70C0A0",
"s. c #79C3A6",
"d. c #7EC5A9",
"f. c #75CAA9",
"g. c #868598",
"h. c #95899F",
"j. c #A2958D",
"k. c #AD8F95",
"l. c #9DB08C",
"z. c #95A394",
"x. c #B5A49F",
"c. c #8F8AA9",
"v. c #9190AC",
"b. c #8596B2",
"n. c #8F9FB8",
"m. c #A18BA0",
"M. c #B98AA9",
"N. c #A798AB",
"B. c #BE8FB0",
"V. c #B69FB3",
"C. c #83BCAD",
"Z. c #9AA2BA",
"A. c #ACA0BA",
"S. c #D28596",
"D. c #D1A58F",
"F. c #D5AA96",
"G. c #DBB59A",
"H. c #E8B28D",
"J. c #DC98A8",
"K. c #CA9CB2",
"L. c #C5B0BF",
"P. c #82C6AC",
"I. c #87C8AF",
"U. c #87C8B0",
"Y. c #8BCAB2",
"T. c #91CBB6",
"R. c #96CDB9",
"E. c #9ACEBC",
"W. c #9ED0BF",
"Q. c #EFC5AB",
"!. c #FBD0B5",
"~. c #FFD7BD",
"^. c #A19DC8",
"/. c #9CA1C3",
"(. c #A2A4C6",
"). c #AAADCA",
"_. c #A5B3CD",
"`. c #B8B5CD",
"'. c #AAB6D0",
"]. c #BFBCD6",
"[. c #C7AEC2",
"{. c #BCC1E3",
"}. c #C0C3D7",
"|. c #C5C9DC",
" X c #E4CCC2",
".X c #CAC9E4",
"XX c #D8D7E9",
"oX c #E0E0F0",
/* pixels */
"[ { 6.a.a.u.p.a.i.a.a.a.a.a.i.a.p.a.i.a.y.y.y.y.y.y.a.a.a.p.a.i.",
"{ } 6.u.u.0.u.i.a.a.a.i.a.u.a.p.i.a.a.y.y.y.y.y.a.a.i.a.p.q.a.a.",
"6.7.0.0.4.3.7.i.a.a.a.a.a.u.u.a.q.i.q.q.q.y.y.y.a.y.p.a.p.u.a.i.",
"q.u.p.0.4.2.7.i.a.a.a.a.a.s.a.O.H H H H H Y p.0.y.a.q.p.q.a.s.a.",
"a.a.q.p.9.9.u.u.i.i.a.a.j.I G ! ) ^ ) ) ) F X = X.0.a.a.a.I.T.P.",
"a.a.p.u.a.a.0.0.i.u.R J ~ ^ ^ W Q ] ] ] ] ~ J G d j p.a.a.Y.E.U.",
"T.Y.s.u.p.u.2.| 5.j./ Q ^ ) ] W W ] ] ] ] _ ] ~ 2 w p.p.a.s.P.s.",
"W.E.s.y.p.0.| [ z.( ^ ] ) ) ) W W ] ] ] ] ] ] / q p s.a.a.a.a.a.",
"P.P.s.u.i.i.5.O.( / _ ] ] ] ] W W ] ] ] ] ] ` ) H 1 w p.p.y.p.y.",
"a.a.a.i.i.f.R / ^ ] ] ] ] _ ] W W ] ] ] ] ] ] ) W < O a.p.p.y.p.",
"q.p.i.a.i.N I ^ _ ] ] ] _ ] ) E E ] ] _ ] ] ) E S < O 9.a.y.p.y.",
"p.i.p.a.i.> I ) ] _ ] ] _ ,.J.J.J.J.,._ ^ Q W S A < O 6.a.p.y.a.",
"a.a.a.u.a.+ F ^ _ ] ] ] ' S.[.}.[.[.,.,.Q S S A Z < + 9.a.a.a.a.",
"a.i.y.a.i.% B ! ] ] ' ] S.V.b.e.e.n.A.,.S A S S Z < + u.a.y.y.a.",
"a.p.a.a.i. .; P M.B.M.K.N.r.b.n./.b.e.m.( A A A C : X u.y.a.p.y.",
"p.q.a.i.i.f. .n l T :.A./.b._.].].(.r./.k.C V q : > m q.p.a.a.a.",
"a.i.a.i.p.a.Y.<.j 5 1 h >.Z.V.h.c.N.>.*.b d p 8 # w f.u.i.a.a.a.",
"a.p.a.a.i.u.f.f.f.k F & l A.F.k U @.v l t r 9 8 # w a.p.i.i.a.0.",
"i.a.a.a.a.a.i.u.i.k L ; l L.F.k U #.Y h 9 9 e 8 * s p.p.a.y.a.a.",
"a.a.i.p.a.i.i.i.u.o.D.@.k. XQ.@.+.%.#.k w 7 @ % a  .p.p.q.p.u.a.",
"u.q.a.a.f.i.i.i.u.l.G.~.~.!.Q.H.%.+.o.n u t e s N X.p.y.p.s.s.s.",
"p.p.i.p.i.i.i.i.i.u.l.D.F.D.#.L #.x.e.e.w.b.}./.M t t.C.a.U.R.P.",
"s.s.a.a.i.i.i.i.i.i.f.X.K D f ; N XX|.|.}.}.Z.*.&.&.r.).a.I.R.I.",
"T.T.s.a.i.i.i.i.i.i.i.f.M ; 2 v v.).b.1.1.v..X'._._._.Z.a.s.s.s.",
"E.R.s.a.a.a.y.a.a.p.y.s.M & 5 R >.;.b z z -.{..XXXoX.X*.u.u.u.u.",
"d.d.a.u.a.a.a.a.a.a.a.a. .s K g 0 J I ;.=.=.-.^.`.'.g.= u.u.u.u.",
"i.i.a.a.i.a.a.q.0.0.y.p.i.f.y   h !.F.p 6 -.-.c.c.x + p.i.i.u.u.",
"a.a.a.a.a.p.a.u.6.4.6.y.i.i.f.y g $.+.> - G F a * o $ 9.i.i.i.i.",
"p.q.a.a.a.a.p.0.4.2.6.0.p.y.y.y..., 4 i z c c 9 % 3 2.7.i.a.i.a.",
"a.p.y.a.a.i.a.i.9.6.9.y.y.p.y.f.m o . 7 u u u 9 j 7.6.9.i.a.a.a.",
"i.a.a.u.a.a.a.a.a.a.a.y.p.y.y.y.y.m . . . # r M y.y.a.a.i.i.u.u.",
"a.a.a.a.i.a.P.U.s.a.a.p.y.a.y.y.y.0.8.8.8.8.q.P.P.s.i.a.0.7.5.9."
};
