/* XPM */
static char *persR31709309285[] = {
/* columns rows colors chars-per-pixel */
"32 32 194 2 ",
"   c #0C0D0C",
".  c #0A0C12",
"X  c #13161B",
"o  c #131C1A",
"O  c #21120B",
"+  c #1D1D22",
"@  c #1D2526",
"#  c #1E332B",
"$  c #2B2A2B",
"%  c #392B2A",
"&  c #20332C",
"*  c #252B37",
"=  c #3A2F32",
"-  c #2A353D",
";  c #393435",
":  c #631E27",
">  c #45262A",
",  c #58292C",
"<  c #4F3739",
"1  c #523431",
"2  c #72383A",
"3  c #1B503B",
"4  c #294539",
"5  c #59431A",
"6  c #724A3B",
"7  c #73543D",
"8  c #2A3646",
"9  c #2B314E",
"0  c #323847",
"q  c #353F51",
"w  c #523A44",
"e  c #5A3D43",
"r  c #473E55",
"t  c #793D4B",
"y  c #3A4A43",
"u  c #394454",
"i  c #304862",
"p  c #4B474B",
"a  c #554347",
"s  c #57544B",
"d  c #454854",
"f  c #5D4E56",
"g  c #495858",
"h  c #595657",
"j  c #674643",
"k  c #685C57",
"l  c #436459",
"z  c #57655E",
"x  c #796151",
"c  c #464C63",
"v  c #4C506B",
"b  c #5C5964",
"n  c #72546C",
"m  c #4B7967",
"M  c #59796C",
"N  c #766C64",
"B  c #69677B",
"V  c #6C7375",
"C  c #873B3F",
"Z  c #973844",
"A  c #AD3544",
"S  c #A6394A",
"D  c #AA3B4A",
"F  c #B63848",
"G  c #BA3949",
"H  c #9D4E59",
"J  c #8B5955",
"K  c #B3404E",
"L  c #BD4654",
"P  c #AC515B",
"I  c #B7525C",
"U  c #87634B",
"Y  c #8F6356",
"T  c #915A64",
"R  c #BD5867",
"E  c #A45F75",
"W  c #8E7268",
"Q  c #926C76",
"!  c #9A7F78",
"~  c #AA7966",
"^  c #B67771",
"/  c #C24656",
"(  c #C44C5C",
")  c #CB5464",
"_  c #C45A68",
"`  c #CB5B6B",
"'  c #D25E6D",
"]  c #C5616D",
"[  c #CB6572",
"{  c #C86C77",
"}  c #D66575",
"|  c #D96675",
" . c #D66878",
".. c #D86878",
"X. c #18A068",
"o. c #21A46E",
"O. c #2AA774",
"+. c #35AD7C",
"@. c #3CAE7F",
"#. c #5C8C79",
"$. c #61907D",
"%. c #AA856D",
"&. c #B78669",
"*. c #BB897B",
"=. c #D39C75",
"-. c #D5A07B",
";. c #E2A67A",
":. c #485485",
">. c #4E578B",
",. c #5C6693",
"<. c #686983",
"1. c #6A7282",
"2. c #727397",
"3. c #5B68A6",
"4. c #887395",
"5. c #B67586",
"6. c #9E7FA0",
"7. c #C27E8E",
"8. c #5F9681",
"9. c #689C8B",
"0. c #46B284",
"q. c #4CB488",
"w. c #52B68C",
"e. c #59B791",
"r. c #5CBA94",
"t. c #64AB8E",
"y. c #6BAF91",
"u. c #62BB96",
"i. c #64BD99",
"p. c #6DBE9D",
"a. c #72BD9E",
"s. c #788DAB",
"d. c #7A96B4",
"f. c #7AB9A7",
"g. c #6FC09F",
"h. c #70C09F",
"j. c #6FC0A0",
"k. c #70C0A0",
"l. c #79C3A6",
"z. c #7EC5A9",
"x. c #75CCA9",
"c. c #9C8992",
"v. c #839294",
"b. c #AB8684",
"n. c #A89C9B",
"m. c #ABAD99",
"M. c #8988A6",
"N. c #8796B4",
"B. c #9898BA",
"V. c #A188A7",
"C. c #A495AD",
"Z. c #B59CA9",
"A. c #A79DB8",
"S. c #8EAEA3",
"D. c #81BAAA",
"F. c #98ACB7",
"G. c #B4ACA4",
"H. c #C48A87",
"J. c #C6849C",
"K. c #DB8898",
"L. c #D9A687",
"P. c #C9A691",
"I. c #DBB59A",
"U. c #E2B396",
"Y. c #CF8EA1",
"T. c #E29BAA",
"R. c #ECBEA1",
"E. c #84C6AD",
"W. c #87C8AF",
"Q. c #87C8B0",
"!. c #8CCAB3",
"~. c #91CBB6",
"^. c #96CDB9",
"/. c #9ACEBC",
"(. c #98D0BC",
"). c #B2CABA",
"_. c #CBCEB9",
"`. c #EBC1A7",
"'. c #F0C8B0",
"]. c #F4CDB6",
"[. c #9FA5C1",
"{. c #ADAAC9",
"}. c #BDAEC5",
"|. c #B2ACCB",
" X c #BAB6D3",
".X c #BCB8D6",
"XX c #C0BED3",
"oX c #E4B9C8",
"OX c #C2CFC5",
"+X c #CACBDD",
"@X c #E6C6C8",
"#X c #D5D5E8",
"$X c #E0DFF2",
"%X c #E2E2F3",
/* pixels */
"X.o.r.k.k.j.j.k.k.k.j.k.k.j.h.l.h.h.h.h.k.g.k.k.j.f.k.h.k.h.k.k.",
"o.O.u.g.p.p.g.h.k.j.k.k.a.a.a.h.a.a.a.h.k.g.k.h.g.g.k.k.j.k.g.k.",
"r.u.p.g.w.q.u.h.k.k.k.k.! ( I I I I ! k.l.a.j.j.g.g.g.g.k.p.k.k.",
"k.h.k.p.w.0.u.h.j.l.M g T ) ) ) ) ) ] 7.H.n.j.j.g.g.k.k.k.h.l.k.",
"k.k.k.j.i.i.g.g.p.v.a % H ..| | | ' ) ( ) *.p.f.j.k.j.j.k.W.~.E.",
"k.k.k.h.k.k.g.g.M w P R } ....| ..) / ' [ _ P ^ OXg.k.j.k.!./.Q.",
"~.!.l.g.j.j.0.+.l > P ..| ........) / } | } ' ' { G.j.j.j.l.E.l.",
"/./.l.k.k.p.+.3 , Z ` ............) / | ......} ' [ b.j.g.g.g.f.",
"E.E.l.g.k.g.r.# : K ' ............( / }  . .| ..} ' [ b.j.k.j.k.",
"k.k.k.h.k.k.j.# : K ) } ..| ..| ..) / } ..| | ....} ' ] ).p.g.f.",
"g.g.k.g.k.h.x.& : A L ' | | | | 7.) ( | ............} [ W a.g.g.",
"g.f.k.k.k.k.k.& : A F L / ) | 7.T.oXoXoXK.........} ..R $ p.g.g.",
"g.g.k.j.k.k.k.& : A G F F G _ J.A.d.d.N.A.K.| | | | } D   i.k.k.",
"g.g.h.k.k.h.k.& : C F G G R 5.C.N.s.s.s.N.C.Y.J.J.7.E , m g.k.k.",
"j.k.j.k.k.k.E.g 1 2 Z A A 5.A.2.N. X X{.s.N.}.V.V.6.B s k.k.h.k.",
"g.k.k.h.p.k.!.S.h % < t C Q A.B.A.|.{.{.B.B.C.T n f b 9.k.a.k.k.",
"j.j.j.j.j.j.Q.^.z + - p w b <.<.c.c.v.Z.A.4.p 2 J N $.k.j.k.j.k.",
"j.p.l.a.j.j.a.x.z + - u q u u k &.W h =.G.B O Y J G.k.j.k.k.k.k.",
"j.f.j.j.a.j.j.j.#.l - $ 0 q h %.;.%.W I.@Xn.x -.~ G.j.j.k.k.k.j.",
"j.j.j.p.l.j.j.j.j.x.4   = r f ~ =.=.L.`.].'.`.`.U.@Xj.j.k.j.j.k.",
"j.j.j.j.a.j.j.f.j.z.y 5 7 e j J &.=.=.U.R.].'.I._.).j.k.k.l.l.l.",
"j.j.k.k.j.j.f.D.f.A.B ! Y e e e 6 7 U ~ *.H.=.m.g.g.k.k.k.Q.^.E.",
"l.l.k.k.a.a.[. XXX.X X.XM.1.1.B d * = , , 6 #.u.r.g.k.k.k.W.^.E.",
"~.~.l.k.p.p.F. X#X#X%X%X$X#X+X#X{.M.<.= = z y.@.+.r.k.k.k.l.l.l.",
"/.(.l.j.k.k.j.8.s.B..X+X XM.>.3.,.* p P.I.*.N +.O.e.k.k.k.j.g.k.",
"z.z.k.g.j.k.g.f.V n C.|.{.1.v >.3.- 1 -.I.^ k r.e.i.j.j.k.h.h.k.",
"p.j.k.g.g.g.g.t.y $ B s.6.Q n n 2.r % x U 6 s k.j.g.p.g.g.g.k.f.",
"k.k.f.g.j.g.t.- . X - u t S A S A t * . .   # x.g.e.w.i.g.g.g.g.",
"k.k.k.k.k.k.@ :.>.u q 8 0 0 0 0 u d u u i 8 4 k.p.w.0.u.k.k.k.k.",
"k.j.k.k.g.k.# :.3.:.* o o o X @ m l.#.* @ l j.j.g.u.r.i.k.g.k.h.",
"k.j.k.j.j.k.v.d 9 c 9.p.p.p.p.p.p.k.j.p.p.p.g.g.h.h.k.k.k.g.g.g.",
"g.f.k.k.k.j.z.z ; 8.j.a.a.a.k.k.k.j.j.j.g.p.l.E.W.l.j.k.p.u.e.i."
};
