/* XPM */
static char *persL21709309284[] = {
/* columns rows colors chars-per-pixel */
"32 32 193 2 ",
"   c #040408",
".  c #090C0F",
"X  c #060B10",
"o  c #0F1E18",
"O  c #181A1A",
"+  c #331E16",
"@  c #11201A",
"#  c #18231F",
"$  c #29221C",
"%  c #1A1F2B",
"&  c #1D2027",
"*  c #1E2129",
"=  c #1E2B2B",
"-  c #1E2D33",
";  c #222929",
":  c #382D2E",
">  c #2B3536",
",  c #323431",
"<  c #32343C",
"1  c #48350D",
"2  c #572A2C",
"3  c #453937",
"4  c #513231",
"5  c #71242D",
"6  c #7A242E",
"7  c #792B34",
"8  c #65353B",
"9  c #773A39",
"0  c #32483F",
"q  c #5E4439",
"w  c #2C3746",
"e  c #333B4B",
"r  c #393B49",
"t  c #373A51",
"y  c #433B49",
"u  c #5A3D44",
"i  c #683D47",
"p  c #374746",
"a  c #3F4743",
"s  c #3B5A4D",
"d  c #2A435C",
"f  c #374151",
"g  c #394260",
"h  c #4F414B",
"j  c #434C4B",
"k  c #4A4955",
"l  c #594655",
"z  c #475657",
"x  c #575859",
"c  c #694C45",
"v  c #68554D",
"b  c #79554B",
"n  c #6C655F",
"m  c #77655D",
"M  c #464C68",
"N  c #63556F",
"B  c #79596B",
"V  c #5B6565",
"C  c #567366",
"Z  c #567271",
"A  c #736C6B",
"S  c #676C7D",
"D  c #777577",
"F  c #93393E",
"G  c #873C48",
"H  c #953944",
"J  c #A63949",
"K  c #AC3848",
"L  c #B53646",
"P  c #B73949",
"I  c #B83848",
"U  c #83584B",
"Y  c #994E52",
"T  c #AE4852",
"R  c #B84A58",
"E  c #AC535F",
"W  c #BB535E",
"Q  c #A7775C",
"!  c #B95966",
"~  c #8B7367",
"^  c #956F71",
"/  c #A97770",
"(  c #C24555",
")  c #C54B5B",
"_  c #C55967",
"`  c #CB5C6A",
"'  c #D25D6D",
"]  c #CD6474",
"[  c #D56373",
"{  c #D86676",
"}  c #D86878",
"|  c #18A068",
" . c #21A46E",
".. c #2AA774",
"X. c #33AE7C",
"o. c #588877",
"O. c #648878",
"+. c #72877C",
"@. c #8C897B",
"#. c #9A8478",
"$. c #BB8E6F",
"%. c #BC8A70",
"&. c #A69070",
"*. c #C58B70",
"=. c #C79271",
"-. c #D9A078",
";. c #475287",
":. c #4F5C93",
">. c #6E5F96",
",. c #546299",
"<. c #6A6B86",
"1. c #77748E",
"2. c #767697",
"3. c #5465A3",
"4. c #7567A6",
"5. c #617EA0",
"6. c #827D9D",
"7. c #BB7687",
"8. c #CA6F84",
"9. c #CF758A",
"0. c #D87787",
"q. c #6A9886",
"w. c #5FA286",
"e. c #46B184",
"r. c #4CB488",
"t. c #52B68C",
"y. c #5DB993",
"u. c #69A68E",
"i. c #78AB95",
"p. c #62BB97",
"a. c #66BD99",
"s. c #6DBE9D",
"d. c #79B49D",
"f. c #71BD9E",
"g. c #788BAA",
"h. c #71BFA0",
"j. c #64C09A",
"k. c #6FC09F",
"l. c #70C09F",
"z. c #6EC1A1",
"x. c #70C0A0",
"c. c #79C3A6",
"v. c #73C8A6",
"b. c #7EC5A9",
"n. c #898694",
"m. c #948594",
"M. c #A2948C",
"N. c #A78897",
"B. c #8FAA92",
"V. c #A1BB9A",
"C. c #8887A4",
"Z. c #8F90A9",
"A. c #9B95AC",
"S. c #8B93BB",
"D. c #8D9DB8",
"F. c #9D9AB6",
"G. c #AC90AA",
"H. c #A69BB5",
"J. c #82B5AD",
"K. c #A5A3BB",
"L. c #B2A5B4",
"P. c #C99B88",
"I. c #C5A18A",
"U. c #D6B095",
"Y. c #E5B192",
"T. c #C792A4",
"R. c #CFADA9",
"E. c #EDBFA0",
"W. c #E2A4B4",
"Q. c #83C6AD",
"!. c #87C8AF",
"~. c #84CBB0",
"^. c #8BC9B2",
"/. c #91CBB6",
"(. c #94CDB9",
"). c #9ACEBC",
"_. c #9ED0BF",
"`. c #F1C8B0",
"'. c #FCD4BA",
"]. c #8FA6C3",
"[. c #9EA1C6",
"{. c #A1A3C5",
"}. c #B0AFCC",
"|. c #BAB4D5",
" X c #BEBBD4",
".X c #BCB5D9",
"XX c #E1B9C8",
"oX c #B7C5D2",
"OX c #D3C4C4",
"+X c #C5C4D9",
"@X c #D2D2E4",
"#X c #DAD9EC",
"$X c #DEDEF0",
/* pixels */
"|  .y.x.x.z.l.x.x.x.x.x.x.k.x.x.x.l.l.x.f.h.h.h.h.z.h.z.h.x.h.z.",
" ...y.k.s.k.k.x.x.l.l.x.x.x.x.l.f.f.f.f.f.s.h.h.z.h.z.h.z.h.z.f.",
"y.p.s.k.t.r.p.l.x.x.l.l.x.l.l.@.W W ) ! _ / z.l.s.h.z.z.x.x.x.x.",
"x.l.z.s.t.e.p.l.l.l.l.k.M.! R _ [ { [ [ } Y O , +.z.h.h.x.x.x.x.",
"x.x.z.h.a.a.s.k.x.z.^ T ` ' [ ) ) } } } } [ ! E c s x.z.x.Q.(.Q.",
"x.x.s.k.l.z.k.s.v.^ ` ' ' { { ) ) } } } } } } _ 8 p x.x.x./.).!.",
"/.^.c.k.s.s.e.X.#.` { } { { { ) ) } } } { } } ] H 8 C f.x.c.Q.c.",
"_.).c.h.z.s.X.@.` [ { } { } { ) _ { } } { } } [ R 6 = x.x.x.x.h.",
"Q.Q.c.z.x.x.~ _ [ { } } { { { ) ) } } } { { { [ ) 6 @ x.h.z.h.x.",
"x.x.x.k.x.A _ { } } } } { { { ( ) { } } } { [ ) P 6 @ z.z.h.z.x.",
"z.k.z.l.h.: E 8.} } } } [ 0.W.XXXXW.} } ` ) ( I P 6 o s.h.z.h.h.",
"h.x.x.x.h.O H ' { { { { T.T.K.].].K.T.] ( L I I P 6 o y.x.x.h.z.",
"x.x.x.x.x.j 7 E 8.9.9.9.T.H.g.5.g.g.F.7.W I I I K 5 o a.x.h.x.x.",
"h.k.z.f.l.u.3 B N.G.H.T.F.g.D.L.K.D.g.A.] L L K H 2 ; s.h.z.h.z.",
"z.l.x.x.x.x.q.V l B ^ H.[.S.[.|..X{.S.{.N.F G i 4 3 o.s.h.z.x.x.",
"h.x.z.h.x.x./.B.Z c 9 l 2.H.L.6.m.M.1.<.N h h w & p v.z.x.h.z.h.",
"x.x.x.x.x.x.Q.(.~.m Y + z L.I.m m $.m k e f f e * 0 x.x.x.x.x.x.",
"x.x.l.z.x.x.x.c.v.A =.c D OXE.~ ~ -.$.n t e w < < V x.x.x.z.x.x.",
"k.x.x.x.x.x.k.k.k.&.Y.I.R.`.`.=.%.-.=.m p < O & n i.x.x.x.h.x.z.",
"x.x.x.x.x.x.x.x.v.V.U.'.'.'.E.Y.Y.=.Q b h 8 1 $ +.z.z.z.h.z.k.x.",
"x.x.l.x.l.l.l.x.v.z.B.I.P.P.*.Q U b u 8 u U &.x n.J.J.h.x.c.c.x.",
"k.z.z.x.l.l.x.l.k.k.l.+.c 4 2 : ; r S S S 2..X X.X.X.XK.x.^.(.Q.",
"c.c.x.x.v.l.l.l.k.k.l.v.D : $ x n.H.oX+X+X@X$X$X#X#X+X}.x.Q.).Q.",
"(./.c.x.l.l.l.l.l.k.k.d.m.&.#.v M 2.S.S.F.+X@X@X+XK.Z.oXx.c.b.c.",
").(.c.x.x.x.x.x.x.z.z.A / Y.Y.c % :.3.;.<.}. X|.C.S q.s.s.s.h.h.",
"b.b.x.x.x.x.x.x.k.k.v.n U Q &.3 t 4.>.N B H.Z.2.y > w.z.h.h.z.h.",
"f.k.x.k.x.x.l.x.k.s.v.0   X . - i K J J J G t e * . - u.z.h.h.z.",
"x.l.x.x.l.x.z.f.y.r.j.s > d e f M k y y y t e e t g :.> h.z.h.h.",
"x.x.x.f.x.x.l.k.t.e.y.z.Z > - Z b.o.< * % % % % g ,.:.# s.z.h.h.",
"l.x.z.z.z.h.h.k.p.y.a.z.q.x j O.x.q.x a j a q p M ;.M z h.h.h.z.",
"x.h.l.x.z.x.x.x.x.x.z.h.z.h.s.s.x.h.s.s.s.s.s.d.D X = s.x.z.s.z.",
"h.z.x.h.x.z.Q.!.c.x.h.z.h.z.x.h.z.h.x.h.h.h.h.Q.Q.s.a.z.h.y.y.p."
};
