/* XPM */
static char *persR21709309285[] = {
/* columns rows colors chars-per-pixel */
"32 32 194 2 ",
"   c #07090B",
".  c #1D0F09",
"X  c #0E1613",
"o  c #0F1A1D",
"O  c #1A1C22",
"+  c #1A2624",
"@  c #1C332A",
"#  c #1E2833",
"$  c #1D333B",
"%  c #332427",
"&  c #22362C",
"*  c #242C34",
"=  c #293E37",
"-  c #2B313C",
";  c #383539",
":  c #511C22",
">  c #611D26",
",  c #45262A",
"<  c #59282A",
"1  c #513C33",
"2  c #58343B",
"3  c #6D3135",
"4  c #6D3738",
"5  c #27423A",
"6  c #51423E",
"7  c #74553C",
"8  c #1F3845",
"9  c #283942",
"0  c #363C49",
"q  c #353F50",
"w  c #4A3F4A",
"e  c #693442",
"r  c #7A3E47",
"t  c #2F4F44",
"y  c #345744",
"u  c #394356",
"i  c #2A4967",
"p  c #384868",
"a  c #325673",
"s  c #49434D",
"d  c #4B4A4B",
"f  c #554349",
"g  c #5D4B57",
"h  c #4E5051",
"j  c #555457",
"k  c #684A4D",
"l  c #65534B",
"z  c #75574D",
"x  c #655A58",
"c  c #49675C",
"v  c #54665D",
"b  c #47476A",
"n  c #5C5864",
"m  c #4E5A72",
"M  c #68546E",
"N  c #775B67",
"B  c #587768",
"V  c #527B6A",
"C  c #726A6F",
"Z  c #666679",
"A  c #96333E",
"S  c #8A3D47",
"D  c #963844",
"F  c #AD3544",
"G  c #B83646",
"H  c #B33C4B",
"J  c #BB394A",
"K  c #895E4F",
"L  c #9A4C57",
"P  c #B94554",
"I  c #AB505B",
"U  c #B7525C",
"Y  c #8B6C51",
"T  c #9A6559",
"R  c #AD785E",
"E  c #8F5A64",
"W  c #BD5966",
"Q  c #967966",
"!  c #98756B",
"~  c #96697E",
"^  c #A06C6B",
"/  c #A97866",
"(  c #B66F79",
")  c #C14656",
"_  c #C34C5C",
"`  c #CC5565",
"'  c #C65867",
"]  c #C55C6A",
"[  c #CC5B6B",
"{  c #D35E6E",
"}  c #CB6471",
"|  c #D66575",
" . c #D96676",
".. c #D66979",
"X. c #D86878",
"o. c #18A068",
"O. c #21A46E",
"+. c #2AA774",
"@. c #36AB7C",
"#. c #4F8D74",
"$. c #6B897E",
"%. c #99817A",
"&. c #AB856D",
"*. c #B48466",
"=. c #B88679",
"-. c #C89771",
";. c #D39C75",
":. c #E2A67A",
">. c #4A5584",
",. c #526394",
"<. c #676785",
"1. c #767686",
"2. c #76609B",
"3. c #7E7A95",
"4. c #5D65A2",
"5. c #7C6AB2",
"6. c #907D90",
"7. c #B4798B",
"8. c #C27E8E",
"9. c #75988A",
"0. c #46B284",
"q. c #4CB488",
"w. c #52B68C",
"e. c #58B791",
"r. c #5BBA94",
"t. c #63A78C",
"y. c #61BB96",
"u. c #65BC99",
"i. c #6DBD9D",
"p. c #72BD9E",
"a. c #788DAC",
"s. c #76BFA4",
"d. c #6EC09F",
"f. c #70C09F",
"g. c #6FC1A0",
"h. c #70C0A0",
"j. c #79C3A6",
"k. c #7EC8AB",
"l. c #938A8C",
"z. c #86998E",
"x. c #8A8894",
"c. c #9D8992",
"v. c #AC8986",
"b. c #B19691",
"n. c #B0A19B",
"m. c #8A89A7",
"M. c #968DA8",
"N. c #8394B2",
"B. c #8998B6",
"V. c #9799BC",
"C. c #A189A7",
"Z. c #A395AB",
"A. c #A89DB7",
"S. c #92B7AC",
"D. c #B3ADAF",
"F. c #A4A5BD",
"G. c #C6848A",
"H. c #C49783",
"J. c #DB8999",
"K. c #D9A584",
"L. c #C6AA91",
"P. c #DBB197",
"I. c #E1B196",
"U. c #D08FA1",
"Y. c #E199A8",
"T. c #C4ADB0",
"R. c #E1B8A4",
"E. c #83C7AD",
"W. c #86C8AF",
"Q. c #86CBB1",
"!. c #8CC9B3",
"~. c #92CAB7",
"^. c #96CCBA",
"/. c #9ACDBC",
"(. c #9ED0BF",
"). c #C9C7B6",
"_. c #EDC2A7",
"`. c #F7CFB6",
"'. c #AD9FC4",
"]. c #9EB4C2",
"[. c #A7ACC6",
"{. c #B2ACC9",
"}. c #A6BDC6",
"|. c #B7B4CC",
" X c #B6ACD2",
".X c #B9BBD1",
"XX c #E4B9C8",
"oX c #C4C5DB",
"OX c #CADBD6",
"+X c gray85",
"@X c #E5C7C9",
"#X c #CFC7E2",
"$X c #D0C7E2",
"%X c #EEECED",
/* pixels */
"o.O.r.h.h.d.d.h.h.f.h.h.h.h.f.f.f.f.f.j.f.f.f.f.h.h.d.d.f.g.g.h.",
"O.+.y.h.i.d.d.h.h.h.h.f.f.f.p.f.p.p.p.p.f.j.f.h.f.h.d.s.h.p.s.g.",
"r.y.i.i.w.q.y.f.h.h.h.f.g.%.U U U U U ! h.f.p.g.h.g.h.h.s.d.d.d.",
"h.f.h.i.w.0.y.f.h.h.h.B j E ` ` ` ` ` } 7.G.n.g.g.p.h.g.d.d.j.h.",
"h.h.h.g.u.u.d.d.g.g.9.k , L  .| X. .| ` _ ` =.i.g.h.f.f.h.E.~.E.",
"h.h.h.i.h.h.i.i.g.V w L ' } X.X.X.X.` ) { | [ I ^ g.h.f.h.!.(.E.",
"~.!.j.d.g.d.0.@.r.c , I X.X.X...X.X.` ) | | | { [ ^ d.d.h.j.E.j.",
"(./.j.h.g.i.@.O.t 2 D ' X.X.X. .X.X.` ) |  .X.X.| [ ( v.g.h.h.h.",
"E.E.j.d.h.d.e.w.@ > P | X.X.X.X. . .` )  . .8. .X.| { } v.h.h.h.",
"h.h.d.d.g.h.d.h.@ > H ` | X.X.X. . .` )  . . . .X.X.| { W h.g.h.",
"d.g.f.h.h.h.h.j.& > F P { | | X. .8. .`  . . . .X.X.X.| ] C f.h.",
"h.h.f.h.g.h.g.g.@ > F G P ) ` .. .Y.XXXXXX8. . .X.X.X.X.] % i.h.",
"h.g.p.g.h.g.h.h.= > G G G G J ` 8.A.N.N.B.A.J. . .8. .` P   d.d.",
"d.s.h.g.h.h.h.h.@ : D G G G W 7.Z.B.a.a.a.N.A.U.8.8.8.7.< c d.d.",
"d.h.h.h.h.h.E.E.#.6 3 D F F ( A.a.B..X X[.a.m. X8.C.x.C d f.d.d.",
"i.h.h.f.i.h.!./.Q.v % w r S ~ A.V.V.{.{. XV.V.C.~ M g x t.f.f.d.",
"g.p.g.h.h.h.Q.!.k.v O - w w n Z <.c.c.6.n.A.6.f 4 z B $.g.g.g.g.",
"g.g.s.h.h.i.h.g.j.j O 9 u q q u x =.Q j H.T.<.. T z g.j.g.g.g.g.",
"g.p.g.h.h.p.g.d.g.9.n ; * 9 q j &.:.&.Q P.@Xn.z K.! h.h.h.h.g.g.",
"g.g.h.i.g.~.^.^./.OXD.s O ; w k Q ;.;.K._.`.`.R.I.L.h.h.h.h.f.h.",
"g.h.h.h.W.oX$X#X$X#X|.3.C C k k K *.;.;.I.R.`.I.=.).h.h.h.j.j.h.",
"i.h.h.h..X X[.F.].].[.1.M l.b.6.N k 7 K / -.v.=.^ z.h.h.h.Q./.W.",
"j.j.h.h.}.}.j.g.#.#.C j 1 l.#XoXB.m - , , , 4 R *.& h.h.f.!./.W.",
"^.~.j.h.g.g.g.t.d + f L.@X/ N M.|.oX|.9.1 ; l *.Y 5 h.h.h.h.k.h.",
"/.^.j.h.h.g.g.= x.[.Z.=.-.T g M m.'.C h OX%Xc.& y d.d.d.f.d.d.f.",
"k.k.h.g.g.s.j.+ x. XM.l 6 M 4.4.<.~ e d +X%XOXu.w.d.d.d.f.f.f.f.",
"p.g.g.g.g.g.t.8 1.m.Z O   b 5.2.M S > h T.D.Z.S.d.d.d.d.f.f.f.f.",
"p.g.g.p.g.g.@ i p q * o # 4 A A D S f f 6 %   @ d.r.w.d.f.f.f.f.",
"d.s.g.p.h.h.= i a 8 $ a $ X o + - 0 0 q b >.p = d.w.0.y.h.f.h.h.",
"d.g.g.g.f.h.d.5 o #.u.i.i.i.i.h.c   * m ,.u c i.d.u.r.u.h.h.f.h.",
"g.p.d.d.g.p.g.i.i.p.p.g.s.p.h.h.i.i.i.i.i.i.i.f.d.d.h.f.d.d.d.f.",
"g.g.s.h.g.g.E.W.j.h.g.g.g.p.h.i.i.s.i.i.f.d.j.E.E.j.g.h.d.y.w.d."
};
