/* XPM */
static char *persL31709309285[] = {
/* columns rows colors chars-per-pixel */
"32 32 193 2 ",
"   c #050609",
".  c #0D1413",
"X  c #161A1C",
"o  c #2F1C14",
"O  c #0D231A",
"+  c #13241E",
"@  c #23231F",
"#  c #1A1C23",
"$  c #1E222B",
"%  c #1B2B2B",
"&  c #1B2A3C",
"*  c #322A2B",
"=  c #392F28",
"-  c #292C36",
";  c #293339",
":  c #5A1D26",
">  c #562A2C",
",  c #483D3B",
"<  c #503036",
"1  c #78222D",
"2  c #6A2B34",
"3  c #7A2E37",
"4  c #77363C",
"5  c #28453C",
"6  c #524137",
"7  c #6D493E",
"8  c #2E3549",
"9  c #353842",
"0  c #333B4B",
"q  c #3A3D4C",
"w  c #333B53",
"e  c #533943",
"r  c #683946",
"t  c #28434C",
"y  c #3C4541",
"u  c #384B43",
"i  c #2B5341",
"p  c #38584C",
"a  c #3A4354",
"s  c #3E6958",
"d  c #30526A",
"f  c #325478",
"g  c #48464A",
"h  c #4B4D50",
"j  c #594853",
"k  c #51505F",
"l  c #694C4B",
"z  c #724C49",
"x  c #78594B",
"c  c #664B5C",
"v  c #68655A",
"b  c #73625C",
"n  c #7F655A",
"m  c #434A6A",
"M  c #524F63",
"N  c #454F7B",
"B  c #655567",
"V  c #785A6C",
"C  c #5B6466",
"Z  c #517768",
"A  c #567C79",
"S  c #756D69",
"D  c #64706B",
"F  c #657676",
"G  c #7B777D",
"H  c #99333D",
"J  c #893C46",
"K  c #993946",
"L  c #A93645",
"P  c #B53646",
"I  c #B73949",
"U  c #B83848",
"Y  c #984D50",
"T  c #AE4953",
"R  c #B84A58",
"E  c #BB535E",
"W  c #876348",
"Q  c #8D6E57",
"!  c #9B6A58",
"~  c #A27259",
"^  c #AD5662",
"/  c #BA5966",
"(  c #846E61",
")  c #926F68",
"_  c #97756B",
"`  c #896673",
"'  c #AA7565",
"]  c #A07874",
"[  c #C14454",
"{  c #C54B5B",
"}  c #C55966",
"|  c #CB5C6B",
" . c #D25D6D",
".. c #CD6474",
"X. c #D56373",
"o. c #D96676",
"O. c #D86878",
"+. c #18A068",
"@. c #21A46E",
"#. c #2AA774",
"$. c #51806D",
"%. c #588976",
"&. c #598C79",
"*. c #56967D",
"=. c #9B857D",
"-. c #BB896B",
";. c #BA8B72",
":. c #AC977C",
">. c #BF9071",
",. c #CA9071",
"<. c #D8A078",
"1. c #4F5486",
"2. c #57658E",
"3. c #6A688C",
"4. c #7B788D",
"5. c #7B7896",
"6. c #617FA0",
"7. c #7077CC",
"8. c #8F7588",
"9. c #A47D97",
"0. c #CD7388",
"q. c #D87788",
"w. c #5C9B83",
"e. c #72938D",
"r. c #5FA289",
"t. c #45B284",
"y. c #4CB488",
"u. c #52B68C",
"i. c #54BA90",
"p. c #5CB993",
"a. c #69A68D",
"s. c #6AB597",
"d. c #61BB96",
"f. c #66BD99",
"g. c #6EBE9E",
"h. c #77B49B",
"j. c #72BD9E",
"k. c #768AA8",
"l. c #71BFA0",
"z. c #6EC09F",
"x. c #70C09F",
"c. c #6FC1A0",
"v. c #70C0A0",
"b. c #79C3A6",
"n. c #7DC5A9",
"m. c #73CBA8",
"M. c #9B8585",
"N. c #8D8797",
"B. c #9A8A94",
"V. c #AB928E",
"C. c #9892AC",
"Z. c #8C98B9",
"A. c #9D9AB5",
"S. c #B18EAE",
"D. c #AF91A7",
"F. c #A59BB5",
"G. c #85B4AF",
"H. c #96AABB",
"J. c #99ADBF",
"K. c #87B3B0",
"L. c #87B8B1",
"P. c #ABA3B2",
"I. c #A6A5B9",
"U. c #C69C88",
"Y. c #D8AA8C",
"T. c #CEA893",
"R. c #E3AF8D",
"E. c #C693A4",
"W. c #CFAEA9",
"Q. c #E4BAA4",
"!. c #E3A4B4",
"~. c #A7C09E",
"^. c #83C6AD",
"/. c #86C9AF",
"(. c #8ACAB2",
"). c #91CBB6",
"_. c #96CCBA",
"`. c #9ACEBC",
"'. c #99D2BE",
"]. c #EEC6AF",
"[. c #FDD4B9",
"{. c #8FA6C3",
"}. c #9DA1C4",
"|. c #A4A3C3",
" X c #A4AAC5",
".X c #B4B4C9",
"XX c #B1B4CF",
"oX c #B5B2D0",
"OX c #BAB5D5",
"+X c #E1B8C8",
"@X c #ADC4CC",
"#X c #D3C3C4",
"$X c #DCD4E7",
/* pixels */
"+.@.d.v.v.z.c.c.l.l.l.c.l.c.x.v.x.l.l.v.g.c.c.c.c.l.c.l.c.c.v.v.",
"@.#.p.z.g.g.z.c.l.l.l.c.l.c.j.j.j.j.j.j.l.c.c.l.l.c.l.c.v.l.c.l.",
"p.d.g.g.u.y.d.x.l.l.l.l.l.c.=.E E E E E ] c.l.c.c.l.c.c.l.c.v.l.",
"v.x.v.g.u.t.d.x.l.l.g.V./ T } X.o.X.X.o.Y X u c.l.c.c.l.c.c.b.v.",
"v.v.v.z.f.f.g.z.l.) T }  . .{  .o.o.O.O.X./ ^ l p v.l.v.v./._.^.",
"v.v.x.x.v.x.g.z.] }  .X.o.o.{ { o.o.O.O.O.O.| 2 u v.c.c.v.(.`./.",
").(.b.z.c.z.t.=.| X.O.O.O.o.{ { O.O.O.O.O.O...Y l m.v.l.l.b.^.l.",
"`.`.m.c.c.c.M.} X.O.O.O.O.O.{ { O.O.o.O.O.O.X.R 3 5 v.c.l.b.l.l.",
"/.^.v.x.m.] | X.X.O.O.O.O.O.{ { o.O.O.o.O.O.X.{ 1 + v.v.v.v.v.v.",
"v.b.z.j.S } X.O.O.O.O.O.O.O.R { X.O.O.O.O. .{ I 1 + v.v.v.v.v.v.",
"l.c.v.g.* ^ O.o.O.O.O.X.q.!.+X#X!.q.o. .{ R U P 1 O p.f.v.l.v.l.",
"v.v.v.g.. K  .X.O.O.O.q.E.I.{.Z.F.E...[ P U U P 1 O t.p.v.z.v.c.",
"c.x.v.g.g 3 R 0.0.0.0.E.A.k.k.6.Z.C.] { U U U L 1 O p.f.l.v.l.c.",
"c.l.c.l.a., V D.S.S.W.A.k.Z. X XZ.k.C.0.P I L K > % z.z.c.v.l.v.",
"v.v.x.v.v.&.C j V ` I.}.Z. XOXOX|.Z.|.9.K J r < 6 &.v.v.l.v.c.v.",
"l.c.l.c.v.b.e.%.z 4 j 4.}.S.9.N.V.4.3.B e g 8 $ u m.g.c.c.x.c.l.",
"v.v.v.v.x.x./.'.( W o k P.Y.v n ;.b h w a a 0 $ y ^.x.x.x.v.x.v.",
"x.v.x.v.x.x.m.x.( ,.7 G #XQ.( =.<.;.v w 0 ; ; ; $.v.x.x.v.v.z.v.",
"v.v.v.x.x.x.x.z.:.R.:.W.].].,.>.<.,.b q ; $ - w.m.z.z.z.z.z.v.v.",
"v.x.v.x.x.x.x.x.~.V.].[.[.].R.<.,.~ z e j B 3.l.K.K.K.K.G.L.x.v.",
"v.x.v.v.x.x.x.x.&.n ;.T.U.-.! W x B ` M.B.4.4.C. XJ.H.J.oXXXn.b.",
"c.c.x.v.x.x.x.m.@ ~ ' 7 > > < - a k.XX$XB.= , D *.*.z.b.@XXX_.^.",
"b.b.v.v.x.x.x.x.p ~ -.7 < * S I..XXX|.8._ Q.T.n * u h.z.x./._./.",
"_.).b.v.x.x.x.z.m.v 6 S e.e.C 4..XF.8.B ! R.T.M.F 4.D x.x.b.b.b.",
"`._.b.v.v.v.v.x.v.Z u r.m.m.5 e 9.5.2.1.V W Q B.OXF.O c.c.c.z.c.",
"n.n.v.v.v.v.v.v.v.v.a.w.w.a.p : J c 3.7.1.  . M F.N.% r.c.c.c.c.",
"z.z.v.z.c.v.v.j.j.c.5   X < j g J K H H r - X $ 0 d f % g.v.c.g.",
"x.x.v.v.v.v.v.z.p.i.i w N m e w e 9 * @ @ & d t ; f d 8 j.v.v.v.",
"v.c.v.v.x.c.v.g.u.t.p.A m N m ; # 8 A l.g.l.g.v.r.& t p.v.l.v.c.",
"v.l.x.c.v.l.v.z.f.p.f.c.A m w ; q Z l.l.l.v.v.v.a.u h f.v.c.c.l.",
"g.v.v.v.v.v.v.v.v.v.c.l.l.p   s l.g.l.l.v.v.l.v.v.g.g.l.v.j.g.v.",
"v.v.c.j.v.v.^./.b.v.l.l.l.s.s.g.l.l.l.l.v.v.v.^./.b.l.c.l.d.i.f."
};
