/* XPM */
static char *persT21709309286[] = {
/* columns rows colors chars-per-pixel */
"32 32 183 2 ",
"   c #12151A",
".  c #201F21",
"X  c #182527",
"o  c #183328",
"O  c #242627",
"+  c #272D36",
"@  c #3F3B3B",
"#  c #473636",
"$  c #583635",
"%  c #7C2B35",
"&  c #683C3F",
"*  c #294438",
"=  c #364036",
"-  c #61493C",
";  c #2A384A",
":  c #393846",
">  c #373F50",
",  c #423E4D",
"<  c #443F51",
"1  c #6A3E4B",
"2  c #7B3B49",
"3  c #374744",
"4  c #394657",
"5  c #3C475C",
"6  c #3D4B61",
"7  c #314B68",
"8  c #384F6A",
"9  c #3E516A",
"0  c #49474B",
"q  c #444756",
"w  c #65434A",
"e  c #685446",
"r  c #6A5B4F",
"t  c #745352",
"y  c #49655B",
"u  c #58655A",
"i  c #43715F",
"p  c #6F6B5B",
"a  c #75745C",
"s  c #404662",
"d  c #42546C",
"f  c #4D5A6E",
"g  c #565665",
"h  c #535C6C",
"j  c #455B75",
"k  c #495878",
"l  c #5B5173",
"z  c #665F6C",
"x  c #5A6666",
"c  c #4E7767",
"v  c #557668",
"b  c #55716E",
"n  c #5C736E",
"m  c #576777",
"M  c #686764",
"N  c #6B6769",
"B  c #7F6160",
"V  c #6A6B7A",
"C  c #76777C",
"Z  c #872935",
"A  c #972E3A",
"S  c #873B46",
"D  c #813B4B",
"F  c #993943",
"G  c #A73846",
"H  c #B33847",
"J  c #BA3847",
"K  c #B63948",
"L  c #BA3A4A",
"P  c #8A4547",
"I  c #985858",
"U  c #956F57",
"Y  c #A5705C",
"T  c #895964",
"R  c #A45C64",
"E  c #B55260",
"W  c #856E73",
"Q  c #AF696E",
"!  c #A2776D",
"~  c #A67674",
"^  c #C14656",
"/  c #C54B5B",
"(  c #CB5464",
")  c #C65E6B",
"_  c #CD5B6B",
"`  c #D25E6E",
"'  c #C5606C",
"]  c #CA606E",
"[  c #CB6371",
"{  c #D56474",
"}  c #D86777",
"|  c #D86979",
" . c #18A068",
".. c #21A46E",
"X. c #2AA774",
"o. c #38A97E",
"O. c #5F8F7D",
"+. c #569379",
"@. c #619B7A",
"#. c #74937A",
"$. c #9C806F",
"%. c #86877A",
"&. c #97847B",
"*. c #BF9477",
"=. c #5A5F8B",
"-. c #5D6591",
";. c #676983",
":. c #65768E",
">. c #757B83",
",. c #767A97",
"<. c #847B87",
"1. c #5B9385",
"2. c #63868C",
"3. c #7F828B",
"4. c #679785",
"5. c #759888",
"6. c #43A984",
"7. c #5DA086",
"8. c #45B284",
"9. c #4DB488",
"0. c #52B68C",
"q. c #5BB38F",
"w. c #58B791",
"e. c #5BB992",
"r. c #68A78D",
"t. c #75AE96",
"y. c #61BB96",
"u. c #6AB498",
"i. c #66BD99",
"p. c #6DBE9E",
"a. c #71B79A",
"s. c #7AB499",
"d. c #71BE9F",
"f. c #7D8BA4",
"g. c #72BEA0",
"h. c #6FC09F",
"j. c #70C09F",
"k. c #6FC0A0",
"l. c #70C0A0",
"z. c #79C3A6",
"x. c #73C8A6",
"c. c #7DC4A9",
"v. c #7492DE",
"b. c #7D98DE",
"n. c #7A98E3",
"m. c #918E82",
"M. c #8D9B8B",
"N. c #899B9C",
"B. c #9391AB",
"V. c #979BA8",
"C. c #8FA2A1",
"Z. c #8CBEAA",
"A. c #99AABA",
"S. c #A2A1B6",
"D. c #B4A9BD",
"F. c #B3B2BF",
"G. c #D4A792",
"H. c #83C7AD",
"J. c #87C8AF",
"K. c #87C8B0",
"L. c #8CC9B2",
"P. c #94C6B5",
"I. c #91CBB6",
"U. c #96CDB9",
"Y. c #9ACEBC",
"T. c #9ED0BF",
"R. c #9DB3C2",
"E. c #99AADB",
"W. c #A9ABC5",
"Q. c #B6BACC",
"!. c #A9B4DB",
"~. c #BCBAD2",
"^. c #BCBBD7",
"/. c #83A0EA",
"(. c #97ACE4",
"). c #A5B8F1",
"_. c #C2BFD6",
"`. c #BFC0D0",
"'. c #BFCAEE",
"]. c #CAC9D9",
"[. c #D0CFDF",
"{. c #C6CDE9",
"}. c #D3CFE6",
/* pixels */
" ...y.l.l.h.h.k.l.l.l.k.k.l.l.l.l.l.j.l.l.l.l.j.l.l.k.l.j.k.l.j.",
"..X.e.h.p.h.h.k.k.l.l.g.g.d.j.l.d.d.d.d.j.l.k.l.k.l.l.l.l.l.l.l.",
"e.y.p.h.0.9.y.j.g.k.g.g.t.M.%.m.m.m.m.m.M.z.p.k.l.l.k.l.l.l.l.k.",
"l.l.l.p.0.8.y.j.g.g.M.&.~ ' ] ] ] ' ' ] [ ~ %.s.j.l.l.j.l.l.l.l.",
"l.l.k.k.i.i.h.h.p.#.Q ) ] { } } } } } { { ) E %.a.l.l.l.l.J.I.H.",
"l.l.l.k.l.l.h.h.y I ` { } } } } } } } } } } { R x p.l.k.l.I.Y.J.",
"I.L.z.p.h.h.8.c 1 E } } ` ( / ( / / ( ( ( { | ) P M l.l.l.z.H.z.",
"T.Y.x.k.k.h.o.o Z / _ _ ( / ^ ^ / ^ ^ ^ / _ ` ( G w l.l.l.l.l.g.",
"H.H.l.l.k.h.e.X Z ^ ^ ^ / ` { ` ` { ` { ( / ^ ^ G - l.j.l.l.j.l.",
"l.l.l.l.l.l.k.* % / ( _ ` } | | | | | | } ` ( ( G e j.j.l.l.l.l.",
"k.l.l.l.k.l.l.7.@ A ^ ( ` { ` ` ` ` ` ` ` _ / H $ +.e.i.l.j.l.j.",
"l.l.l.l.l.l.l.x.= Z K L ^ ^ / ^ ^ / ^ ^ ^ ^ L A # 9.8.y.l.l.l.l.",
"l.j.l.l.l.l.l.+.e P G K J J J L L L L L K K H P r @.e.i.l.l.k.l.",
"l.l.j.k.l.h.l.* U I 2 F G K J J L J J L G F S P Y a p.h.l.l.l.l.",
"k.h.k.l.l.l.c.v - $ 0 0 w 2 D D D D D D 2 1 , # e #.k.l.k.l.l.k.",
"l.g.l.l.l.l.L.P.v O 0 h d q q , , > < q 5 f z & - #.k.d.l.l.j.l.",
"l.k.l.l.l.l.K.L.a.u r M j 9 6 5 5 5 5 d j h B R R p k.k.k.l.j.l.",
"l.g.l.l.l.l.l.z.d.5.M = 0 x 9 7 7 7 8 m N 0 0 W ! a k.k.l.l.l.k.",
"l.l.l.l.l.l.k.h.l.d.O.0 # 0 4 ; ; ; > g >.>.;.=.M #.h.h.l.l.l.l.",
"l.h.l.l.l.l.l.l.p.l.t.m s m V V j j C V f.^.W.;.C h.h.h.l.k.h.h.",
"l.l.j.l.l.l.l.l.l.g.1.j -.W.{.).n.n.'.`.S.~.^.C.Z.l.l.l.l.x.z.z.",
"k.k.g.k.l.j.p.l.l.g.2.k ,.~.'.v.v.v.(.[.~.~.}.`.c.l.l.l.l.K.U.H.",
"z.z.l.l.l.l.l.p.l.4.;.l ,.Q.!.v.n.n./.].W.S._.Q.p.p.l.l.l.J.Y.H.",
"I.I.z.l.l.l.l.p.r.x T t N V.!.b.n.n.E.F.<.W D.R.6.e.g.l.l.z.c.l.",
"Y.U.z.l.l.l.l.l.3 $.G.W O 0 V.W.W.V.B.z $ T D.R.o.q.l.l.l.k.k.l.",
"c.c.l.l.l.l.l.x.3 U *.%.4 0 f f ; . O + : g B.A.u.p.l.k.k.l.l.l.",
"l.h.l.h.j.l.l.l.5.r e W N.C.3.4 +     ; > > x A.g.k.p.p.k.g.k.l.",
"l.l.l.l.l.l.k.l.0.c y O.a.x.r.v b : X 9 6 q y r.g.w.0.i.l.l.l.l.",
"l.j.l.l.g.l.l.h.0.8.e.p.l.l.k.g.l.i ; :.m j r.x.i.0.8.e.l.l.l.l.",
"l.l.k.l.k.k.h.h.i.e.i.d.l.l.k.l.x.+.x 3.C n 7.h.h.i.e.p.l.k.k.l.",
"k.g.l.h.j.k.l.l.l.l.l.k.l.l.k.k.p.p.1.c O.a.j.h.j.l.l.l.l.p.p.l.",
"l.h.l.l.l.l.H.K.z.l.k.g.k.l.k.k.k.g.p.p.d.l.l.H.J.z.k.l.p.y.e.i."
};
