/* XPM */
static char *persT1709309286[] = {
/* columns rows colors chars-per-pixel */
"32 32 194 2 ",
"   c #070C0C",
".  c #1E0406",
"X  c #0C120F",
"o  c #0E1818",
"O  c #151413",
"+  c #18251F",
"@  c #151A29",
"#  c #201B25",
"$  c #1C2628",
"%  c #183A2B",
"&  c #25282C",
"*  c #23322D",
"=  c #3C332D",
"-  c #262A38",
";  c #283637",
":  c #353639",
">  c #3B3C3C",
",  c #641E27",
"<  c #432225",
"1  c #5F2C31",
"2  c #513332",
"3  c #77282F",
"4  c #7D2B36",
"5  c #623B39",
"6  c #1D4036",
"7  c #29453A",
"8  c #76553F",
"9  c #1D3955",
"0  c #283347",
"q  c #373C47",
"w  c #233C56",
"e  c #2B3E53",
"r  c #433843",
"t  c #443F4F",
"y  c #433354",
"u  c #783C48",
"i  c #2C4D47",
"p  c #37464A",
"a  c #2E4052",
"s  c #2C445C",
"d  c #374152",
"f  c #3B4659",
"g  c #3D6655",
"h  c #274361",
"j  c #3A4B62",
"k  c #3A526E",
"l  c #395574",
"z  c #46444E",
"x  c #504B4C",
"c  c #444154",
"v  c #474A57",
"b  c #414558",
"n  c #4C565B",
"m  c #57565B",
"M  c #6E4648",
"N  c #685542",
"B  c #765A46",
"V  c #6F5F50",
"C  c #456056",
"Z  c #446B59",
"A  c #776049",
"S  c #6C6051",
"D  c #62645B",
"F  c #72665B",
"G  c #434E69",
"H  c #495669",
"J  c #545968",
"K  c #4D5B79",
"L  c #4F6E62",
"P  c #5A6A63",
"I  c #457261",
"U  c #4A7C68",
"Y  c #5C796B",
"T  c #5B6674",
"R  c #66686F",
"E  c #7D776E",
"W  c #626A74",
"Q  c #68737C",
"!  c #73747D",
"~  c #8E2F3A",
"^  c #982D3A",
"/  c #893B4B",
"(  c #893C48",
")  c #983B46",
"_  c #A83B47",
"`  c #B63747",
"'  c #B93747",
"]  c #B83847",
"[  c #B53948",
"{  c #BC3949",
"}  c #94484B",
"|  c #875649",
" . c #AD4A53",
".. c #B54756",
"X. c #BF4252",
"o. c #B14B56",
"O. c #806A5F",
"+. c #A4715B",
"@. c #985C6A",
"#. c #A05B62",
"$. c #B95C67",
"%. c #8F7363",
"&. c #9C716D",
"*. c #AE676D",
"=. c #A17C6F",
"-. c #C04454",
";. c #C74E5E",
":. c #C45362",
">. c #CC5565",
",. c #CE5B6A",
"<. c #D15D6E",
"1. c #CE6371",
"2. c #D46373",
"3. c #D86777",
"4. c #D86879",
"5. c #18A068",
"6. c #21A46E",
"7. c #2AA774",
"8. c #36AF7E",
"9. c #448369",
"0. c #4C826D",
"q. c #538B74",
"w. c #628E7D",
"e. c #71877D",
"r. c #AF8160",
"t. c #BA8569",
"y. c #4E5A97",
"u. c #457785",
"i. c #74718D",
"p. c #757988",
"a. c #7B7F8F",
"s. c #5861A2",
"d. c #827A97",
"f. c #6B9784",
"g. c #46B385",
"h. c #4CB488",
"j. c #52B68C",
"k. c #55BB90",
"l. c #5DBA94",
"z. c #65A28A",
"x. c #62BB96",
"c. c #6AB698",
"v. c #65BC99",
"b. c #6DBE9E",
"n. c #71BD9E",
"m. c #71BFA0",
"M. c #6EC09F",
"N. c #70C09F",
"B. c #6FC1A0",
"V. c #70C0A0",
"C. c #79C3A6",
"Z. c #7EC5A9",
"A. c #75C9A8",
"S. c #728CCE",
"D. c #688ADF",
"F. c #7392DE",
"G. c #6B8DE2",
"H. c #7495E5",
"J. c #909399",
"K. c #A2938B",
"L. c #B5A39D",
"P. c #9598A7",
"I. c #8385B5",
"U. c #9C99B2",
"Y. c #A694A9",
"T. c #A2A2AF",
"R. c #AAACBB",
"E. c #83C6AD",
"W. c #87C8AF",
"Q. c #87C8B0",
"!. c #8BC9B2",
"~. c #91CBB6",
"^. c #96CDB9",
"/. c #9ACEBC",
"(. c #9ED0BF",
"). c #849BD9",
"_. c #A39DC1",
"`. c #9DB6C0",
"'. c #97A8DC",
"]. c #A9A6CA",
"[. c #AEB4CF",
"{. c #B5B6CB",
"}. c #A5B1DA",
"|. c #BAB8D6",
" X c #93ABE9",
".X c #AAB9E7",
"XX c #C3BEDA",
"oX c #BAC8F3",
"OX c #C6C5D8",
"+X c #C6C3E1",
"@X c #CDCDE1",
"#X c #D8D7EA",
"$X c #C6CFF1",
"%X c #E3E1F7",
/* pixels */
"5.6.l.V.V.B.V.B.N.V.V.B.V.V.V.V.N.V.N.V.V.V.N.V.N.V.M.m.V.B.n.B.",
"6.7.l.M.b.M.M.n.V.V.V.n.V.B.N.n.V.V.B.m.V.V.V.V.V.V.V.V.V.V.V.V.",
"l.x.b.b.j.h.x.V.N.V.N.n.m.n.n.n.n.n.n.n.n.N.B.B.n.V.V.V.V.b.V.B.",
"V.N.V.b.j.g.x.N.N.N.N.M.K.$.o.o.o.o.o.o.o.&.B.B.V.V.B.N.V.N.C.V.",
"V.V.m.B.v.v.M.M.N.V.&.o.:.<.3.<.2.2.2.1.2.>. .$.L.v.B.B.V.Q.^.E.",
"V.V.B.N.V.N.b.b.V.E $.1.2.3.3.3.3.3.3.3.4.2.<.,.*.J.B.B.V.!./.E.",
"~.!.C.M.B.b.g.8.Y #.1.4.3.3.3.3.3.3.3.3.4.3.3.2.$.#.Y B.V.C.E.C.",
"(./.C.V.V.b.8.Z 5 $.4.3.2.1.<.,.<.<.<.<.<.2.4.3.2.} 2 V.V.V.V.m.",
"E.E.C.M.V.B.i 1 _ ,.3.3.>.-.-.-.X.X.X.X.X.;.4.2.2.:.~ 7 M.B.B.B.",
"V.V.N.N.B.B.% , _ X.X.X.;.<.<.,.,.,.<.<.,.>.X.X.X.X.^ o b.M.B.V.",
"m.B.V.M.M.B.$ , [ ;.,.>.<.4.4.4.4.4.4.4.4.2.>.,.,.;.^ o b.V.m.V.",
"B.V.V.m.M.M.q.M 4 ..>.1.4.4.4.4.4.4.4.4.4.4.2.>.:._ 1 9.m.V.V.M.",
"m.B.m.V.M.V.A.P < ^ { >.1.<.<.<.<.2.<.<.2.<.>.X.[ ~ + M.m.B.m.V.",
"V.M.B.V.m.V.A.P < ^ ] X.-.-.-.-.-.-.-.-.X.X.X.] _ 3 + V.V.V.n.B.",
"m.B.n.V.V.V.I S | }  .{ ' ' ' ] ` ` ] ] ` ` ' ` _ } A g M.n.B.V.",
"V.V.B.V.B.V.$ 8 t.| u ~ _ ' ' ' { { { { ' [ ) ( 5 +.t.X b.B.V.V.",
"V.B.V.V.N.C.U S 8 2 d c u / ( ( / / / / / u x b r 5 A g M.V.N.V.",
"n.V.N.V.N.V.A.f.> O G H f c c d t t t t c b G H - O x A.N.V.V.V.",
"B.V.M.V.V.B.M.V.w.& F T l k f d f q q f j l T O.x > f.N.V.V.N.V.",
"B.V.V.V.V.N.M.V.A.q.N > n ! K l k k k l T W 0 N F w.C.N.M.B.M.V.",
"V.V.V.V.V.V.A.z.0.0.a o x O.v 9 9 w w w m %.z c R 9.q.M.V.C.C.C.",
"B.b.V.V.V.V.z.D = # y.K q q q 2 - - > p q p.%X_.J $ = f.V.Q.^.E.",
"C.C.m.V.V.V.z A =.i.s.G f W R.@X).S.|.OXJ.p.#X].I.d.+.; n.W.^.W.",
"~.~.C.V.V.V.; B *.@.y 0 T P.@XoXH.G. X$XXXU.OX+X].Y.r.+ n.C.C.A.",
"/.^.C.V.V.V.L V B 3 . & a.|.#X XD.F.F..X#XXX|.%XXXJ.A C M.M.N.N.",
"Z.Z.V.V.V.V.V.Y % $ o $ p.|.OX).F.'.F.'.OX].U.@XXXa.; N.M.N.V.V.",
"V.M.V.V.B.V.V.V.B.B.u.@ x T.XX'.D.D.F.}.XXE & d._.`.b.b.V.N.V.N.",
"V.V.V.N.V.V.V.V.l.k.6 $ - p J.{.[.{.[.{.! & - : p.l.j.v.V.V.B.V.",
"m.M.V.N.V.V.V.M.j.g.% 0 s e n Q a.a.p.R f w e * e.j.g.x.V.V.N.V.",
"V.V.V.B.V.B.V.M.x.x.Z d h s p J Q Q T n a s a n J.x.l.v.V.V.B.V.",
"V.V.V.V.V.V.V.V.N.N.C.i X > f.B.n.n.M.N.0.  7 N.M.M.V.V.N.b.M.M.",
"n.B.V.N.B.V.E.Q.C.N.n.b.c.b.n.N.M.N.N.M.b.c.n.E.E.A.B.V.b.x.l.v."
};
