/* XPM */
static char *persF21709309283[] = {
/* columns rows colors chars-per-pixel */
"32 32 189 2 ",
"   c #030001",
".  c #190B0E",
"X  c #0F100D",
"o  c #131519",
"O  c #2B1414",
"+  c #0F251C",
"@  c #29241C",
"#  c #302118",
"$  c #131525",
"%  c #1B2520",
"&  c #123225",
"*  c #1D3229",
"=  c #1D2235",
"-  c #242629",
";  c #322625",
":  c #23352D",
">  c #2E352F",
",  c #262A36",
"<  c #292933",
"1  c #2C3138",
"2  c #383939",
"3  c #461E21",
"4  c #521D23",
"5  c #442725",
"6  c #412D2C",
"7  c #562E2E",
"8  c #483329",
"9  c #553A37",
"0  c #6C2D38",
"q  c #1B4736",
"w  c #2C4539",
"e  c #36463C",
"r  c #5B4332",
"t  c #59453D",
"y  c #654738",
"u  c #77483F",
"i  c #65513F",
"p  c #2B384D",
"a  c #353A47",
"s  c #333A63",
"d  c #4D3A49",
"f  c #5E3943",
"g  c #683E47",
"h  c #713F4D",
"j  c #364545",
"k  c #3C4541",
"l  c #355A4B",
"z  c #374253",
"x  c #3A4458",
"c  c #334B58",
"v  c #3F6A57",
"b  c #384766",
"n  c #475747",
"m  c #4E4152",
"M  c #5B4A59",
"N  c #485D51",
"B  c #525755",
"V  c #614C4B",
"C  c #774445",
"Z  c #635147",
"A  c #784F5F",
"S  c #785F58",
"D  c #4A655A",
"F  c #7A634B",
"G  c #68625C",
"H  c #79635D",
"J  c #4C536A",
"K  c #50576E",
"L  c #66536D",
"P  c #4A7765",
"I  c #746766",
"U  c #716F6F",
"Y  c #8A2B37",
"T  c #88383E",
"R  c #873B45",
"E  c #963A43",
"W  c #983A48",
"Q  c #A23240",
"!  c #AB3A4A",
"~  c #B33B4A",
"^  c #BB3949",
"/  c #984C55",
"(  c #825655",
")  c #8E5653",
"_  c #AE4B54",
"`  c #A6495A",
"'  c #BD4353",
"]  c #BF4858",
"[  c #AA575E",
"{  c #B1515F",
"}  c #836558",
"|  c #986753",
" . c #9B755A",
".. c #A6795C",
"X. c #914C61",
"o. c #985D74",
"O. c #B35C66",
"+. c #996D65",
"@. c #8C736B",
"#. c #97756F",
"$. c #AC616F",
"%. c #BB636C",
"&. c #B27E61",
"*. c #C04857",
"=. c #C44959",
"-. c #C54C5C",
";. c #CB5464",
":. c #C55D6A",
">. c #C95969",
",. c #D15D6D",
"<. c #CA6777",
"1. c #D56373",
"2. c #D76778",
"3. c #D86878",
"4. c #18A068",
"5. c #21A46E",
"6. c #2AA774",
"7. c #35AD7C",
"8. c #598C77",
"9. c #75887B",
"0. c #A78066",
"q. c #BA8769",
"w. c #CB9572",
"e. c #E4A97F",
"r. c #4E5B8B",
"t. c #535885",
"y. c #6E7985",
"u. c #5867A8",
"i. c #857697",
"p. c #C76F84",
"a. c #C77786",
"s. c #D77686",
"d. c #719788",
"f. c #45B384",
"g. c #4CB488",
"h. c #52B68C",
"j. c #59B791",
"k. c #5CB994",
"l. c #68AF92",
"z. c #62BB96",
"x. c #66BC99",
"c. c #6DBE9E",
"v. c #71BF9F",
"b. c #74BEA1",
"n. c #6EC09F",
"m. c #70C09F",
"M. c #6EC1A0",
"N. c #70C0A0",
"B. c #79C3A6",
"V. c #7EC5A9",
"C. c #76CAA8",
"Z. c #978885",
"A. c #92918D",
"S. c #A88A88",
"D. c #AA9499",
"F. c #A9A39A",
"G. c #9292AB",
"H. c #A68EB1",
"J. c #B6A0AF",
"K. c #A5A2BB",
"L. c #D98797",
"P. c #C59391",
"I. c #CEA58D",
"U. c #D6AD9B",
"Y. c #DEB39A",
"T. c #E6B28C",
"R. c #D698A7",
"E. c #E199AA",
"W. c #C7AFAC",
"Q. c #D5B4A8",
"!. c #DBA0B0",
"~. c #E2B9A1",
"^. c #83C7AD",
"/. c #87C8AF",
"(. c #85CBB0",
"). c #8BCAB2",
"_. c #92CBB6",
"`. c #96CDBA",
"'. c #9ACEBC",
"]. c #9ED0BF",
"[. c #A8C0B4",
"{. c #EEC3A9",
"}. c #F4CAAF",
"|. c #FFD4B7",
" X c #BBBECE",
".X c #CDC6CD",
"XX c #E7CEC7",
"oX c #E5CBDB",
"OX c #E1DDED",
/* pixels */
"4.5.k.N.N.n.M.v.M.v.M.b.M.v.M.b.M.M.v.M.N.N.m.M.m.N.M.v.N.n.b.M.",
"5.6.z.M.c.c.n.N.v.M.v.M.v.M.v.M.M.b.M.v.N.m.N.N.m.N.N.N.N.N.b.n.",
"k.z.c.c.h.g.z.m.M.v.v.v.M.N.b.v.b.M.v.M.N.N.N.N.N.m.N.m.N.c.M.n.",
"N.m.N.c.h.f.z.m.v.v.v.v.b.N.b.M.v.v.v.b.N.m.M.m.N.M.N.N.N.N.B.N.",
"b.M.M.v.x.x.n.n.b.b.M.#._ _ _ _ _ _ ` %.F.M.N.N.v.M.v.M.N./._./.",
"M.N.v.M.N.N.c.n.Z.O.O.:.1.,.,.,.,.,.,.,.:.[ #.n.M.v.M.b.N.).'./.",
"_.).B.v.v.c.f.9.$.;.;.1.3.3.3.3.3.3.3.2.>.;.:.A.M.b.M.M.N.B.V.B.",
"].'.B.M.v.c.7.H { 1.3.1.3.3.3.3.3.3.3.3.2.2.:.@.M.M.b.N.N.N.N.b.",
"^.^.N.N.N.N.q / 1.2.3.2.3.3.3.3.3.3.3.3.3.3.2.[ N M.v.v.M.v.M.v.",
"N.N.N.N.N.B.+ / 2.3.3.3.3.3.3.3.3.3.3.3.3.2.3.` > C.M.v.v.M.M.v.",
"M.v.N.N.v.l h >.3.1.;.*.=.=.=.=.=.*.=.*.-.>.3.<.) G P x.M.v.v.M.",
"v.N.M.N.c.- { E.s.;.-.-.-.-.-.-.;.-.-.;.-.-.3.E.<.0 j j.b.M.M.b.",
"M.b.v.M.v.% $.oXR.;.,.3.1.1.1.1.1.1.1.1.1.;.p.oXa.V j x.M.b.M.v.",
"M.M.M.b.b.: Z.OX!.2.1.3.3.3.3.3.3.3.3.3.3.,.L.OXJ.M j v.v.M.v.M.",
"b.M.v.M.v.8.y. X!.s.3.3.3.3.3.3.3.3.3.3.3.3.L..Xy.a j v.v.M.M.b.",
"M.v.M.v.M.d.- G.D.;.-.1.3.3.3.3.3.3.3.2.,.;.p.G.< ; G b.M.v.M.M.",
"b.M.N.N.n.t 8 G / ^ ^ =.1.3.3.3.3.3.1.;.' ^ ! L 9 7 Z M.n.N.N.M.",
"n.N.v.N.c.% ..9 0 E ! ~ ;.,.1.,.,.1.;.^ ~ ! h 5  .r + P M.N.N.N.",
"M.b.b.m.n.: q.u 9 g R ! ' =.*.*.] =.] ~ W C g y 0.r   X P n.N.N.",
"M.n.v.v.v.P Z 0 ( A M o.X.R E T E R X.o.A V } C y # O y i 8.n.N.",
"v.M.b.M.v.C.l 2  .q.@.K.t.t F | | f J K.A.#.q.6 w : 8 e.w.@ m.B.",
"M.v.M.v.M.b.C.* y &.w.XX0.} I.T.T. .U .XU.q.F l C.l.n ..| N _.^.",
"B.B.b.M.v.M.b.: 2 C A P.Q.~.{.}.}.Y.U.I. .5 e n.n.n.l.e n (.`./.",
"_._.B.M.M.v.M.: ; m L U #.S.Y.{.{.I.+.V ; . & f.6.j.N.M.N.B.^.m.",
"'.`.B.N.N.N.N.: , b b p 2 S S.W.Q.S.M = = $ + 6.6.j.n.n.m.n.m.m.",
"V.V.N.N.N.N.v.l c b 1 ; 1 p K i.H.H.i.J r.J o c j.n.n.n.m.m.N.m.",
"M.c.N.N.N.v.v.M.0.#.U.|.Z   O Y W E W M t.r., * M.n.n.n.m.N.N.N.",
"N.N.N.N.M.N.N.n.A.$.q.w.t 3 Y Q R R ! W g s , * n.k.h.n.N.M.N.m.",
"N.N.N.N.b.b.n.c.[.F.S y U A 7 4 3 d A g d z , : n.h.f.z.N.N.N.m.",
"b.N.N.c.n.M.M.n.k.[.I e 8.d.B k 2 z b p a p 1 D n.z.k.x.N.N.N.N.",
"n.M.N.N.N.c.N.N.N.B.m.m.N.N.c.c.v.D o p x , * N.N.N.N.N.m.n.n.n.",
"n.b.N.N.N.b.^.(.B.N.N.N.N.N.v.c.C.v = u.u.b : /./.B.N.N.c.z.j.x."
};
