/* XPM */
static char *persR1709309284[] = {
/* columns rows colors chars-per-pixel */
"32 32 193 2 ",
"   c #060908",
".  c #190E09",
"X  c #0D1313",
"o  c #16181C",
"O  c #1D1F23",
"+  c #1F322B",
"@  c #392A2B",
"#  c #282931",
"$  c #2B323E",
"%  c #333B3B",
"&  c #5D1E26",
"*  c #641E27",
"=  c #46282A",
"-  c #482F31",
";  c #483A36",
":  c #682E35",
">  c #683739",
",  c #1C503B",
"<  c #32473F",
"1  c #574436",
"2  c #293244",
"3  c #2D334E",
"4  c #353841",
"5  c #583F45",
"6  c #3F4644",
"7  c #375A4B",
"8  c #374153",
"9  c #394253",
"0  c #3F5E52",
"q  c #384C66",
"w  c #404745",
"e  c #4E4347",
"r  c #574E4F",
"t  c #464554",
"y  c #4B5B57",
"u  c #53535A",
"i  c #6B4542",
"p  c #735245",
"a  c #665755",
"s  c #476458",
"d  c #51685C",
"f  c #736259",
"g  c #485766",
"h  c #5A5C62",
"j  c #434D79",
"k  c #445575",
"l  c #565676",
"z  c #614F60",
"x  c #526F66",
"c  c #716C6D",
"v  c #6F7D6D",
"b  c #7A6876",
"n  c #697578",
"m  c #85363F",
"M  c #8D343C",
"N  c #883E4D",
"B  c #AD3544",
"V  c #A93A47",
"C  c #B63646",
"Z  c #B53B4A",
"A  c #B93848",
"S  c #AF3F52",
"D  c #925052",
"F  c #AC4954",
"G  c #BD4353",
"H  c #AD525F",
"J  c #B5545D",
"K  c #8B6552",
"L  c #9C6F53",
"P  c #8F5C6D",
"I  c #B95660",
"U  c #B95969",
"Y  c #886F60",
"T  c #8D7363",
"R  c #9B7469",
"E  c #866577",
"W  c #A4726E",
"Q  c #BA6A76",
"!  c #C24656",
"~  c #C54A5A",
"^  c #CA5363",
"/  c #C35A67",
"(  c #C35B69",
")  c #CD5B6B",
"_  c #D25D6D",
"`  c #CA6170",
"'  c #D56373",
"]  c #D86676",
"[  c #D86878",
"{  c #18A068",
"}  c #21A46E",
"|  c #26A772",
" . c #35AB7B",
".. c #3CAD7F",
"X. c #4F806D",
"o. c #558370",
"O. c #628879",
"+. c #9B817A",
"@. c #A7846E",
"#. c #B5866B",
"$. c #AE8F7B",
"%. c #BA9579",
"&. c #C89170",
"*. c #DBA278",
"=. c #4B5A8A",
"-. c #545B90",
";. c #73718D",
":. c #607E9F",
">. c #5E70BB",
",. c #667BA5",
"<. c #7673B0",
"1. c #897287",
"2. c #877F99",
"3. c #A67384",
"4. c #857FA0",
"5. c #CE7686",
"6. c #D4788A",
"7. c #6B8B85",
"8. c #6C998B",
"9. c #75988B",
"0. c #46B284",
"q. c #4CB488",
"w. c #52B68C",
"e. c #59B791",
"r. c #5CB993",
"t. c #66A79E",
"y. c #62BB96",
"u. c #64BD99",
"i. c #6DBE9D",
"p. c #71BE9F",
"a. c #6382A5",
"s. c #6D86A6",
"d. c #768DAE",
"f. c #718EB0",
"g. c #78BCA5",
"h. c #66C29E",
"j. c #6FC09F",
"k. c #70C09F",
"l. c #6FC1A0",
"z. c #70C0A0",
"x. c #79C3A6",
"c. c #74C9A7",
"v. c #7EC5AA",
"b. c #8C898B",
"n. c #898999",
"m. c #9E8C9A",
"M. c #AF958A",
"N. c #A7B693",
"B. c #8289A6",
"V. c #8F91AE",
"C. c #8996B7",
"Z. c #9998B5",
"A. c #AB88A6",
"S. c #B28DAD",
"D. c #AE92A6",
"F. c #BB9AAB",
"G. c #A89EB5",
"H. c #9AABB2",
"J. c #B3ABA9",
"K. c #ADA4BA",
"L. c #C89A83",
"P. c #CD8394",
"I. c #CAA28C",
"U. c #D3A692",
"Y. c #E4AD86",
"T. c #E7B99A",
"R. c #E196A6",
"E. c #C8ACB1",
"W. c #83C7AD",
"Q. c #87C8AF",
"!. c #87C8B0",
"~. c #8CCAB3",
"^. c #91CBB6",
"/. c #96CDB9",
"(. c #9ACEBC",
"). c #99D1BD",
"_. c #DCC5BE",
"`. c #F9CDB2",
"'. c #FFD6BB",
"]. c #989DC2",
"[. c #97A6C3",
"{. c #A1AAC3",
"}. c #ABA6C9",
"|. c #ACADD1",
" X c #BBB8D5",
".X c #DFB1C1",
"XX c #C1BED8",
"oX c #E2B7C6",
"OX c #C3C5D7",
"+X c #CFCEE1",
"@X c #D3D5E6",
"#X c #D2D6EA",
"$X c #D5D9F1",
/* pixels */
"{ } r.z.z.j.l.l.z.l.p.z.z.k.k.k.k.z.j.z.g.j.j.j.l.z.j.l.k.z.k.z.",
"} | y.j.i.j.j.p.z.k.z.l.z.z.j.g.z.z.z.z.z.z.j.l.z.k.j.j.z.z.z.l.",
"y.y.i.j.w.q.y.z.z.z.l.l.p.p.p.p.p.p.p.z.l.z.l.l.z.z.z.j.z.z.k.z.",
"p.j.l.i.w.0.y.j.l.j.j.j.+.I J I I J +.l.l.p.l.g.l.k.g.j.z.z.z.z.",
"j.j.g.l.u.u.j.j.l.l.7 o D ' ' _ ' ' / J J M.i.l.l.g.l.l.z.!./.W.",
"z.j.j.j.z.z.i.j.x 1 D U ` [ [ [ [ ^ ~ _ _ I F R l.l.z.l.z.~.(.Q.",
"^.~.x.j.j.j.0. .y = H 5.] [ [ [ [ ^ ~ ' [ ' _ ) Q J.c.l.z.x.W.x.",
"(.).x.j.l.j. .| e N ^ [ ] [ [ [ [ ^ ~ ' ] [ ' ' ` 5.M.j.l.j.j.g.",
"Q.W.z.z.z.j.r., : V ` [ [ [ [ [ [ ^ ! ] [ [ ] [ ' ) &.E.c.l.l.z.",
"z.z.z.z.z.l.l.+ * Z _ [ [ [ [ [ [ ^ ! ] [ [ [ [ ] ' _ Q l.l.z.z.",
"l.z.z.z.z.z.c.+ * B ! _ [ [ [ [ ] ~ ! _ ] [ ] ] ] [ ' ( c p.z.l.",
"z.k.z.z.z.l.z.+ * B A ! ! ) [ [ R.oXoX.X6.] ] ] [ [ [ U @ p.z.z.",
"k.z.j.z.z.z.z.+ * B A C C ! ` P.K.[.[.[.F.6.6.] [ [ _ F X j.k.k.",
"z.z.z.z.z.k.z.+ & V C A C G Q D.C.:.,.s.Z.F.6.6.5.5.U m w j.k.k.",
"j.j.j.j.l.z.W.% = m V C C Q D.B.C.{.{.H.B.V.E.S.S.A.E - 8.k.k.k.",
"z.g.j.j.z.z.~.9.r = > N M 3.}.Z.]. X X|.C.].}.E E z u X.k.k.k.k.",
"z.k.z.k.z.z.W.).x O 2 e e z ;.;.m.m.2.D.G.4.z > i d o.c.j.k.k.k.",
"z.z.l.z.z.l.z.x.y O $ 9 9 8 t a #.T a L.E.n . D f W.c.k.j.k.z.k.",
"z.j.z.z.z.l.j.l.v 5 $ 4 4 9 u @.*.R c Y._.b.1 &.T z.k.z.z.z.z.l.",
"z.z.l.z.z.z.j.g.H.b.% o $ 8 u @.*.#.$.`.`.E.M.T.%.k.z.z.k.l.j.k.",
"z.g.j.j.z.l.j.z.H.b.n h g q q n %.*.Y.T.`.'.`.T.N.i.z.z.z.x.x.x.",
"j.l.j.j.k.z.g.t.s 8 B. XZ.d.f.f.J.%.L &.L.U.I.N.l.z.z.z.z.!./.W.",
"x.x.z.z.z.z.{.d.a.a.a.[. XXXXXXX$Xn.@ > : i v r.u.l.z.z.z.Q./.W.",
"^.^.x.k.j.z.V.OX#X#X@X$Xn.g l -.B.Z.1.i = y u... .r.z.z.z.x.x.x.",
"(./.x.z.z.z.g K.+X+XXX|.>.-.-.P P b b K ; s h. .| r.z.z.z.l.l.g.",
"v.v.z.z.z.z.s n G. X}.<.>.-.l W Q a 1 p f O.h.r.e.u.l.l.l.z.j.j.",
"j.j.z.k.k.k.c.+ t 4.V.<.<.3 # M.'.Y   < 9.j.z.g.z.i.i.p.z.k.l.j.",
"z.z.z.z.k.k.k.<   . $ N S : @ K &.p 7 z.k.k.z.z.p.r.w.u.z.z.z.l.",
"z.k.z.j.k.z.z.k.d + 3 k q =.j # . 0 c.h.z.k.z.k.u.w.0.r.z.z.i.z.",
"l.z.z.z.k.k.z.j.r.7.g g 3 2 2 o X x c.j.z.z.z.z.k.y.r.h.z.z.z.z.",
"z.k.z.z.z.k.z.z.l.g.7.n g w 6 w u 8.j.k.z.k.k.k.k.k.g.j.j.i.p.l.",
"z.z.k.z.l.z.W.Q.g.p.i.g.i.p.i.i.j.k.k.k.z.k.z.W.Q.x.l.z.j.y.r.u."
};
