/* XPM */
static char *persF1709309287[] = {
/* columns rows colors chars-per-pixel */
"32 32 185 2 ",
"   c #070908",
".  c #0F1115",
"X  c #1B1719",
"o  c #11271F",
"O  c #1B2B24",
"+  c #1C2A24",
"@  c #1F322E",
"#  c #2D2427",
"$  c #332B28",
"%  c #38322C",
"&  c #212833",
"*  c #2A2A32",
"=  c #332F32",
"-  c #233931",
";  c #2C313D",
":  c #3E3E3D",
">  c #442D28",
",  c #42332E",
"<  c #55372C",
"1  c #523033",
"2  c #5B3D36",
"3  c #6A2E39",
"4  c #6D3E3C",
"5  c #294137",
"6  c #38443E",
"7  c #594539",
"8  c #654C3A",
"9  c #1F364F",
"0  c #273647",
"q  c #22304B",
"w  c #363541",
"e  c #343A59",
"r  c #473F55",
"t  c #783B48",
"y  c #2D4D40",
"u  c #3A4352",
"i  c #3B5F50",
"p  c #326457",
"a  c #2B4866",
"s  c #36506C",
"d  c #355374",
"f  c #494D49",
"g  c #5F474E",
"h  c #4E5055",
"j  c #644443",
"k  c #644949",
"l  c #794848",
"z  c #775C48",
"x  c #685756",
"c  c #6E5A50",
"v  c #48685B",
"b  c #5B6156",
"n  c #484D6D",
"m  c #495061",
"M  c #4F5370",
"N  c #7B5668",
"B  c #4D6E60",
"V  c #4B7263",
"C  c #597464",
"Z  c #50607E",
"A  c #686061",
"S  c #70746C",
"D  c #696874",
"F  c #667776",
"G  c #8A3A46",
"H  c #983C44",
"J  c #A83A49",
"K  c #B73645",
"L  c #B33C4B",
"P  c #A23F51",
"I  c #8B424E",
"U  c #875848",
"Y  c #8A475B",
"T  c #984854",
"R  c #875A56",
"E  c #97555B",
"W  c #A94655",
"Q  c #A95057",
"!  c #AD5259",
"~  c #B4525C",
"^  c #8F6E57",
"/  c #936953",
"(  c #A26A58",
")  c #A7775C",
"_  c #87596F",
"`  c #AC5963",
"'  c #B65764",
"]  c #8B6D60",
"[  c #94786C",
"{  c #9C7B6B",
"}  c #A37966",
"|  c #AE6B75",
" . c #C14555",
".. c #C64B5C",
"X. c #C84E5E",
"o. c #C55766",
"O. c #CA5363",
"+. c #C45C6A",
"@. c #CE5A6A",
"#. c #D25D6D",
"$. c #CC6575",
"%. c #C66A7E",
"&. c #D66575",
"*. c #D96777",
"=. c #D76F7F",
"-. c #D86878",
";. c #1CA36C",
":. c #21A46E",
">. c #2AA774",
",. c #36AB7B",
"<. c #598574",
"1. c #73907B",
"2. c #B78666",
"3. c #A38471",
"4. c #B58972",
"5. c #C3896C",
"6. c #365B81",
"7. c #465483",
"8. c #515F96",
"9. c #5A6997",
"0. c #976C85",
"q. c #897382",
"w. c #CE7484",
"e. c #D37F8F",
"r. c #6C9385",
"t. c #46B284",
"y. c #4CB488",
"u. c #52B68C",
"i. c #53B88D",
"p. c #56BA92",
"a. c #5CBA94",
"s. c #64A58B",
"d. c #7AA896",
"f. c #61BB96",
"g. c #65BD99",
"h. c #6DBF9E",
"j. c #70BF9F",
"k. c #6EBEA0",
"l. c #70BFA0",
"z. c #6EC09F",
"x. c #70C09F",
"c. c #6FC1A1",
"v. c #70C0A0",
"b. c #79C3A6",
"n. c #7EC5A9",
"m. c #75C9A8",
"M. c #8F8685",
"N. c #9B8784",
"B. c #829B8B",
"V. c #858A98",
"C. c #988D97",
"Z. c #B99684",
"A. c #B2AB99",
"S. c #9A99B3",
"D. c #B798A6",
"F. c #ABA6B8",
"G. c #D88494",
"H. c #C2909F",
"J. c #D6A789",
"K. c #CDB098",
"L. c #D9B19D",
"P. c #E7B38E",
"I. c #E4B393",
"U. c #D69CAC",
"Y. c #D1A8AD",
"T. c #E2B9A2",
"R. c #EABEA5",
"E. c #E4A5B5",
"W. c #83C6AD",
"Q. c #87C8AF",
"!. c #87C8B0",
"~. c #8BC9B2",
"^. c #92CBB6",
"/. c #96CDB9",
"(. c #9ACEBC",
"). c #9ED0BF",
"_. c #D8C1BE",
"`. c #ECC2A9",
"'. c #F2C7AD",
"]. c #F7CDB3",
"[. c #B5B8C9",
"{. c #D9C8C5",
"}. c #E8CCC4",
"|. c #D8D8E8",
" X c #E7DAEA",
/* pixels */
";.;.a.v.v.x.v.v.v.v.c.v.v.c.v.v.c.v.x.v.c.l.v.v.k.v.v.l.v.c.l.v.",
":.>.f.x.h.h.z.v.v.v.v.v.v.v.j.v.j.v.k.v.v.l.v.v.v.v.l.c.v.v.v.l.",
"a.f.h.h.i.y.f.x.v.c.c.v.v.h.v.v.v.v.v.v.v.v.v.l.v.v.l.v.v.z.v.v.",
"j.x.l.h.u.t.f.x.v.v.v.v.v.b.v.v.z.v.v.x.v.v.l.l.v.c.v.v.v.x.b.v.",
"v.v.v.z.g.g.h.z.v.v.v.v.W./.!.l.c.l.j.j.x.v.l.l.v.v.v.v.v.W./.W.",
"v.v.v.c.v.x.h.h.v.v.c.c.[ ~ ~ ! ! ! ! ! | A.k.l.l.l.c.l.v.~.(.W.",
"^.~.b.k.c.h.t.,.p.N.` ! +.#.#.#.#.#.#.&.#.o.Q } c.v.v.v.l.n.W.b.",
").(.b.v.v.h.,.:.C ` @.#.&.=.-.-.-.-.-.-.&.#.@.' S v.v.v.l.v.v.l.",
"W.W.b.z.v.c.a.p R +.&.-.-.-.-.-.-.-.-.-.*.-.-.&.E 1.z.z.z.h.v.v.",
"v.v.v.z.k.v.c.@ T &.-.-.-.-.-.-.-.-.-.-.-.-.-.-.! : z.z.c.c.v.v.",
"k.c.v.v.v.v.b.+ T -.-.&.&.&.&.-.&.&.*.&.&.&.*.-.` = i.z.v.v.v.l.",
"v.x.v.l.l.v.i l +.-.&... . . . . . . . . . .O.-.@.E b V k.x.v.v.",
"x.v.v.v.l.v.+ ~ E.e.o.O.O.O.O.O.O.O.O.O.O.O.X.$.E.$.3 6 j.v.v.v.",
"v.v.j.c.v.v.+ 0. XU.@.#.-.-.-.-.-.-.-.-.-.*.#.w. XH.g 6 h.l.v.v.",
"c.l.v.v.v.v.f C.|.E.=.&.-.-.-.-.-.-.-.-.-.-.*.G.|.F.D b j.x.l.v.",
"x.v.x.v.v.v.d.F F.U.w.&.-.-.-.-.-.-.-.-.-.*.*.G.[.r.V.d.v.v.v.v.",
"v.x.v.x.x.x.B.+ d.e.O...#.*.*.*.-.-.-.-.&.@...%.S.; A d.j.j.j.j.",
"v.v.v.v.x.x.7 7 n Y L K ..&.-.*.-.-.-.&.X. .K P x 7 < x j.j.x.j.",
"v.v.v.v.x.v.O 2.3 1 G H K  .@.@.@.#.#.X.L J H 3 > ) 8 6 h.v.x.x.",
"v.x.v.x.v.v.6 ^ l t g l W W W L L L L P W I t k l ) c C l.z.x.v.",
"v.v.v.v.v.v.r.k 4 R ] k 0._ l G H H G N 0.N c { 8 k 1.b.v.b.b.b.",
"c.z.z.v.x.x.b.V % / 4.{ F.Z < / ( / j m F.C.3.2.> B c.v.v.~.^.W.",
"b.b.l.v.x.x.z.m.@ 2 ) 5.}.M.R J.I.P.} S {.L.5.U o v.v.v.v.W./.W.",
"/.^.b.v.z.z.z.s.f j U l { L.`.'.].].`.L.Z.R l l 6 a.v.v.v.b.n.b.",
"(./.b.v.v.v.v.5 3.T.Z.% X 2 } L.`.R.4.t # X k R.A.a.m.z.z.z.z.v.",
"n.n.v.v.v.v.b.@ } I.4.$ q m N Y._._.M.r e + 7 I.K.z.c.z.z.z.v.x.",
"h.z.v.x.v.v.x.v z ^ z $ 7.7.D D.D.D.q.n 8.e , / 3.z.z.z.c.v.v.v.",
"v.v.v.v.l.j.h.z.y   . 0 7.M t J H H G n 9.n &   - y.y.a.x.v.v.x.",
"v.x.j.c.v.v.v.h.i.v & a s t J P Y I L G m s 9 + z.u.t.f.v.v.v.v.",
"v.v.v.v.v.x.v.x.g.C ; a 6.w = Z 9.9.u * s d 9 - c.f.a.g.v.v.v.x.",
"c.j.v.v.v.v.v.v.l.k.r.u q m d.k.c.c.d.D 0 q h d.v.x.v.v.z.z.z.z.",
"v.v.v.v.v.v.n.~.b.k.h.v = <.v.c.v.c.c.r.f : F W.Q.b.z.v.z.f.a.g."
};
