/* XPM */
static char *persF31709309283[] = {
/* columns rows colors chars-per-pixel */
"32 32 195 2 ",
"   c #060403",
".  c #090404",
"X  c #130D0A",
"o  c #0B130F",
"O  c #16181B",
"+  c #241918",
"@  c #13211C",
"#  c #1B1D28",
"$  c #171C30",
"%  c #172B2B",
"&  c #262728",
"*  c #312A27",
"=  c #3B2C29",
"-  c #22342D",
";  c #3C312B",
":  c #2A2B3A",
">  c #2E323C",
",  c #3C373D",
"<  c #4E1D23",
"1  c #452A2B",
"2  c #493529",
"3  c #56312F",
"4  c #4B3938",
"5  c #573A37",
"6  c #71212C",
"7  c #623A37",
"8  c #234234",
"9  c #294338",
"0  c #3A453D",
"q  c #5D463A",
"w  c #654B3A",
"e  c #6A503F",
"r  c #2A3040",
"t  c #383A43",
"y  c #333A4A",
"u  c #2B3653",
"i  c #543D4B",
"p  c #673D48",
"a  c #7B3F4D",
"s  c #3E4745",
"d  c #2F5446",
"f  c #365A4B",
"g  c #26425C",
"h  c #3A4050",
"j  c #38455A",
"k  c #3A4C6C",
"l  c #464A46",
"z  c #49575A",
"x  c #505256",
"c  c #694647",
"v  c #774443",
"b  c #635344",
"n  c #6F5341",
"m  c #765B4F",
"M  c #664E51",
"N  c #774A57",
"B  c #4F6658",
"V  c #6A605D",
"C  c #79625B",
"Z  c #4A5379",
"A  c #5E5171",
"S  c #6F5769",
"D  c #4A6765",
"F  c #4D7061",
"G  c #547266",
"H  c #5D776C",
"J  c #6C6B6A",
"K  c #6E7F6A",
"L  c #746D7B",
"P  c #8E343F",
"I  c #883D45",
"U  c #853B48",
"Y  c #963943",
"T  c #9B3945",
"R  c #A43844",
"E  c #AB3949",
"W  c #BA3747",
"Q  c #B33B4A",
"!  c #86574A",
"~  c #894A58",
"^  c #994A55",
"/  c #815853",
"(  c #AD4B54",
")  c #BC4253",
"_  c #BF4858",
"`  c #AE565D",
"'  c #8B644E",
"]  c #86675A",
"[  c #996453",
"{  c #9C7356",
"}  c #9F755A",
"|  c #A87A5D",
" . c #995566",
".. c #92576D",
"X. c #B85765",
"o. c #B45A64",
"O. c #856D66",
"+. c #9A6365",
"@. c #97786C",
"#. c #877675",
"$. c #B8646C",
"%. c #AC7672",
"&. c #C14656",
"*. c #C04857",
"=. c #C54C5C",
"-. c #C84E5E",
";. c #CB5464",
":. c #C45C69",
">. c #CB5969",
",. c #D15D6D",
"<. c #CC616F",
"1. c #CA6575",
"2. c #D56373",
"3. c #D86878",
"4. c #1BA16A",
"5. c #21A46E",
"6. c #2AA774",
"7. c #36AB7C",
"8. c #4B816C",
"9. c #5A8874",
"0. c #5F917D",
"q. c #608475",
"w. c #AB8264",
"e. c #B98869",
"r. c #B18A7E",
"t. c #C48B6A",
"y. c #CA9876",
"u. c #E3A87E",
"i. c #475287",
"p. c #515D8F",
"a. c #6C728A",
"s. c #6E6E91",
"d. c #6374BD",
"f. c #8F7884",
"g. c #A17B81",
"h. c #D97484",
"j. c #D57C8C",
"k. c #788B90",
"l. c #46B385",
"z. c #4EB48A",
"x. c #52B68C",
"c. c #58B791",
"v. c #55BB90",
"b. c #5DBA94",
"n. c #68A78E",
"m. c #6DB297",
"M. c #61BB96",
"N. c #65BD99",
"B. c #6EBE9E",
"V. c #71BF9F",
"C. c #71BFA0",
"Z. c #6FC09F",
"A. c #70C09F",
"S. c #6FC1A0",
"D. c #70C0A0",
"F. c #79C3A6",
"G. c #74C9A6",
"H. c #7EC5A9",
"J. c #8D968A",
"K. c #8D8D95",
"L. c #A39089",
"P. c #9AAA9E",
"I. c #B1A29C",
"U. c #A28CAE",
"Y. c #A88EB1",
"T. c #A19DB0",
"R. c #BFA8AD",
"E. c #A2A0BB",
"W. c #CB9A85",
"Q. c #C98190",
"!. c #DA8190",
"~. c #D4AF9E",
"^. c #D9B29D",
"/. c #E6B18C",
"(. c #E0B196",
"). c #E299A9",
"_. c #D4B2A3",
"`. c #DAA6B6",
"'. c #D2B4B0",
"]. c #E5BBA2",
"[. c #83C6AD",
"{. c #87C8AF",
"}. c #86C9B0",
"|. c #8BCAB2",
" X c #91CBB6",
".X c #96CDB9",
"XX c #9ACEBC",
"oX c #EEC3A9",
"OX c #F3C9AE",
"+X c #E6C7BE",
"@X c #B5BBCB",
"#X c #9ED6C3",
"$X c #CFC7CF",
"%X c #E6C2D3",
"&X c #E3D8E8",
/* pixels */
"4.4.b.D.D.S.Z.S.D.D.S.D.S.V.D.D.D.D.D.A.C.D.Z.V.S.D.D.Z.D.S.V.D.",
"5.6.b.Z.B.B.Z.D.V.S.V.D.D.D.C.D.V.D.C.D.D.D.D.D.V.D.D.V.D.C.C.S.",
"M.M.B.Z.x.z.M.A.S.C.S.S.Z.D.D.D.D.A.D.D.D.A.D.Z.S.S.V.S.D.D.D.Z.",
"A.A.S.B.x.l.M.A.C.D.S.G.D.D.D.C.V.V.V.V.A.V.A.Z.D.C.D.D.D.D.D.D.",
"D.D.S.V.N.N.B.Z.S.S.D.S.H. XL.Q ( ( ( ( ( ( $.I.S.G.V.V.D.{. X[.",
"D.D.D.S.A.A.B.B.S.S.S.L.$.X.:.,.,.,.,.,.,.,.>.<.` +.S.V.D. XXX{.",
" X|.F.Z.D.B.l.7.c.S.K.%.>.;.,.h.3.3.3.3.3.3.2.,.;.:.J.V.D.F.[.F.",
"XXXXF.D.D.B.7.4.x.G.#.o.2.3.3.3.3.3.3.3.3.3.3.2.2.<.+.P.D.C.C.C.",
"{.[.D.D.A.Z.c.z.Z.d / <.2.3.3.3.3.3.3.2.3.2.3.3.3.3.o.l D.C.V.S.",
"D.D.D.D.D.C.B.V.G.% U 3.2.h.3.3.3.3.3.h.3.h.3.3.3.3.X.& G.B.D.D.",
"B.S.D.D.A.D.D.D.B p :.3.2.-.&.*.&.&.=.&.&.&._ &.;.3.<.^ J V.V.S.",
"D.D.C.D.D.D.D.D.% ^ ).!.>.-.-.-.-.-.-.-.-.-.-.-.-.1.).1.c B.C.D.",
"D.D.V.D.D.S.D.G.-  .%X).>.,.2.2.2.2.2.2.2.2.2.2.,.1.&XQ.N B.A.A.",
"D.D.S.D.D.V.D.D.- #.&X`.h.2.3.3.3.3.2.h.3.3.3.3.2.j.&XR.J V.D.D.",
"C.D.D.V.D.D.H.}.- z @X`.h.h.2.3.2.3.3.3.3.3.3.3.3.j.$Xk.K.C.D.A.",
"D.Z.C.S.S.D.|.#Xb O f.Y.;.=.,.3.3.3.3.3.3.3.2.>.=.h.E.y J D.D.D.",
"D.A.A.A.A.A.{.n.4 2 A ~ Q W =.2.3.3.3.3.3.2.;.&.W E S q 4 9.V.V.",
"A.A.A.A.A.A.0.& X { q 6 T E Q -.2.,.2.,.2.;.) Q E U 1 | q 0 V.V.",
"D.D.A.G.A.9.-     { ! 5 p U R Q _ _ &.*.=._ ) T a p 5 | e l B.V.",
"A.D.A.A.8.e w q X 2 v m C M .. .U Y Y T I ~ ..~ M ] e v K q.V.V.",
"D.D.D.B.o w.u.w.+ % ; ' t.@.T.a.4 / [ [ c x E.K.@.t.1 f V.F.F.F.",
"S.Z.D.V.0 m { ' l n.F b } e.+XK.m W././.%.V $X_.t.[ @ G.C.}..X[.",
"F.F.D.C.G.B 0 B m.Z.G.G = 3 r.~.(.oXOXOX].^._.%./ 7 @ D.D.}..X}.",
" X XF.D.A.A.G.G.Z.Z.G.G + + 4 C W.^.oX].W.@.L L A , @ V.D.F.F.F.",
"XX.XF.D.D.C.D.A.Z.Z.m.z O $ $ i g.I.'.~.O.4 : u k u O S.S.S.S.D.",
"H.H.D.D.D.D.S.D.Z.G.D # % i.Z s.Y.U.U.s.g > * * , k 8 V.S.S.V.D.",
"A.Z.D.V.A.D.C.D.Z.Z.9 # j p.Z U R I T 6 . ; ^.OXW.m S.V.C.D.S.D.",
"D.D.D.S.D.D.D.B.b.v.8 # y z a E Y P P T 6 ; e.y.| C c.N.D.S.V.D.",
"S.C.D.D.D.D.D.Z.c.l.8 # y h i N i = < < c L n e O.P.l.M.D.S.D.C.",
"C.D.Z.V.D.B.D.Z.N.b.F t t y u j g l s s G n.B l H N.b.N.D.V.D.S.",
"D.Z.D.S.D.D.D.D.C.C.C.G & r j # f D.m.V.V.V.V.V.V.V.C.S.D.B.V.S.",
"C.D.D.V.S.D.[.{.F.C.C.G : i.d.u f G.V.V.V.V.C.[.[.F.S.S.V.M.c.N."
};
